<svg xmlns="http://www.w3.org/2000/svg" xmlns:xlink="http://www.w3.org/1999/xlink" width="500" zoomAndPan="magnify" viewBox="0 0 375 374.999991" height="500" preserveAspectRatio="xMidYMid meet" version="1.2"><defs><clipPath id="2cb1e5aec4"><rect x="0" width="253" y="0" height="112"/></clipPath><clipPath id="d15eee1b18"><path d="M 210 117.027344 L 212 117.027344 L 212 120 L 210 120 Z M 210 117.027344 "/></clipPath><clipPath id="e8b8c40b05"><path d="M 237 186 L 246 186 L 246 187.527344 L 237 187.527344 Z M 237 186 "/></clipPath><clipPath id="4a9a3d81cd"><path d="M 252 186 L 272 186 L 272 187.527344 L 252 187.527344 Z M 252 186 "/></clipPath><clipPath id="c66dbea089"><path d="M 274 186 L 275.613281 186 L 275.613281 187.527344 L 274 187.527344 Z M 274 186 "/></clipPath><clipPath id="a30682d0f2"><path d="M 176 186 L 186 186 L 186 187.527344 L 176 187.527344 Z M 176 186 "/></clipPath><clipPath id="c2658755f6"><path d="M 150 186 L 171 186 L 171 187.527344 L 150 187.527344 Z M 150 186 "/></clipPath><clipPath id="f4a530a2ea"><path d="M 146.613281 186 L 149 186 L 149 187.527344 L 146.613281 187.527344 Z M 146.613281 186 "/></clipPath><clipPath id="05a46bcea2"><rect x="0" width="77" y="0" height="102"/></clipPath><clipPath id="43ba05a228"><path d="M 205 174.175781 L 214 174.175781 L 214 177 L 205 177 Z M 205 174.175781 "/></clipPath><clipPath id="ac757eb274"><path d="M 212 177 L 221.152344 177 L 221.152344 191 L 212 191 Z M 212 177 "/></clipPath><clipPath id="57d10290f7"><path d="M 199.402344 174.175781 L 221 174.175781 L 221 195.925781 L 199.402344 195.925781 Z M 199.402344 174.175781 "/></clipPath><clipPath id="920c3a95be"><path d="M 199.402344 174.175781 L 221.152344 174.175781 L 221.152344 195.925781 L 199.402344 195.925781 Z M 199.402344 174.175781 "/></clipPath></defs><g id="a8ba456d5a"><g transform="matrix(1,0,0,1,60,116)"><g clip-path="url(#2cb1e5aec4)"><g style="fill:#121212;fill-opacity:1;"><g transform="translate(1.59809, 87.770701)"><path style="stroke:none" d="M 36.828125 -50.640625 C 33.515625 -50.640625 30.472656 -49.75 27.703125 -47.96875 C 24.941406 -46.1875 22.734375 -43.820312 21.078125 -40.875 C 19.421875 -37.925781 18.59375 -34.671875 18.59375 -31.109375 C 18.59375 -27.617188 19.421875 -24.382812 21.078125 -21.40625 C 22.734375 -18.425781 24.941406 -16.046875 27.703125 -14.265625 C 30.472656 -12.484375 33.515625 -11.59375 36.828125 -11.59375 C 38.847656 -11.59375 40.976562 -11.882812 43.21875 -12.46875 C 45.457031 -13.050781 47.546875 -14.171875 49.484375 -15.828125 C 51.421875 -17.492188 52.941406 -19.890625 54.046875 -23.015625 L 38.109375 -23.015625 L 38.109375 -33.421875 L 68.953125 -33.421875 L 68.953125 -31.296875 C 68.953125 -26.878906 68.125 -22.722656 66.46875 -18.828125 C 64.8125 -14.929688 62.507812 -11.492188 59.5625 -8.515625 C 56.613281 -5.535156 53.207031 -3.21875 49.34375 -1.5625 C 45.476562 0.09375 41.304688 0.921875 36.828125 0.921875 C 32.410156 0.921875 28.25 0.078125 24.34375 -1.609375 C 20.445312 -3.296875 17.023438 -5.613281 14.078125 -8.5625 C 11.140625 -11.507812 8.828125 -14.929688 7.140625 -18.828125 C 5.453125 -22.722656 4.609375 -26.878906 4.609375 -31.296875 C 4.609375 -35.722656 5.453125 -39.882812 7.140625 -43.78125 C 8.828125 -47.675781 11.140625 -51.09375 14.078125 -54.03125 C 17.023438 -56.976562 20.445312 -59.296875 24.34375 -60.984375 C 28.25 -62.671875 32.410156 -63.515625 36.828125 -63.515625 C 41.429688 -63.515625 45.785156 -62.578125 49.890625 -60.703125 C 54.003906 -58.835938 57.59375 -56.265625 60.65625 -52.984375 C 63.726562 -49.703125 65.972656 -45.878906 67.390625 -41.515625 L 52.203125 -41.515625 C 50.660156 -44.828125 48.476562 -47.175781 45.65625 -48.5625 C 42.832031 -49.945312 39.890625 -50.640625 36.828125 -50.640625 Z M 36.828125 -50.640625 "/></g></g><g style="fill:#121212;fill-opacity:1;"><g transform="translate(72.389779, 87.770701)"><path style="stroke:none" d="M 26.421875 -9.578125 C 28.878906 -9.578125 30.78125 -10.097656 32.125 -11.140625 C 33.476562 -12.179688 34.429688 -13.515625 34.984375 -15.140625 C 35.535156 -16.765625 35.8125 -18.4375 35.8125 -20.15625 C 35.8125 -21.875 35.519531 -23.53125 34.9375 -25.125 C 34.351562 -26.726562 33.382812 -28.050781 32.03125 -29.09375 C 30.6875 -30.132812 28.816406 -30.65625 26.421875 -30.65625 C 24.023438 -30.65625 22.132812 -30.132812 20.75 -29.09375 C 19.375 -28.050781 18.394531 -26.726562 17.8125 -25.125 C 17.226562 -23.53125 16.9375 -21.875 16.9375 -20.15625 C 16.9375 -18.4375 17.210938 -16.765625 17.765625 -15.140625 C 18.316406 -13.515625 19.28125 -12.179688 20.65625 -11.140625 C 22.039062 -10.097656 23.960938 -9.578125 26.421875 -9.578125 Z M 26.421875 -41.421875 C 30.660156 -41.421875 34.523438 -40.53125 38.015625 -38.75 C 41.515625 -36.976562 44.304688 -34.507812 46.390625 -31.34375 C 48.484375 -28.1875 49.53125 -24.488281 49.53125 -20.25 C 49.53125 -15.957031 48.5 -12.226562 46.4375 -9.0625 C 44.382812 -5.90625 41.609375 -3.46875 38.109375 -1.75 C 34.609375 -0.03125 30.710938 0.828125 26.421875 0.828125 C 22.128906 0.828125 18.21875 -0.03125 14.6875 -1.75 C 11.15625 -3.46875 8.359375 -5.90625 6.296875 -9.0625 C 4.242188 -12.226562 3.21875 -15.957031 3.21875 -20.25 C 3.21875 -24.488281 4.257812 -28.1875 6.34375 -31.34375 C 8.4375 -34.507812 11.242188 -36.976562 14.765625 -38.75 C 18.296875 -40.53125 22.179688 -41.421875 26.421875 -41.421875 Z M 26.421875 -41.421875 "/></g></g><g style="fill:#121212;fill-opacity:1;"><g transform="translate(123.757413, 87.770701)"><path style="stroke:none" d="M 26.421875 -9.578125 C 28.878906 -9.578125 30.78125 -10.097656 32.125 -11.140625 C 33.476562 -12.179688 34.429688 -13.515625 34.984375 -15.140625 C 35.535156 -16.765625 35.8125 -18.4375 35.8125 -20.15625 C 35.8125 -21.875 35.519531 -23.53125 34.9375 -25.125 C 34.351562 -26.726562 33.382812 -28.050781 32.03125 -29.09375 C 30.6875 -30.132812 28.816406 -30.65625 26.421875 -30.65625 C 24.023438 -30.65625 22.132812 -30.132812 20.75 -29.09375 C 19.375 -28.050781 18.394531 -26.726562 17.8125 -25.125 C 17.226562 -23.53125 16.9375 -21.875 16.9375 -20.15625 C 16.9375 -18.4375 17.210938 -16.765625 17.765625 -15.140625 C 18.316406 -13.515625 19.28125 -12.179688 20.65625 -11.140625 C 22.039062 -10.097656 23.960938 -9.578125 26.421875 -9.578125 Z M 26.421875 -41.421875 C 30.660156 -41.421875 34.523438 -40.53125 38.015625 -38.75 C 41.515625 -36.976562 44.304688 -34.507812 46.390625 -31.34375 C 48.484375 -28.1875 49.53125 -24.488281 49.53125 -20.25 C 49.53125 -15.957031 48.5 -12.226562 46.4375 -9.0625 C 44.382812 -5.90625 41.609375 -3.46875 38.109375 -1.75 C 34.609375 -0.03125 30.710938 0.828125 26.421875 0.828125 C 22.128906 0.828125 18.21875 -0.03125 14.6875 -1.75 C 11.15625 -3.46875 8.359375 -5.90625 6.296875 -9.0625 C 4.242188 -12.226562 3.21875 -15.957031 3.21875 -20.25 C 3.21875 -24.488281 4.257812 -28.1875 6.34375 -31.34375 C 8.4375 -34.507812 11.242188 -36.976562 14.765625 -38.75 C 18.296875 -40.53125 22.179688 -41.421875 26.421875 -41.421875 Z M 26.421875 -41.421875 "/></g></g><g style="fill:#121212;fill-opacity:1;"><g transform="translate(175.125047, 87.770701)"><path style="stroke:none" d="M 37.28125 -20.25 C 37.28125 -22.03125 36.847656 -23.6875 35.984375 -25.21875 C 35.128906 -26.757812 33.976562 -28.003906 32.53125 -28.953125 C 31.09375 -29.898438 29.457031 -30.375 27.625 -30.375 C 25.78125 -30.375 24.132812 -29.898438 22.6875 -28.953125 C 21.25 -28.003906 20.097656 -26.757812 19.234375 -25.21875 C 18.378906 -23.6875 17.953125 -22.03125 17.953125 -20.25 C 17.953125 -18.46875 18.378906 -16.8125 19.234375 -15.28125 C 20.097656 -13.75 21.25 -12.503906 22.6875 -11.546875 C 24.132812 -10.597656 25.78125 -10.125 27.625 -10.125 C 29.457031 -10.125 31.09375 -10.597656 32.53125 -11.546875 C 33.976562 -12.503906 35.128906 -13.75 35.984375 -15.28125 C 36.847656 -16.8125 37.28125 -18.46875 37.28125 -20.25 Z M 51.09375 -69.046875 L 51.09375 0 L 37.28125 0 L 37.28125 -4.875 C 35.9375 -2.789062 33.925781 -1.300781 31.25 -0.40625 C 28.582031 0.476562 25.960938 0.921875 23.390625 0.921875 C 19.578125 0.921875 16.132812 -0.0546875 13.0625 -2.015625 C 10 -3.984375 7.59375 -6.578125 5.84375 -9.796875 C 4.09375 -13.023438 3.21875 -16.507812 3.21875 -20.25 C 3.21875 -24 4.09375 -27.484375 5.84375 -30.703125 C 7.59375 -33.921875 10 -36.523438 13.0625 -38.515625 C 16.132812 -40.515625 19.578125 -41.515625 23.390625 -41.515625 C 25.960938 -41.515625 28.472656 -41.082031 30.921875 -40.21875 C 33.378906 -39.363281 35.5 -37.832031 37.28125 -35.625 L 37.28125 -69.046875 Z M 51.09375 -69.046875 "/></g></g><g style="fill:#121212;fill-opacity:1;"><g transform="translate(230.36501, 87.770701)"><path style="stroke:none" d=""/></g></g></g></g><g clip-rule="nonzero" clip-path="url(#d15eee1b18)"><path style=" stroke:none;fill-rule:nonzero;fill:#121212;fill-opacity:1;" d="M 210.648438 117.234375 L 211.554688 117.234375 L 211.554688 119.359375 L 210.648438 119.359375 L 210.648438 117.234375 "/></g><path style=" stroke:none;fill-rule:nonzero;fill:#121212;fill-opacity:1;" d="M 210.648438 125.097656 L 211.554688 125.097656 L 211.554688 146.855469 L 210.648438 146.855469 L 210.648438 125.097656 "/><path style=" stroke:none;fill-rule:nonzero;fill:#121212;fill-opacity:1;" d="M 210.648438 153.792969 L 211.554688 153.792969 L 211.554688 161.804688 L 210.648438 161.804688 L 210.648438 153.792969 "/><path style=" stroke:none;fill-rule:nonzero;fill:#121212;fill-opacity:1;" d="M 237.59375 123.113281 L 238.429688 123.46875 L 237.714844 125.140625 L 236.878906 124.785156 L 237.59375 123.113281 "/><path style=" stroke:none;fill-rule:nonzero;fill:#121212;fill-opacity:1;" d="M 235.085938 128.988281 L 235.921875 129.34375 L 226.835938 150.632812 L 226 150.277344 L 235.085938 128.988281 "/><path style=" stroke:none;fill-rule:nonzero;fill:#121212;fill-opacity:1;" d="M 223.214844 156.804688 L 224.050781 157.160156 L 221.273438 163.664062 L 220.4375 163.308594 L 223.214844 156.804688 "/><path style=" stroke:none;fill-rule:nonzero;fill:#121212;fill-opacity:1;" d="M 241.675781 141.863281 L 242.417969 142.390625 L 241.433594 143.777344 L 240.691406 143.25 L 241.675781 141.863281 "/><path style=" stroke:none;fill-rule:nonzero;fill:#121212;fill-opacity:1;" d="M 239.292969 145.214844 L 240.035156 145.742188 L 238.886719 147.355469 L 238.144531 146.828125 L 239.292969 145.214844 "/><path style=" stroke:none;fill-rule:nonzero;fill:#121212;fill-opacity:1;" d="M 235.199219 150.972656 L 235.9375 151.5 L 225.429688 166.269531 L 224.691406 165.746094 L 235.199219 150.972656 "/><path style=" stroke:none;fill-rule:nonzero;fill:#121212;fill-opacity:1;" d="M 260.070312 139.441406 L 260.6875 140.105469 L 259.289062 141.414062 L 258.667969 140.753906 L 260.070312 139.441406 "/><path style=" stroke:none;fill-rule:nonzero;fill:#121212;fill-opacity:1;" d="M 256.191406 143.066406 L 256.8125 143.730469 L 239.804688 159.640625 L 239.183594 158.976562 L 256.191406 143.066406 "/><path style=" stroke:none;fill-rule:nonzero;fill:#121212;fill-opacity:1;" d="M 234.753906 163.125 L 235.371094 163.785156 L 229.40625 169.367188 L 228.789062 168.703125 L 234.753906 163.125 "/><path style=" stroke:none;fill-rule:nonzero;fill:#121212;fill-opacity:1;" d="M 221.082031 133.464844 L 221.976562 133.636719 L 221.597656 135.585938 L 220.707031 135.414062 L 221.082031 133.464844 "/><path style=" stroke:none;fill-rule:nonzero;fill:#121212;fill-opacity:1;" d="M 220.277344 137.625 L 221.167969 137.796875 L 220.777344 139.8125 L 219.882812 139.640625 L 220.277344 137.625 "/><path style=" stroke:none;fill-rule:nonzero;fill:#121212;fill-opacity:1;" d="M 218.875 144.835938 L 219.769531 145.007812 L 216.425781 162.226562 L 215.535156 162.054688 L 218.875 144.835938 "/><path style=" stroke:none;fill-rule:nonzero;fill:#121212;fill-opacity:1;" d="M 256.941406 156.878906 L 257.425781 157.648438 L 256.226562 158.402344 L 255.742188 157.636719 L 256.941406 156.878906 "/><path style=" stroke:none;fill-rule:nonzero;fill:#121212;fill-opacity:1;" d="M 253.289062 159.183594 L 253.773438 159.949219 L 252.128906 160.988281 L 251.644531 160.222656 L 253.289062 159.183594 "/><path style=" stroke:none;fill-rule:nonzero;fill:#121212;fill-opacity:1;" d="M 247.691406 162.714844 L 248.175781 163.480469 L 232.367188 173.457031 L 231.882812 172.6875 L 247.691406 162.714844 "/><path style=" stroke:none;fill-rule:nonzero;fill:#121212;fill-opacity:1;" d="M 272.476562 162.765625 L 272.792969 163.617188 L 271.464844 164.109375 L 271.148438 163.257812 L 272.476562 162.765625 "/><path style=" stroke:none;fill-rule:nonzero;fill:#121212;fill-opacity:1;" d="M 267.910156 164.457031 L 268.222656 165.308594 L 248.65625 172.558594 L 248.339844 171.707031 L 267.910156 164.457031 "/><path style=" stroke:none;fill-rule:nonzero;fill:#121212;fill-opacity:1;" d="M 242.761719 173.773438 L 243.078125 174.625 L 235.121094 177.574219 L 234.804688 176.722656 L 242.761719 173.773438 "/><path style=" stroke:none;fill-rule:nonzero;fill:#121212;fill-opacity:1;" d="M 264.328125 176.324219 L 264.5 177.21875 L 263.433594 177.421875 L 263.261719 176.53125 L 264.328125 176.324219 "/><path style=" stroke:none;fill-rule:nonzero;fill:#121212;fill-opacity:1;" d="M 260.988281 176.96875 L 261.164062 177.859375 L 259.789062 178.125 L 259.617188 177.234375 L 260.988281 176.96875 "/><path style=" stroke:none;fill-rule:nonzero;fill:#121212;fill-opacity:1;" d="M 254.890625 178.144531 L 255.0625 179.035156 L 236.582031 182.597656 L 236.410156 181.707031 L 254.890625 178.144531 "/><g clip-rule="nonzero" clip-path="url(#e8b8c40b05)"><path style=" stroke:none;fill-rule:nonzero;fill:#121212;fill-opacity:1;" d="M 237.050781 186.578125 L 245.457031 186.578125 L 245.457031 187.484375 L 237.050781 187.484375 L 237.050781 186.578125 "/></g><g clip-rule="nonzero" clip-path="url(#4a9a3d81cd)"><path style=" stroke:none;fill-rule:nonzero;fill:#121212;fill-opacity:1;" d="M 252.203125 186.578125 L 271.753906 186.578125 L 271.753906 187.484375 L 252.203125 187.484375 L 252.203125 186.578125 "/></g><g clip-rule="nonzero" clip-path="url(#c66dbea089)"><path style=" stroke:none;fill-rule:nonzero;fill:#121212;fill-opacity:1;" d="M 274.148438 186.578125 L 275.597656 186.578125 L 275.597656 187.484375 L 274.148438 187.484375 L 274.148438 186.578125 "/></g><path style=" stroke:none;fill-rule:nonzero;fill:#121212;fill-opacity:1;" d="M 184.644531 123.164062 L 185.359375 124.835938 L 184.523438 125.191406 L 183.808594 123.519531 L 184.644531 123.164062 "/><path style=" stroke:none;fill-rule:nonzero;fill:#121212;fill-opacity:1;" d="M 187.152344 129.039062 L 196.238281 150.328125 L 195.402344 150.683594 L 186.316406 129.394531 L 187.152344 129.039062 "/><path style=" stroke:none;fill-rule:nonzero;fill:#121212;fill-opacity:1;" d="M 199.023438 156.855469 L 201.800781 163.359375 L 200.964844 163.714844 L 198.1875 157.210938 L 199.023438 156.855469 "/><path style=" stroke:none;fill-rule:nonzero;fill:#121212;fill-opacity:1;" d="M 180.5625 141.914062 L 181.546875 143.300781 L 180.808594 143.828125 L 179.820312 142.441406 L 180.5625 141.914062 "/><path style=" stroke:none;fill-rule:nonzero;fill:#121212;fill-opacity:1;" d="M 182.945312 145.265625 L 184.09375 146.878906 L 183.351562 147.40625 L 182.207031 145.792969 L 182.945312 145.265625 "/><path style=" stroke:none;fill-rule:nonzero;fill:#121212;fill-opacity:1;" d="M 187.042969 151.023438 L 197.546875 165.796875 L 196.808594 166.320312 L 186.300781 151.550781 L 187.042969 151.023438 "/><path style=" stroke:none;fill-rule:nonzero;fill:#121212;fill-opacity:1;" d="M 162.171875 139.492188 L 163.570312 140.800781 L 162.953125 141.464844 L 161.550781 140.152344 L 162.171875 139.492188 "/><path style=" stroke:none;fill-rule:nonzero;fill:#121212;fill-opacity:1;" d="M 166.046875 143.117188 L 183.054688 159.027344 L 182.433594 159.691406 L 165.425781 143.78125 L 166.046875 143.117188 "/><path style=" stroke:none;fill-rule:nonzero;fill:#121212;fill-opacity:1;" d="M 187.484375 163.175781 L 193.449219 168.753906 L 192.832031 169.417969 L 186.867188 163.835938 L 187.484375 163.175781 "/><path style=" stroke:none;fill-rule:nonzero;fill:#121212;fill-opacity:1;" d="M 201.15625 133.511719 L 201.53125 135.464844 L 200.640625 135.636719 L 200.261719 133.6875 L 201.15625 133.511719 "/><path style=" stroke:none;fill-rule:nonzero;fill:#121212;fill-opacity:1;" d="M 201.960938 137.675781 L 202.355469 139.691406 L 201.460938 139.863281 L 201.070312 137.847656 L 201.960938 137.675781 "/><path style=" stroke:none;fill-rule:nonzero;fill:#121212;fill-opacity:1;" d="M 203.363281 144.886719 L 206.703125 162.105469 L 205.8125 162.277344 L 202.46875 145.058594 L 203.363281 144.886719 "/><path style=" stroke:none;fill-rule:nonzero;fill:#121212;fill-opacity:1;" d="M 165.296875 156.929688 L 166.496094 157.683594 L 166.011719 158.453125 L 164.8125 157.699219 L 165.296875 156.929688 "/><path style=" stroke:none;fill-rule:nonzero;fill:#121212;fill-opacity:1;" d="M 168.949219 159.234375 L 170.59375 160.273438 L 170.109375 161.039062 L 168.464844 160 L 168.949219 159.234375 "/><path style=" stroke:none;fill-rule:nonzero;fill:#121212;fill-opacity:1;" d="M 174.546875 162.765625 L 190.355469 172.738281 L 189.871094 173.507812 L 174.0625 163.53125 L 174.546875 162.765625 "/><path style=" stroke:none;fill-rule:nonzero;fill:#121212;fill-opacity:1;" d="M 149.761719 162.816406 L 151.089844 163.308594 L 150.773438 164.160156 L 149.445312 163.667969 L 149.761719 162.816406 "/><path style=" stroke:none;fill-rule:nonzero;fill:#121212;fill-opacity:1;" d="M 154.328125 164.507812 L 173.898438 171.757812 L 173.582031 172.609375 L 154.015625 165.359375 L 154.328125 164.507812 "/><path style=" stroke:none;fill-rule:nonzero;fill:#121212;fill-opacity:1;" d="M 179.476562 173.824219 L 187.433594 176.773438 L 187.117188 177.625 L 179.160156 174.675781 L 179.476562 173.824219 "/><path style=" stroke:none;fill-rule:nonzero;fill:#121212;fill-opacity:1;" d="M 157.910156 176.375 L 158.976562 176.582031 L 158.804688 177.472656 L 157.738281 177.265625 L 157.910156 176.375 "/><path style=" stroke:none;fill-rule:nonzero;fill:#121212;fill-opacity:1;" d="M 161.25 177.019531 L 162.621094 177.285156 L 162.449219 178.175781 L 161.078125 177.910156 L 161.25 177.019531 "/><path style=" stroke:none;fill-rule:nonzero;fill:#121212;fill-opacity:1;" d="M 167.347656 178.195312 L 185.828125 181.757812 L 185.65625 182.648438 L 167.175781 179.085938 L 167.347656 178.195312 "/><g clip-rule="nonzero" clip-path="url(#a30682d0f2)"><path style=" stroke:none;fill-rule:nonzero;fill:#121212;fill-opacity:1;" d="M 176.785156 186.625 L 185.203125 186.625 L 185.203125 187.535156 L 176.785156 187.535156 L 176.785156 186.625 "/></g><g clip-rule="nonzero" clip-path="url(#c2658755f6)"><path style=" stroke:none;fill-rule:nonzero;fill:#121212;fill-opacity:1;" d="M 150.484375 186.625 L 170.035156 186.625 L 170.035156 187.535156 L 150.484375 187.535156 L 150.484375 186.625 "/></g><g clip-rule="nonzero" clip-path="url(#f4a530a2ea)"><path style=" stroke:none;fill-rule:nonzero;fill:#121212;fill-opacity:1;" d="M 146.640625 186.625 L 148.089844 186.625 L 148.089844 187.535156 L 146.640625 187.535156 L 146.640625 186.625 "/></g><g transform="matrix(1,0,0,1,146,163)"><g clip-path="url(#05a46bcea2)"><g style="fill:#65b891;fill-opacity:1;"><g transform="translate(0.624995, 76.330416)"><path style="stroke:none" d="M 35.890625 -8.921875 L 17.046875 -8.921875 L 14.03125 0 L 1.15625 0 L 19.421875 -50.484375 L 33.65625 -50.484375 L 51.921875 0 L 38.90625 0 Z M 32.71875 -18.40625 L 26.46875 -36.890625 L 20.28125 -18.40625 Z M 32.71875 -18.40625 "/></g></g><g style="fill:#65b891;fill-opacity:1;"><g transform="translate(53.632566, 76.330416)"><path style="stroke:none" d="M 10.640625 -44.296875 C 8.484375 -44.296875 6.722656 -44.929688 5.359375 -46.203125 C 3.992188 -47.472656 3.3125 -49.046875 3.3125 -50.921875 C 3.3125 -52.835938 3.992188 -54.429688 5.359375 -55.703125 C 6.722656 -56.972656 8.484375 -57.609375 10.640625 -57.609375 C 12.753906 -57.609375 14.492188 -56.972656 15.859375 -55.703125 C 17.222656 -54.429688 17.90625 -52.835938 17.90625 -50.921875 C 17.90625 -49.046875 17.222656 -47.472656 15.859375 -46.203125 C 14.492188 -44.929688 12.753906 -44.296875 10.640625 -44.296875 Z M 16.75 -40.125 L 16.75 0 L 4.453125 0 L 4.453125 -40.125 Z M 16.75 -40.125 "/></g></g></g></g><g clip-rule="nonzero" clip-path="url(#43ba05a228)"><path style=" stroke:none;fill-rule:nonzero;fill:#66c771;fill-opacity:1;" d="M 211.539062 176.054688 C 211.898438 175.753906 212.738281 175.246094 213.605469 174.855469 C 212.558594 174.523438 211.445312 174.34375 210.28125 174.34375 C 208.585938 174.34375 206.980469 174.726562 205.554688 175.410156 C 206.148438 175.628906 206.847656 175.917969 207.300781 176.210938 C 208.207031 176.796875 210.960938 176.535156 211.539062 176.054688 "/><path style="fill:none;stroke-width:40;stroke-linecap:round;stroke-linejoin:round;stroke:#21203d;stroke-opacity:1;stroke-miterlimit:10;" d="M 2275.806595 3191.476056 C 2318.655799 3228.399546 2418.792528 3290.737906 2522.189523 3338.69049 C 2397.367926 3379.450187 2264.628541 3401.508376 2125.834377 3401.508376 C 1923.697911 3401.508376 1732.273745 3354.514843 1562.274182 3270.597821 C 1633.068521 3243.744373 1716.43817 3208.259461 1770.465428 3172.295022 C 1878.519945 3100.366146 2206.875265 3132.494377 2275.806595 3191.476056 Z M 2275.806595 3191.476056 " transform="matrix(0.00838697,0,0,-0.00814607,192.451941,202.052668)"/></g><path style=" stroke:none;fill-rule:nonzero;fill:#97cdef;fill-opacity:1;" d="M 217.59375 184.183594 C 217.695312 184.085938 217.363281 184.136719 216.910156 184.285156 C 217.21875 184.3125 217.488281 184.285156 217.59375 184.183594 "/><path style="fill:none;stroke-width:40;stroke-linecap:round;stroke-linejoin:round;stroke:#21203d;stroke-opacity:1;stroke-miterlimit:10;" d="M 2997.722547 2193.582773 C 3009.832105 2205.570919 2970.243166 2199.337083 2916.215907 2181.115101 C 2953.010333 2177.75842 2985.147237 2181.115101 2997.722547 2193.582773 Z M 2997.722547 2193.582773 " transform="matrix(0.00838697,0,0,-0.00814607,192.451941,202.052668)"/><path style=" stroke:none;fill-rule:nonzero;fill:#66c771;fill-opacity:1;" d="M 216.15625 178.894531 C 215.136719 179.355469 215.257812 179.9375 215.554688 180.230469 C 215.855469 180.519531 215.078125 181.453125 215.078125 181.453125 C 215.078125 181.453125 214.414062 182.398438 213.605469 182.398438 C 212.800781 182.398438 212.410156 183.050781 212.917969 183.546875 C 213.429688 184.042969 215.347656 183.574219 215.675781 183.894531 C 215.875 184.089844 216.4375 184.25 216.910156 184.285156 C 217.363281 184.136719 217.695312 184.085938 217.59375 184.183594 C 217.488281 184.285156 217.21875 184.3125 216.910156 184.285156 C 216.160156 184.535156 215.078125 185.0625 215.078125 185.640625 C 215.078125 186.574219 216.289062 188.183594 216.695312 188.578125 C 217.101562 188.972656 217.355469 190.492188 217.355469 190.492188 C 217.355469 190.492188 218.734375 190.410156 219.09375 188.578125 C 219.453125 186.75 219.03125 185.285156 219.03125 185.285156 C 219.03125 185.285156 220.050781 185.339844 220.050781 184.734375 C 220.050781 184.734375 220.292969 183.789062 220.902344 183.476562 C 220.621094 181.21875 219.597656 179.183594 218.070312 177.613281 C 217.410156 178.121094 216.644531 178.671875 216.15625 178.894531 "/><g clip-rule="nonzero" clip-path="url(#ac757eb274)"><path style="fill:none;stroke-width:40;stroke-linecap:round;stroke-linejoin:round;stroke:#21203d;stroke-opacity:1;stroke-miterlimit:10;" d="M 2826.325727 2842.860767 C 2704.764396 2786.276717 2719.202715 2714.827366 2754.599884 2678.862928 C 2790.462806 2643.378015 2697.778113 2528.771338 2697.778113 2528.771338 C 2697.778113 2528.771338 2618.600234 2412.726084 2522.189523 2412.726084 C 2426.244564 2412.726084 2379.669341 2332.645268 2440.217131 2271.745485 C 2501.230673 2210.845703 2729.915016 2268.388804 2769.038203 2229.067685 C 2792.791567 2205.091393 2859.859888 2185.430833 2916.215907 2181.115101 C 2970.243166 2199.337083 3009.832105 2205.570919 2997.722547 2193.582773 C 2985.147237 2181.115101 2953.010333 2177.75842 2916.215907 2181.115101 C 2826.79148 2150.425446 2697.778113 2085.689457 2697.778113 2014.719632 C 2697.778113 1900.112955 2842.161303 1702.548307 2890.599535 1654.116197 C 2939.037766 1605.684087 2969.311661 1419.148533 2969.311661 1419.148533 C 2969.311661 1419.148533 3133.722197 1429.218576 3176.571402 1654.116197 C 3219.420607 1878.534292 3169.119367 2058.356484 3169.119367 2058.356484 C 3169.119367 2058.356484 3290.680698 2051.643122 3290.680698 2125.969628 C 3290.680698 2125.969628 3319.557336 2242.014883 3392.214684 2280.376951 C 3358.680523 2557.542889 3236.65344 2807.375854 3054.544319 3000.145244 C 2975.832192 2937.806884 2884.544756 2870.19374 2826.325727 2842.860767 Z M 2826.325727 2842.860767 " transform="matrix(0.00838697,0,0,-0.00814607,192.451941,202.052668)"/></g><g clip-rule="nonzero" clip-path="url(#57d10290f7)"><path style=" stroke:none;fill-rule:nonzero;fill:#97cdef;fill-opacity:1;" d="M 220.050781 184.734375 C 220.050781 185.339844 219.03125 185.285156 219.03125 185.285156 C 219.03125 185.285156 219.453125 186.75 219.09375 188.578125 C 218.734375 190.410156 217.355469 190.492188 217.355469 190.492188 C 217.355469 190.492188 217.101562 188.972656 216.695312 188.578125 C 216.289062 188.183594 215.078125 186.574219 215.078125 185.640625 C 215.078125 185.0625 216.160156 184.535156 216.910156 184.285156 C 216.4375 184.25 215.875 184.089844 215.675781 183.894531 C 215.347656 183.574219 213.429688 184.042969 212.917969 183.546875 C 212.410156 183.050781 212.800781 182.398438 213.605469 182.398438 C 214.414062 182.398438 215.078125 181.453125 215.078125 181.453125 C 215.078125 181.453125 215.855469 180.519531 215.554688 180.230469 C 215.257812 179.9375 215.136719 179.355469 216.15625 178.894531 C 216.644531 178.671875 217.410156 178.121094 218.070312 177.613281 C 216.859375 176.359375 215.328125 175.402344 213.605469 174.855469 C 212.738281 175.246094 211.898438 175.753906 211.539062 176.054688 C 210.960938 176.535156 208.207031 176.796875 207.300781 176.210938 C 206.847656 175.917969 206.148438 175.628906 205.554688 175.410156 C 202.015625 177.105469 199.585938 180.644531 199.585938 184.734375 C 199.585938 190.472656 204.375 195.125 210.28125 195.125 C 216.191406 195.125 220.980469 190.472656 220.980469 184.734375 C 220.980469 184.308594 220.953125 183.890625 220.902344 183.476562 C 220.292969 183.789062 220.050781 184.734375 220.050781 184.734375 "/></g><g clip-rule="nonzero" clip-path="url(#920c3a95be)"><path style="fill:none;stroke-width:40;stroke-linecap:round;stroke-linejoin:round;stroke:#21203d;stroke-opacity:1;stroke-miterlimit:10;" d="M 3290.680698 2125.969628 C 3290.680698 2051.643122 3169.119367 2058.356484 3169.119367 2058.356484 C 3169.119367 2058.356484 3219.420607 1878.534292 3176.571402 1654.116197 C 3133.722197 1429.218576 2969.311661 1419.148533 2969.311661 1419.148533 C 2969.311661 1419.148533 2939.037766 1605.684087 2890.599535 1654.116197 C 2842.161303 1702.548307 2697.778113 1900.112955 2697.778113 2014.719632 C 2697.778113 2085.689457 2826.79148 2150.425446 2916.215907 2181.115101 C 2859.859888 2185.430833 2792.791567 2205.091393 2769.038203 2229.067685 C 2729.915016 2268.388804 2501.230673 2210.845703 2440.217131 2271.745485 C 2379.669341 2332.645268 2426.244564 2412.726084 2522.189523 2412.726084 C 2618.600234 2412.726084 2697.778113 2528.771338 2697.778113 2528.771338 C 2697.778113 2528.771338 2790.462806 2643.378015 2754.599884 2678.862928 C 2719.202715 2714.827366 2704.764396 2786.276717 2826.325727 2842.860767 C 2884.544756 2870.19374 2975.832192 2937.806884 3054.544319 3000.145244 C 2910.161128 3154.07304 2727.586255 3271.556872 2522.189523 3338.69049 C 2418.792528 3290.737906 2318.655799 3228.399546 2275.806595 3191.476056 C 2206.875265 3132.494377 1878.519945 3100.366146 1770.465428 3172.295022 C 1716.43817 3208.259461 1633.068521 3243.744373 1562.274182 3270.597821 C 1140.302664 3062.483604 850.604779 2628.033188 850.604779 2125.969628 C 850.604779 1421.546162 1421.61701 850.430881 2125.834377 850.430881 C 2830.517497 850.430881 3401.529728 1421.546162 3401.529728 2125.969628 C 3401.529728 2178.237946 3398.269463 2230.026737 3392.214684 2280.376951 C 3319.557336 2242.014883 3290.680698 2125.969628 3290.680698 2125.969628 Z M 3290.680698 2125.969628 " transform="matrix(0.00838697,0,0,-0.00814607,192.451941,202.052668)"/></g><path style=" stroke:none;fill-rule:nonzero;fill:#66c771;fill-opacity:1;" d="M 207.59375 187.015625 C 207.5625 187.007812 206.425781 187.601562 206.398438 187.597656 C 206.597656 186.753906 204.265625 186.144531 204.609375 184.734375 C 204.761719 184.484375 207.339844 184.816406 207.433594 184.378906 C 207.765625 182.875 204.289062 182.28125 204.753906 180.164062 C 205.15625 178.332031 199.675781 181.605469 200.328125 182.582031 C 201.320312 184.066406 201.824219 183.65625 202.800781 184.296875 C 202.304688 185.121094 202.410156 186.417969 203.144531 185.957031 C 203.921875 185.464844 205.582031 187.101562 205.917969 188.261719 C 206.039062 188.960938 207.679688 190.371094 206.78125 190.71875 C 205.027344 191.394531 206.585938 192.4375 206.785156 194.109375 C 207.003906 195.925781 207.40625 191.980469 209.082031 191.144531 C 211.003906 190.1875 209.4375 187.394531 207.59375 187.015625 "/><path style="fill:none;stroke-width:40;stroke-linecap:round;stroke-linejoin:round;stroke:#21203d;stroke-opacity:1;stroke-miterlimit:10;" d="M 1805.396845 1845.926535 C 1801.670827 1846.885587 1666.136929 1773.997658 1662.876663 1774.477184 C 1686.630027 1878.054767 1408.575947 1952.860798 1449.562143 2125.969628 C 1467.72648 2156.659282 1775.12295 2115.899586 1786.301004 2169.60648 C 1825.889943 2354.223931 1411.370461 2427.111859 1466.794976 2687.014867 C 1514.767455 2911.912488 861.31708 2510.06983 939.097702 2390.188369 C 1057.398768 2207.968548 1117.480805 2258.318762 1233.918862 2179.676523 C 1174.768329 2078.49657 1187.343639 1919.293989 1274.905058 1975.878039 C 1367.589751 2036.298295 1565.534448 1835.376966 1605.589139 1692.95779 C 1620.027458 1607.122664 1815.643394 1434.013834 1708.520382 1391.336034 C 1499.397632 1308.378063 1685.23277 1180.344662 1708.986134 975.1076 C 1735.068259 751.648557 1783.040738 1236.449186 1982.848444 1339.067717 C 2211.998539 1456.551549 2025.231896 1799.412528 1805.396845 1845.926535 Z M 1805.396845 1845.926535 " transform="matrix(0.00838697,0,0,-0.00814607,192.451941,202.052668)"/><path style="fill:none;stroke-width:40;stroke-linecap:round;stroke-linejoin:round;stroke:#21203d;stroke-opacity:1;stroke-miterlimit:10;" d="M 2210.601283 928.593593 C 2210.601283 928.593593 2565.50448 958.803722 2743.887583 1101.702423 " transform="matrix(0.00838697,0,0,-0.00814607,192.451941,202.052668)"/><path style="fill:none;stroke-width:40;stroke-linecap:round;stroke-linejoin:round;stroke:#21203d;stroke-opacity:1;stroke-miterlimit:10;" d="M 2812.818913 1158.765999 L 2865.448914 1211.034316 " transform="matrix(0.00838697,0,0,-0.00814607,192.451941,202.052668)"/><path style="fill:none;stroke-width:40;stroke-linecap:round;stroke-linejoin:round;stroke:#21203d;stroke-opacity:1;stroke-miterlimit:10;" d="M 1927.889681 3196.271315 C 1927.889681 3196.271315 2052.711278 3186.201272 2152.848007 3211.136616 " transform="matrix(0.00838697,0,0,-0.00814607,192.451941,202.052668)"/><path style="fill:none;stroke-width:40;stroke-linecap:round;stroke-linejoin:round;stroke:#21203d;stroke-opacity:1;stroke-miterlimit:10;" d="M 2222.710841 3243.744373 C 2222.710841 3243.744373 2263.697037 3250.937261 2279.06686 3266.282088 " transform="matrix(0.00838697,0,0,-0.00814607,192.451941,202.052668)"/><path style="fill:none;stroke-width:40;stroke-linecap:round;stroke-linejoin:round;stroke:#21203d;stroke-opacity:1;stroke-miterlimit:10;" d="M 2883.613251 2578.642026 C 2883.613251 2578.642026 2990.270511 2551.788579 3070.379894 2435.263798 " transform="matrix(0.00838697,0,0,-0.00814607,192.451941,202.052668)"/><path style="fill:none;stroke-width:40;stroke-linecap:round;stroke-linejoin:round;stroke:#21203d;stroke-opacity:1;stroke-miterlimit:10;" d="M 3160.270074 2338.399578 L 3203.585032 2291.885571 " transform="matrix(0.00838697,0,0,-0.00814607,192.451941,202.052668)"/><path style="fill:none;stroke-width:40;stroke-linecap:round;stroke-linejoin:round;stroke:#21203d;stroke-opacity:1;stroke-miterlimit:10;" d="M 1365.726742 2651.050429 C 1365.726742 2651.050429 1357.343202 2524.935131 1397.397894 2506.233624 " transform="matrix(0.00838697,0,0,-0.00814607,192.451941,202.052668)"/><path style="fill:none;stroke-width:40;stroke-linecap:round;stroke-linejoin:round;stroke:#21203d;stroke-opacity:1;stroke-miterlimit:10;" d="M 1435.589576 2455.403884 L 1463.53471 2399.778886 " transform="matrix(0.00838697,0,0,-0.00814607,192.451941,202.052668)"/><g style="fill:#121212;fill-opacity:1;"><g transform="translate(142.464194, 239.379241)"><path style="stroke:none" d="M 2.796875 -5.75 C 2.984375 -6.0625 3.253906 -6.3125 3.609375 -6.5 C 3.972656 -6.695312 4.390625 -6.796875 4.859375 -6.796875 C 5.410156 -6.796875 5.910156 -6.65625 6.359375 -6.375 C 6.804688 -6.09375 7.160156 -5.691406 7.421875 -5.171875 C 7.679688 -4.648438 7.8125 -4.046875 7.8125 -3.359375 C 7.8125 -2.671875 7.679688 -2.0625 7.421875 -1.53125 C 7.160156 -1.007812 6.804688 -0.609375 6.359375 -0.328125 C 5.910156 -0.046875 5.410156 0.09375 4.859375 0.09375 C 4.390625 0.09375 3.976562 0 3.625 -0.1875 C 3.269531 -0.375 2.992188 -0.625 2.796875 -0.9375 L 2.796875 0 L 0.75 0 L 0.75 -8.875 L 2.796875 -8.875 Z M 5.71875 -3.359375 C 5.71875 -3.867188 5.578125 -4.269531 5.296875 -4.5625 C 5.015625 -4.851562 4.664062 -5 4.25 -5 C 3.84375 -5 3.492188 -4.847656 3.203125 -4.546875 C 2.921875 -4.253906 2.78125 -3.851562 2.78125 -3.34375 C 2.78125 -2.832031 2.921875 -2.425781 3.203125 -2.125 C 3.492188 -1.832031 3.84375 -1.6875 4.25 -1.6875 C 4.65625 -1.6875 5 -1.835938 5.28125 -2.140625 C 5.570312 -2.441406 5.71875 -2.847656 5.71875 -3.359375 Z M 5.71875 -3.359375 "/></g></g><g style="fill:#121212;fill-opacity:1;"><g transform="translate(150.612215, 239.379241)"><path style="stroke:none" d="M 7.0625 -3.453125 C 7.0625 -3.265625 7.046875 -3.066406 7.015625 -2.859375 L 2.375 -2.859375 C 2.40625 -2.441406 2.535156 -2.125 2.765625 -1.90625 C 3.003906 -1.6875 3.296875 -1.578125 3.640625 -1.578125 C 4.160156 -1.578125 4.519531 -1.789062 4.71875 -2.21875 L 6.90625 -2.21875 C 6.789062 -1.78125 6.585938 -1.382812 6.296875 -1.03125 C 6.003906 -0.675781 5.632812 -0.398438 5.1875 -0.203125 C 4.75 -0.00390625 4.257812 0.09375 3.71875 0.09375 C 3.0625 0.09375 2.476562 -0.046875 1.96875 -0.328125 C 1.457031 -0.609375 1.054688 -1.003906 0.765625 -1.515625 C 0.484375 -2.035156 0.34375 -2.644531 0.34375 -3.34375 C 0.34375 -4.039062 0.484375 -4.648438 0.765625 -5.171875 C 1.046875 -5.691406 1.441406 -6.09375 1.953125 -6.375 C 2.460938 -6.65625 3.050781 -6.796875 3.71875 -6.796875 C 4.363281 -6.796875 4.9375 -6.65625 5.4375 -6.375 C 5.945312 -6.101562 6.34375 -5.71875 6.625 -5.21875 C 6.914062 -4.71875 7.0625 -4.128906 7.0625 -3.453125 Z M 4.953125 -4 C 4.953125 -4.351562 4.832031 -4.628906 4.59375 -4.828125 C 4.351562 -5.035156 4.054688 -5.140625 3.703125 -5.140625 C 3.359375 -5.140625 3.066406 -5.039062 2.828125 -4.84375 C 2.585938 -4.644531 2.441406 -4.363281 2.390625 -4 Z M 4.953125 -4 "/></g></g><g style="fill:#121212;fill-opacity:1;"><g transform="translate(158.004229, 239.379241)"><path style="stroke:none" d="M 4.46875 -1.734375 L 4.46875 0 L 3.4375 0 C 2.6875 0 2.101562 -0.179688 1.6875 -0.546875 C 1.269531 -0.910156 1.0625 -1.503906 1.0625 -2.328125 L 1.0625 -4.984375 L 0.25 -4.984375 L 0.25 -6.703125 L 1.0625 -6.703125 L 1.0625 -8.328125 L 3.125 -8.328125 L 3.125 -6.703125 L 4.46875 -6.703125 L 4.46875 -4.984375 L 3.125 -4.984375 L 3.125 -2.296875 C 3.125 -2.097656 3.171875 -1.953125 3.265625 -1.859375 C 3.359375 -1.773438 3.519531 -1.734375 3.75 -1.734375 Z M 4.46875 -1.734375 "/></g></g><g style="fill:#121212;fill-opacity:1;"><g transform="translate(162.876241, 239.379241)"><path style="stroke:none" d="M 4.46875 -1.734375 L 4.46875 0 L 3.4375 0 C 2.6875 0 2.101562 -0.179688 1.6875 -0.546875 C 1.269531 -0.910156 1.0625 -1.503906 1.0625 -2.328125 L 1.0625 -4.984375 L 0.25 -4.984375 L 0.25 -6.703125 L 1.0625 -6.703125 L 1.0625 -8.328125 L 3.125 -8.328125 L 3.125 -6.703125 L 4.46875 -6.703125 L 4.46875 -4.984375 L 3.125 -4.984375 L 3.125 -2.296875 C 3.125 -2.097656 3.171875 -1.953125 3.265625 -1.859375 C 3.359375 -1.773438 3.519531 -1.734375 3.75 -1.734375 Z M 4.46875 -1.734375 "/></g></g><g style="fill:#121212;fill-opacity:1;"><g transform="translate(167.748254, 239.379241)"><path style="stroke:none" d="M 7.0625 -3.453125 C 7.0625 -3.265625 7.046875 -3.066406 7.015625 -2.859375 L 2.375 -2.859375 C 2.40625 -2.441406 2.535156 -2.125 2.765625 -1.90625 C 3.003906 -1.6875 3.296875 -1.578125 3.640625 -1.578125 C 4.160156 -1.578125 4.519531 -1.789062 4.71875 -2.21875 L 6.90625 -2.21875 C 6.789062 -1.78125 6.585938 -1.382812 6.296875 -1.03125 C 6.003906 -0.675781 5.632812 -0.398438 5.1875 -0.203125 C 4.75 -0.00390625 4.257812 0.09375 3.71875 0.09375 C 3.0625 0.09375 2.476562 -0.046875 1.96875 -0.328125 C 1.457031 -0.609375 1.054688 -1.003906 0.765625 -1.515625 C 0.484375 -2.035156 0.34375 -2.644531 0.34375 -3.34375 C 0.34375 -4.039062 0.484375 -4.648438 0.765625 -5.171875 C 1.046875 -5.691406 1.441406 -6.09375 1.953125 -6.375 C 2.460938 -6.65625 3.050781 -6.796875 3.71875 -6.796875 C 4.363281 -6.796875 4.9375 -6.65625 5.4375 -6.375 C 5.945312 -6.101562 6.34375 -5.71875 6.625 -5.21875 C 6.914062 -4.71875 7.0625 -4.128906 7.0625 -3.453125 Z M 4.953125 -4 C 4.953125 -4.351562 4.832031 -4.628906 4.59375 -4.828125 C 4.351562 -5.035156 4.054688 -5.140625 3.703125 -5.140625 C 3.359375 -5.140625 3.066406 -5.039062 2.828125 -4.84375 C 2.585938 -4.644531 2.441406 -4.363281 2.390625 -4 Z M 4.953125 -4 "/></g></g><g style="fill:#121212;fill-opacity:1;"><g transform="translate(175.140267, 239.379241)"><path style="stroke:none" d="M 2.796875 -5.578125 C 3.035156 -5.941406 3.332031 -6.226562 3.6875 -6.4375 C 4.050781 -6.65625 4.453125 -6.765625 4.890625 -6.765625 L 4.890625 -4.59375 L 4.328125 -4.59375 C 3.816406 -4.59375 3.429688 -4.484375 3.171875 -4.265625 C 2.921875 -4.046875 2.796875 -3.660156 2.796875 -3.109375 L 2.796875 0 L 0.75 0 L 0.75 -6.703125 L 2.796875 -6.703125 Z M 2.796875 -5.578125 "/></g></g><g style="fill:#121212;fill-opacity:1;"><g transform="translate(180.276272, 239.379241)"><path style="stroke:none" d=""/></g></g><g style="fill:#121212;fill-opacity:1;"><g transform="translate(182.820282, 239.379241)"><path style="stroke:none" d="M 2.796875 -5.75 C 2.992188 -6.0625 3.269531 -6.3125 3.625 -6.5 C 3.976562 -6.695312 4.390625 -6.796875 4.859375 -6.796875 C 5.410156 -6.796875 5.910156 -6.65625 6.359375 -6.375 C 6.804688 -6.09375 7.160156 -5.691406 7.421875 -5.171875 C 7.679688 -4.648438 7.8125 -4.046875 7.8125 -3.359375 C 7.8125 -2.671875 7.679688 -2.0625 7.421875 -1.53125 C 7.160156 -1.007812 6.804688 -0.609375 6.359375 -0.328125 C 5.910156 -0.046875 5.410156 0.09375 4.859375 0.09375 C 4.390625 0.09375 3.976562 0 3.625 -0.1875 C 3.269531 -0.382812 2.992188 -0.632812 2.796875 -0.9375 L 2.796875 3.1875 L 0.75 3.1875 L 0.75 -6.703125 L 2.796875 -6.703125 Z M 5.71875 -3.359375 C 5.71875 -3.867188 5.578125 -4.269531 5.296875 -4.5625 C 5.015625 -4.851562 4.664062 -5 4.25 -5 C 3.84375 -5 3.492188 -4.847656 3.203125 -4.546875 C 2.921875 -4.253906 2.78125 -3.851562 2.78125 -3.34375 C 2.78125 -2.832031 2.921875 -2.425781 3.203125 -2.125 C 3.492188 -1.832031 3.84375 -1.6875 4.25 -1.6875 C 4.65625 -1.6875 5 -1.835938 5.28125 -2.140625 C 5.570312 -2.441406 5.71875 -2.847656 5.71875 -3.359375 Z M 5.71875 -3.359375 "/></g></g><g style="fill:#121212;fill-opacity:1;"><g transform="translate(190.968303, 239.379241)"><path style="stroke:none" d="M 7.0625 -3.453125 C 7.0625 -3.265625 7.046875 -3.066406 7.015625 -2.859375 L 2.375 -2.859375 C 2.40625 -2.441406 2.535156 -2.125 2.765625 -1.90625 C 3.003906 -1.6875 3.296875 -1.578125 3.640625 -1.578125 C 4.160156 -1.578125 4.519531 -1.789062 4.71875 -2.21875 L 6.90625 -2.21875 C 6.789062 -1.78125 6.585938 -1.382812 6.296875 -1.03125 C 6.003906 -0.675781 5.632812 -0.398438 5.1875 -0.203125 C 4.75 -0.00390625 4.257812 0.09375 3.71875 0.09375 C 3.0625 0.09375 2.476562 -0.046875 1.96875 -0.328125 C 1.457031 -0.609375 1.054688 -1.003906 0.765625 -1.515625 C 0.484375 -2.035156 0.34375 -2.644531 0.34375 -3.34375 C 0.34375 -4.039062 0.484375 -4.648438 0.765625 -5.171875 C 1.046875 -5.691406 1.441406 -6.09375 1.953125 -6.375 C 2.460938 -6.65625 3.050781 -6.796875 3.71875 -6.796875 C 4.363281 -6.796875 4.9375 -6.65625 5.4375 -6.375 C 5.945312 -6.101562 6.34375 -5.71875 6.625 -5.21875 C 6.914062 -4.71875 7.0625 -4.128906 7.0625 -3.453125 Z M 4.953125 -4 C 4.953125 -4.351562 4.832031 -4.628906 4.59375 -4.828125 C 4.351562 -5.035156 4.054688 -5.140625 3.703125 -5.140625 C 3.359375 -5.140625 3.066406 -5.039062 2.828125 -4.84375 C 2.585938 -4.644531 2.441406 -4.363281 2.390625 -4 Z M 4.953125 -4 "/></g></g><g style="fill:#121212;fill-opacity:1;"><g transform="translate(198.360317, 239.379241)"><path style="stroke:none" d="M 3.796875 0.09375 C 3.140625 0.09375 2.546875 -0.046875 2.015625 -0.328125 C 1.492188 -0.609375 1.082031 -1.003906 0.78125 -1.515625 C 0.488281 -2.035156 0.34375 -2.644531 0.34375 -3.34375 C 0.34375 -4.03125 0.492188 -4.632812 0.796875 -5.15625 C 1.097656 -5.6875 1.507812 -6.09375 2.03125 -6.375 C 2.5625 -6.65625 3.15625 -6.796875 3.8125 -6.796875 C 4.46875 -6.796875 5.0625 -6.65625 5.59375 -6.375 C 6.125 -6.09375 6.539062 -5.6875 6.84375 -5.15625 C 7.144531 -4.632812 7.296875 -4.03125 7.296875 -3.34375 C 7.296875 -2.65625 7.140625 -2.050781 6.828125 -1.53125 C 6.523438 -1.007812 6.109375 -0.609375 5.578125 -0.328125 C 5.046875 -0.046875 4.453125 0.09375 3.796875 0.09375 Z M 3.796875 -1.6875 C 4.179688 -1.6875 4.507812 -1.828125 4.78125 -2.109375 C 5.0625 -2.398438 5.203125 -2.8125 5.203125 -3.34375 C 5.203125 -3.882812 5.066406 -4.296875 4.796875 -4.578125 C 4.535156 -4.867188 4.207031 -5.015625 3.8125 -5.015625 C 3.414062 -5.015625 3.082031 -4.867188 2.8125 -4.578125 C 2.550781 -4.296875 2.421875 -3.882812 2.421875 -3.34375 C 2.421875 -2.8125 2.550781 -2.398438 2.8125 -2.109375 C 3.070312 -1.828125 3.398438 -1.6875 3.796875 -1.6875 Z M 3.796875 -1.6875 "/></g></g><g style="fill:#121212;fill-opacity:1;"><g transform="translate(206.004328, 239.379241)"><path style="stroke:none" d="M 2.796875 -5.75 C 2.992188 -6.0625 3.269531 -6.3125 3.625 -6.5 C 3.976562 -6.695312 4.390625 -6.796875 4.859375 -6.796875 C 5.410156 -6.796875 5.910156 -6.65625 6.359375 -6.375 C 6.804688 -6.09375 7.160156 -5.691406 7.421875 -5.171875 C 7.679688 -4.648438 7.8125 -4.046875 7.8125 -3.359375 C 7.8125 -2.671875 7.679688 -2.0625 7.421875 -1.53125 C 7.160156 -1.007812 6.804688 -0.609375 6.359375 -0.328125 C 5.910156 -0.046875 5.410156 0.09375 4.859375 0.09375 C 4.390625 0.09375 3.976562 0 3.625 -0.1875 C 3.269531 -0.382812 2.992188 -0.632812 2.796875 -0.9375 L 2.796875 3.1875 L 0.75 3.1875 L 0.75 -6.703125 L 2.796875 -6.703125 Z M 5.71875 -3.359375 C 5.71875 -3.867188 5.578125 -4.269531 5.296875 -4.5625 C 5.015625 -4.851562 4.664062 -5 4.25 -5 C 3.84375 -5 3.492188 -4.847656 3.203125 -4.546875 C 2.921875 -4.253906 2.78125 -3.851562 2.78125 -3.34375 C 2.78125 -2.832031 2.921875 -2.425781 3.203125 -2.125 C 3.492188 -1.832031 3.84375 -1.6875 4.25 -1.6875 C 4.65625 -1.6875 5 -1.835938 5.28125 -2.140625 C 5.570312 -2.441406 5.71875 -2.847656 5.71875 -3.359375 Z M 5.71875 -3.359375 "/></g></g><g style="fill:#121212;fill-opacity:1;"><g transform="translate(214.15235, 239.379241)"><path style="stroke:none" d="M 2.796875 -8.875 L 2.796875 0 L 0.75 0 L 0.75 -8.875 Z M 2.796875 -8.875 "/></g></g><g style="fill:#121212;fill-opacity:1;"><g transform="translate(217.692362, 239.379241)"><path style="stroke:none" d="M 7.0625 -3.453125 C 7.0625 -3.265625 7.046875 -3.066406 7.015625 -2.859375 L 2.375 -2.859375 C 2.40625 -2.441406 2.535156 -2.125 2.765625 -1.90625 C 3.003906 -1.6875 3.296875 -1.578125 3.640625 -1.578125 C 4.160156 -1.578125 4.519531 -1.789062 4.71875 -2.21875 L 6.90625 -2.21875 C 6.789062 -1.78125 6.585938 -1.382812 6.296875 -1.03125 C 6.003906 -0.675781 5.632812 -0.398438 5.1875 -0.203125 C 4.75 -0.00390625 4.257812 0.09375 3.71875 0.09375 C 3.0625 0.09375 2.476562 -0.046875 1.96875 -0.328125 C 1.457031 -0.609375 1.054688 -1.003906 0.765625 -1.515625 C 0.484375 -2.035156 0.34375 -2.644531 0.34375 -3.34375 C 0.34375 -4.039062 0.484375 -4.648438 0.765625 -5.171875 C 1.046875 -5.691406 1.441406 -6.09375 1.953125 -6.375 C 2.460938 -6.65625 3.050781 -6.796875 3.71875 -6.796875 C 4.363281 -6.796875 4.9375 -6.65625 5.4375 -6.375 C 5.945312 -6.101562 6.34375 -5.71875 6.625 -5.21875 C 6.914062 -4.71875 7.0625 -4.128906 7.0625 -3.453125 Z M 4.953125 -4 C 4.953125 -4.351562 4.832031 -4.628906 4.59375 -4.828125 C 4.351562 -5.035156 4.054688 -5.140625 3.703125 -5.140625 C 3.359375 -5.140625 3.066406 -5.039062 2.828125 -4.84375 C 2.585938 -4.644531 2.441406 -4.363281 2.390625 -4 Z M 4.953125 -4 "/></g></g></g></svg>