<svg xmlns="http://www.w3.org/2000/svg" xmlns:xlink="http://www.w3.org/1999/xlink" width="500" zoomAndPan="magnify" viewBox="0 0 375 374.999991" height="500" preserveAspectRatio="xMidYMid meet" version="1.2"><defs><clipPath id="b29a7f5e0c"><path d="M 97.152344 89.550781 L 200.652344 89.550781 L 200.652344 239.550781 L 97.152344 239.550781 Z M 97.152344 89.550781 "/></clipPath><clipPath id="90b8e97425"><rect x="0" width="53" y="0" height="71"/></clipPath></defs><g id="85362adc16"><g clip-rule="nonzero" clip-path="url(#b29a7f5e0c)"><path style=" stroke:none;fill-rule:evenodd;fill:#65b891;fill-opacity:1;" d="M 139.339844 138.503906 C 117.042969 165.28125 98.625 204.78125 97.171875 239.554688 L 117.042969 230.953125 C 164.175781 206.960938 188.410156 164.3125 159.085938 146.5 C 190.832031 161.886719 169.628906 207.6875 124.191406 229.5 C 174.960938 214.960938 195.921875 191.332031 196.648438 144.925781 C 197.132812 143.953125 197.375 142.867188 197.617188 142.378906 C 195.070312 145.894531 192.769531 148.074219 190.832031 148.921875 C 191.074219 146.621094 190.34375 144.925781 188.527344 143.953125 C 184.289062 141.894531 179.078125 139.472656 175.441406 136.445312 C 166.476562 128.6875 160.417969 111.847656 170.839844 103.242188 C 177.988281 97.183594 190.464844 98.519531 193.496094 113.058594 C 194.101562 107.121094 196.039062 104.457031 199.433594 104.820312 C 194.464844 95.003906 185.984375 89.914062 174.472656 89.792969 C 144.425781 89.550781 144.667969 116.328125 139.335938 138.503906 Z M 196.042969 123.722656 C 195.800781 123.722656 195.558594 123.84375 195.316406 124.449219 C 195.074219 120.933594 195.800781 118.753906 197.738281 117.300781 C 197.496094 117.664062 197.253906 118.027344 197.253906 118.390625 C 198.585938 117.90625 199.796875 118.632812 200.644531 120.691406 C 200.402344 120.570312 200.160156 120.570312 200.039062 120.691406 C 199.191406 123.84375 197.859375 124.8125 196.042969 123.722656 Z M 188.289062 122.628906 C 188.53125 122.871094 188.773438 123.238281 189.015625 123.601562 C 189.257812 119.359375 187.683594 116.574219 184.410156 115.238281 C 185.378906 116.210938 185.867188 116.816406 185.742188 117.179688 C 182.957031 115.605469 180.289062 116.089844 177.625 118.753906 C 178.351562 118.632812 178.957031 118.753906 179.441406 118.996094 C 181.140625 122.875 184.167969 124.085938 188.289062 122.632812 Z M 188.289062 122.628906 "/></g><path style=" stroke:none;fill-rule:nonzero;fill:#65b891;fill-opacity:1;" d="M 143.457031 217.503906 L 197.617188 217.503906 L 197.617188 222.472656 L 143.457031 222.472656 Z M 143.457031 217.503906 "/><path style="fill:none;stroke-width:7;stroke-linecap:butt;stroke-linejoin:miter;stroke:#65b891;stroke-opacity:1;stroke-miterlimit:4;" d="M -0.00135958 3.500831 L 110.001574 3.498748 " transform="matrix(0.74998,-0.0054544,0.0054544,0.74998,197.638175,217.272876)"/><g style="fill:#121212;fill-opacity:1;"><g transform="translate(93.112263, 192.893191)"><path style="stroke:none" d="M 30.578125 -42.046875 C 27.828125 -42.046875 25.304688 -41.304688 23.015625 -39.828125 C 20.722656 -38.347656 18.882812 -36.382812 17.5 -33.9375 C 16.125 -31.5 15.4375 -28.800781 15.4375 -25.84375 C 15.4375 -22.9375 16.125 -20.242188 17.5 -17.765625 C 18.882812 -15.296875 20.722656 -13.320312 23.015625 -11.84375 C 25.304688 -10.375 27.828125 -9.640625 30.578125 -9.640625 C 32.265625 -9.640625 34.035156 -9.878906 35.890625 -10.359375 C 37.753906 -10.835938 39.488281 -11.765625 41.09375 -13.140625 C 42.695312 -14.523438 43.957031 -16.515625 44.875 -19.109375 L 31.65625 -19.109375 L 31.65625 -27.75 L 57.265625 -27.75 L 57.265625 -26 C 57.265625 -22.320312 56.578125 -18.863281 55.203125 -15.625 C 53.828125 -12.394531 51.914062 -9.539062 49.46875 -7.0625 C 47.019531 -4.59375 44.1875 -2.671875 40.96875 -1.296875 C 37.757812 0.078125 34.296875 0.765625 30.578125 0.765625 C 26.910156 0.765625 23.457031 0.0664062 20.21875 -1.328125 C 16.976562 -2.734375 14.132812 -4.660156 11.6875 -7.109375 C 9.25 -9.554688 7.328125 -12.394531 5.921875 -15.625 C 4.523438 -18.863281 3.828125 -22.320312 3.828125 -26 C 3.828125 -29.664062 4.523438 -33.113281 5.921875 -36.34375 C 7.328125 -39.582031 9.25 -42.425781 11.6875 -44.875 C 14.132812 -47.320312 16.976562 -49.242188 20.21875 -50.640625 C 23.457031 -52.046875 26.910156 -52.75 30.578125 -52.75 C 34.398438 -52.75 38.019531 -51.972656 41.4375 -50.421875 C 44.851562 -48.867188 47.832031 -46.726562 50.375 -44 C 52.925781 -41.269531 54.789062 -38.097656 55.96875 -34.484375 L 43.34375 -34.484375 C 42.070312 -37.234375 40.265625 -39.179688 37.921875 -40.328125 C 35.578125 -41.472656 33.128906 -42.046875 30.578125 -42.046875 Z M 30.578125 -42.046875 "/></g></g><g style="fill:#121212;fill-opacity:1;"><g transform="translate(151.895478, 192.893191)"><path style="stroke:none" d="M 21.9375 -7.953125 C 23.976562 -7.953125 25.554688 -8.382812 26.671875 -9.25 C 27.796875 -10.113281 28.585938 -11.222656 29.046875 -12.578125 C 29.503906 -13.929688 29.734375 -15.320312 29.734375 -16.75 C 29.734375 -18.175781 29.488281 -19.550781 29 -20.875 C 28.519531 -22.195312 27.71875 -23.289062 26.59375 -24.15625 C 25.476562 -25.019531 23.925781 -25.453125 21.9375 -25.453125 C 19.945312 -25.453125 18.378906 -25.019531 17.234375 -24.15625 C 16.085938 -23.289062 15.269531 -22.195312 14.78125 -20.875 C 14.300781 -19.550781 14.0625 -18.175781 14.0625 -16.75 C 14.0625 -15.320312 14.289062 -13.929688 14.75 -12.578125 C 15.207031 -11.222656 16.007812 -10.113281 17.15625 -9.25 C 18.3125 -8.382812 19.90625 -7.953125 21.9375 -7.953125 Z M 21.9375 -34.40625 C 25.457031 -34.40625 28.671875 -33.664062 31.578125 -32.1875 C 34.484375 -30.707031 36.800781 -28.65625 38.53125 -26.03125 C 40.257812 -23.40625 41.125 -20.332031 41.125 -16.8125 C 41.125 -13.25 40.269531 -10.15625 38.5625 -7.53125 C 36.863281 -4.90625 34.5625 -2.878906 31.65625 -1.453125 C 28.75 -0.0234375 25.507812 0.6875 21.9375 0.6875 C 18.375 0.6875 15.125 -0.0234375 12.1875 -1.453125 C 9.257812 -2.878906 6.941406 -4.90625 5.234375 -7.53125 C 3.523438 -10.15625 2.671875 -13.25 2.671875 -16.8125 C 2.671875 -20.332031 3.535156 -23.40625 5.265625 -26.03125 C 7.003906 -28.65625 9.335938 -30.707031 12.265625 -32.1875 C 15.203125 -33.664062 18.425781 -34.40625 21.9375 -34.40625 Z M 21.9375 -34.40625 "/></g></g><g style="fill:#121212;fill-opacity:1;"><g transform="translate(194.549562, 192.893191)"><path style="stroke:none" d="M 21.9375 -7.953125 C 23.976562 -7.953125 25.554688 -8.382812 26.671875 -9.25 C 27.796875 -10.113281 28.585938 -11.222656 29.046875 -12.578125 C 29.503906 -13.929688 29.734375 -15.320312 29.734375 -16.75 C 29.734375 -18.175781 29.488281 -19.550781 29 -20.875 C 28.519531 -22.195312 27.71875 -23.289062 26.59375 -24.15625 C 25.476562 -25.019531 23.925781 -25.453125 21.9375 -25.453125 C 19.945312 -25.453125 18.378906 -25.019531 17.234375 -24.15625 C 16.085938 -23.289062 15.269531 -22.195312 14.78125 -20.875 C 14.300781 -19.550781 14.0625 -18.175781 14.0625 -16.75 C 14.0625 -15.320312 14.289062 -13.929688 14.75 -12.578125 C 15.207031 -11.222656 16.007812 -10.113281 17.15625 -9.25 C 18.3125 -8.382812 19.90625 -7.953125 21.9375 -7.953125 Z M 21.9375 -34.40625 C 25.457031 -34.40625 28.671875 -33.664062 31.578125 -32.1875 C 34.484375 -30.707031 36.800781 -28.65625 38.53125 -26.03125 C 40.257812 -23.40625 41.125 -20.332031 41.125 -16.8125 C 41.125 -13.25 40.269531 -10.15625 38.5625 -7.53125 C 36.863281 -4.90625 34.5625 -2.878906 31.65625 -1.453125 C 28.75 -0.0234375 25.507812 0.6875 21.9375 0.6875 C 18.375 0.6875 15.125 -0.0234375 12.1875 -1.453125 C 9.257812 -2.878906 6.941406 -4.90625 5.234375 -7.53125 C 3.523438 -10.15625 2.671875 -13.25 2.671875 -16.8125 C 2.671875 -20.332031 3.535156 -23.40625 5.265625 -26.03125 C 7.003906 -28.65625 9.335938 -30.707031 12.265625 -32.1875 C 15.203125 -33.664062 18.425781 -34.40625 21.9375 -34.40625 Z M 21.9375 -34.40625 "/></g></g><g style="fill:#121212;fill-opacity:1;"><g transform="translate(237.203647, 192.893191)"><path style="stroke:none" d="M 30.96875 -16.8125 C 30.96875 -18.289062 30.609375 -19.664062 29.890625 -20.9375 C 29.179688 -22.21875 28.226562 -23.253906 27.03125 -24.046875 C 25.832031 -24.835938 24.46875 -25.234375 22.9375 -25.234375 C 21.40625 -25.234375 20.039062 -24.835938 18.84375 -24.046875 C 17.644531 -23.253906 16.6875 -22.21875 15.96875 -20.9375 C 15.257812 -19.664062 14.90625 -18.289062 14.90625 -16.8125 C 14.90625 -15.34375 15.257812 -13.96875 15.96875 -12.6875 C 16.6875 -11.414062 17.644531 -10.382812 18.84375 -9.59375 C 20.039062 -8.800781 21.40625 -8.40625 22.9375 -8.40625 C 24.46875 -8.40625 25.832031 -8.800781 27.03125 -9.59375 C 28.226562 -10.382812 29.179688 -11.414062 29.890625 -12.6875 C 30.609375 -13.96875 30.96875 -15.34375 30.96875 -16.8125 Z M 42.4375 -57.34375 L 42.4375 0 L 30.96875 0 L 30.96875 -4.046875 C 29.84375 -2.316406 28.171875 -1.082031 25.953125 -0.34375 C 23.734375 0.394531 21.554688 0.765625 19.421875 0.765625 C 16.253906 0.765625 13.394531 -0.046875 10.84375 -1.671875 C 8.300781 -3.304688 6.300781 -5.460938 4.84375 -8.140625 C 3.394531 -10.816406 2.671875 -13.707031 2.671875 -16.8125 C 2.671875 -19.925781 3.394531 -22.820312 4.84375 -25.5 C 6.300781 -28.175781 8.300781 -30.34375 10.84375 -32 C 13.394531 -33.65625 16.253906 -34.484375 19.421875 -34.484375 C 21.554688 -34.484375 23.644531 -34.125 25.6875 -33.40625 C 27.726562 -32.695312 29.488281 -31.425781 30.96875 -29.59375 L 30.96875 -57.34375 Z M 42.4375 -57.34375 "/></g></g><g style="fill:#121212;fill-opacity:1;"><g transform="translate(283.073192, 192.893191)"><path style="stroke:none" d=""/></g></g><g transform="matrix(1,0,0,1,232,165)"><g clip-path="url(#90b8e97425)"><g style="fill:#65b891;fill-opacity:1;"><g transform="translate(0.711791, 52.595422)"><path style="stroke:none" d="M 24.53125 -6.09375 L 11.65625 -6.09375 L 9.578125 0 L 0.78125 0 L 13.265625 -34.5 L 23 -34.5 L 35.484375 0 L 26.59375 0 Z M 22.359375 -12.578125 L 18.09375 -25.21875 L 13.859375 -12.578125 Z M 22.359375 -12.578125 "/></g></g><g style="fill:#65b891;fill-opacity:1;"><g transform="translate(36.936821, 52.595422)"><path style="stroke:none" d="M 7.28125 -30.28125 C 5.800781 -30.28125 4.59375 -30.710938 3.65625 -31.578125 C 2.726562 -32.453125 2.265625 -33.523438 2.265625 -34.796875 C 2.265625 -36.109375 2.726562 -37.195312 3.65625 -38.0625 C 4.59375 -38.9375 5.800781 -39.375 7.28125 -39.375 C 8.71875 -39.375 9.898438 -38.9375 10.828125 -38.0625 C 11.765625 -37.195312 12.234375 -36.109375 12.234375 -34.796875 C 12.234375 -33.523438 11.765625 -32.453125 10.828125 -31.578125 C 9.898438 -30.710938 8.71875 -30.28125 7.28125 -30.28125 Z M 11.453125 -27.421875 L 11.453125 0 L 3.046875 0 L 3.046875 -27.421875 Z M 11.453125 -27.421875 "/></g></g></g></g><g style="fill:#121212;fill-opacity:1;"><g transform="translate(197.657291, 223.047876)"><path style="stroke:none" d="M 2.796875 -5.75 C 2.984375 -6.0625 3.253906 -6.3125 3.609375 -6.5 C 3.972656 -6.695312 4.390625 -6.796875 4.859375 -6.796875 C 5.410156 -6.796875 5.910156 -6.65625 6.359375 -6.375 C 6.804688 -6.09375 7.160156 -5.691406 7.421875 -5.171875 C 7.679688 -4.648438 7.8125 -4.046875 7.8125 -3.359375 C 7.8125 -2.671875 7.679688 -2.0625 7.421875 -1.53125 C 7.160156 -1.007812 6.804688 -0.609375 6.359375 -0.328125 C 5.910156 -0.046875 5.410156 0.09375 4.859375 0.09375 C 4.390625 0.09375 3.976562 0 3.625 -0.1875 C 3.269531 -0.375 2.992188 -0.625 2.796875 -0.9375 L 2.796875 0 L 0.75 0 L 0.75 -8.875 L 2.796875 -8.875 Z M 5.71875 -3.359375 C 5.71875 -3.867188 5.578125 -4.269531 5.296875 -4.5625 C 5.015625 -4.851562 4.664062 -5 4.25 -5 C 3.84375 -5 3.492188 -4.847656 3.203125 -4.546875 C 2.921875 -4.253906 2.78125 -3.851562 2.78125 -3.34375 C 2.78125 -2.832031 2.921875 -2.425781 3.203125 -2.125 C 3.492188 -1.832031 3.84375 -1.6875 4.25 -1.6875 C 4.65625 -1.6875 5 -1.835938 5.28125 -2.140625 C 5.570312 -2.441406 5.71875 -2.847656 5.71875 -3.359375 Z M 5.71875 -3.359375 "/></g></g><g style="fill:#121212;fill-opacity:1;"><g transform="translate(205.805312, 223.047876)"><path style="stroke:none" d="M 7.0625 -3.453125 C 7.0625 -3.265625 7.046875 -3.066406 7.015625 -2.859375 L 2.375 -2.859375 C 2.40625 -2.441406 2.535156 -2.125 2.765625 -1.90625 C 3.003906 -1.6875 3.296875 -1.578125 3.640625 -1.578125 C 4.160156 -1.578125 4.519531 -1.789062 4.71875 -2.21875 L 6.90625 -2.21875 C 6.789062 -1.78125 6.585938 -1.382812 6.296875 -1.03125 C 6.003906 -0.675781 5.632812 -0.398438 5.1875 -0.203125 C 4.75 -0.00390625 4.257812 0.09375 3.71875 0.09375 C 3.0625 0.09375 2.476562 -0.046875 1.96875 -0.328125 C 1.457031 -0.609375 1.054688 -1.003906 0.765625 -1.515625 C 0.484375 -2.035156 0.34375 -2.644531 0.34375 -3.34375 C 0.34375 -4.039062 0.484375 -4.648438 0.765625 -5.171875 C 1.046875 -5.691406 1.441406 -6.09375 1.953125 -6.375 C 2.460938 -6.65625 3.050781 -6.796875 3.71875 -6.796875 C 4.363281 -6.796875 4.9375 -6.65625 5.4375 -6.375 C 5.945312 -6.101562 6.34375 -5.71875 6.625 -5.21875 C 6.914062 -4.71875 7.0625 -4.128906 7.0625 -3.453125 Z M 4.953125 -4 C 4.953125 -4.351562 4.832031 -4.628906 4.59375 -4.828125 C 4.351562 -5.035156 4.054688 -5.140625 3.703125 -5.140625 C 3.359375 -5.140625 3.066406 -5.039062 2.828125 -4.84375 C 2.585938 -4.644531 2.441406 -4.363281 2.390625 -4 Z M 4.953125 -4 "/></g></g><g style="fill:#121212;fill-opacity:1;"><g transform="translate(213.197325, 223.047876)"><path style="stroke:none" d="M 4.46875 -1.734375 L 4.46875 0 L 3.4375 0 C 2.6875 0 2.101562 -0.179688 1.6875 -0.546875 C 1.269531 -0.910156 1.0625 -1.503906 1.0625 -2.328125 L 1.0625 -4.984375 L 0.25 -4.984375 L 0.25 -6.703125 L 1.0625 -6.703125 L 1.0625 -8.328125 L 3.125 -8.328125 L 3.125 -6.703125 L 4.46875 -6.703125 L 4.46875 -4.984375 L 3.125 -4.984375 L 3.125 -2.296875 C 3.125 -2.097656 3.171875 -1.953125 3.265625 -1.859375 C 3.359375 -1.773438 3.519531 -1.734375 3.75 -1.734375 Z M 4.46875 -1.734375 "/></g></g><g style="fill:#121212;fill-opacity:1;"><g transform="translate(218.069338, 223.047876)"><path style="stroke:none" d="M 4.46875 -1.734375 L 4.46875 0 L 3.4375 0 C 2.6875 0 2.101562 -0.179688 1.6875 -0.546875 C 1.269531 -0.910156 1.0625 -1.503906 1.0625 -2.328125 L 1.0625 -4.984375 L 0.25 -4.984375 L 0.25 -6.703125 L 1.0625 -6.703125 L 1.0625 -8.328125 L 3.125 -8.328125 L 3.125 -6.703125 L 4.46875 -6.703125 L 4.46875 -4.984375 L 3.125 -4.984375 L 3.125 -2.296875 C 3.125 -2.097656 3.171875 -1.953125 3.265625 -1.859375 C 3.359375 -1.773438 3.519531 -1.734375 3.75 -1.734375 Z M 4.46875 -1.734375 "/></g></g><g style="fill:#121212;fill-opacity:1;"><g transform="translate(222.941351, 223.047876)"><path style="stroke:none" d="M 7.0625 -3.453125 C 7.0625 -3.265625 7.046875 -3.066406 7.015625 -2.859375 L 2.375 -2.859375 C 2.40625 -2.441406 2.535156 -2.125 2.765625 -1.90625 C 3.003906 -1.6875 3.296875 -1.578125 3.640625 -1.578125 C 4.160156 -1.578125 4.519531 -1.789062 4.71875 -2.21875 L 6.90625 -2.21875 C 6.789062 -1.78125 6.585938 -1.382812 6.296875 -1.03125 C 6.003906 -0.675781 5.632812 -0.398438 5.1875 -0.203125 C 4.75 -0.00390625 4.257812 0.09375 3.71875 0.09375 C 3.0625 0.09375 2.476562 -0.046875 1.96875 -0.328125 C 1.457031 -0.609375 1.054688 -1.003906 0.765625 -1.515625 C 0.484375 -2.035156 0.34375 -2.644531 0.34375 -3.34375 C 0.34375 -4.039062 0.484375 -4.648438 0.765625 -5.171875 C 1.046875 -5.691406 1.441406 -6.09375 1.953125 -6.375 C 2.460938 -6.65625 3.050781 -6.796875 3.71875 -6.796875 C 4.363281 -6.796875 4.9375 -6.65625 5.4375 -6.375 C 5.945312 -6.101562 6.34375 -5.71875 6.625 -5.21875 C 6.914062 -4.71875 7.0625 -4.128906 7.0625 -3.453125 Z M 4.953125 -4 C 4.953125 -4.351562 4.832031 -4.628906 4.59375 -4.828125 C 4.351562 -5.035156 4.054688 -5.140625 3.703125 -5.140625 C 3.359375 -5.140625 3.066406 -5.039062 2.828125 -4.84375 C 2.585938 -4.644531 2.441406 -4.363281 2.390625 -4 Z M 4.953125 -4 "/></g></g><g style="fill:#121212;fill-opacity:1;"><g transform="translate(230.333364, 223.047876)"><path style="stroke:none" d="M 2.796875 -5.578125 C 3.035156 -5.941406 3.332031 -6.226562 3.6875 -6.4375 C 4.050781 -6.65625 4.453125 -6.765625 4.890625 -6.765625 L 4.890625 -4.59375 L 4.328125 -4.59375 C 3.816406 -4.59375 3.429688 -4.484375 3.171875 -4.265625 C 2.921875 -4.046875 2.796875 -3.660156 2.796875 -3.109375 L 2.796875 0 L 0.75 0 L 0.75 -6.703125 L 2.796875 -6.703125 Z M 2.796875 -5.578125 "/></g></g><g style="fill:#121212;fill-opacity:1;"><g transform="translate(235.469369, 223.047876)"><path style="stroke:none" d=""/></g></g><g style="fill:#121212;fill-opacity:1;"><g transform="translate(238.013379, 223.047876)"><path style="stroke:none" d="M 2.796875 -5.75 C 2.992188 -6.0625 3.269531 -6.3125 3.625 -6.5 C 3.976562 -6.695312 4.390625 -6.796875 4.859375 -6.796875 C 5.410156 -6.796875 5.910156 -6.65625 6.359375 -6.375 C 6.804688 -6.09375 7.160156 -5.691406 7.421875 -5.171875 C 7.679688 -4.648438 7.8125 -4.046875 7.8125 -3.359375 C 7.8125 -2.671875 7.679688 -2.0625 7.421875 -1.53125 C 7.160156 -1.007812 6.804688 -0.609375 6.359375 -0.328125 C 5.910156 -0.046875 5.410156 0.09375 4.859375 0.09375 C 4.390625 0.09375 3.976562 0 3.625 -0.1875 C 3.269531 -0.382812 2.992188 -0.632812 2.796875 -0.9375 L 2.796875 3.1875 L 0.75 3.1875 L 0.75 -6.703125 L 2.796875 -6.703125 Z M 5.71875 -3.359375 C 5.71875 -3.867188 5.578125 -4.269531 5.296875 -4.5625 C 5.015625 -4.851562 4.664062 -5 4.25 -5 C 3.84375 -5 3.492188 -4.847656 3.203125 -4.546875 C 2.921875 -4.253906 2.78125 -3.851562 2.78125 -3.34375 C 2.78125 -2.832031 2.921875 -2.425781 3.203125 -2.125 C 3.492188 -1.832031 3.84375 -1.6875 4.25 -1.6875 C 4.65625 -1.6875 5 -1.835938 5.28125 -2.140625 C 5.570312 -2.441406 5.71875 -2.847656 5.71875 -3.359375 Z M 5.71875 -3.359375 "/></g></g><g style="fill:#121212;fill-opacity:1;"><g transform="translate(246.1614, 223.047876)"><path style="stroke:none" d="M 7.0625 -3.453125 C 7.0625 -3.265625 7.046875 -3.066406 7.015625 -2.859375 L 2.375 -2.859375 C 2.40625 -2.441406 2.535156 -2.125 2.765625 -1.90625 C 3.003906 -1.6875 3.296875 -1.578125 3.640625 -1.578125 C 4.160156 -1.578125 4.519531 -1.789062 4.71875 -2.21875 L 6.90625 -2.21875 C 6.789062 -1.78125 6.585938 -1.382812 6.296875 -1.03125 C 6.003906 -0.675781 5.632812 -0.398438 5.1875 -0.203125 C 4.75 -0.00390625 4.257812 0.09375 3.71875 0.09375 C 3.0625 0.09375 2.476562 -0.046875 1.96875 -0.328125 C 1.457031 -0.609375 1.054688 -1.003906 0.765625 -1.515625 C 0.484375 -2.035156 0.34375 -2.644531 0.34375 -3.34375 C 0.34375 -4.039062 0.484375 -4.648438 0.765625 -5.171875 C 1.046875 -5.691406 1.441406 -6.09375 1.953125 -6.375 C 2.460938 -6.65625 3.050781 -6.796875 3.71875 -6.796875 C 4.363281 -6.796875 4.9375 -6.65625 5.4375 -6.375 C 5.945312 -6.101562 6.34375 -5.71875 6.625 -5.21875 C 6.914062 -4.71875 7.0625 -4.128906 7.0625 -3.453125 Z M 4.953125 -4 C 4.953125 -4.351562 4.832031 -4.628906 4.59375 -4.828125 C 4.351562 -5.035156 4.054688 -5.140625 3.703125 -5.140625 C 3.359375 -5.140625 3.066406 -5.039062 2.828125 -4.84375 C 2.585938 -4.644531 2.441406 -4.363281 2.390625 -4 Z M 4.953125 -4 "/></g></g><g style="fill:#121212;fill-opacity:1;"><g transform="translate(253.553413, 223.047876)"><path style="stroke:none" d="M 3.796875 0.09375 C 3.140625 0.09375 2.546875 -0.046875 2.015625 -0.328125 C 1.492188 -0.609375 1.082031 -1.003906 0.78125 -1.515625 C 0.488281 -2.035156 0.34375 -2.644531 0.34375 -3.34375 C 0.34375 -4.03125 0.492188 -4.632812 0.796875 -5.15625 C 1.097656 -5.6875 1.507812 -6.09375 2.03125 -6.375 C 2.5625 -6.65625 3.15625 -6.796875 3.8125 -6.796875 C 4.46875 -6.796875 5.0625 -6.65625 5.59375 -6.375 C 6.125 -6.09375 6.539062 -5.6875 6.84375 -5.15625 C 7.144531 -4.632812 7.296875 -4.03125 7.296875 -3.34375 C 7.296875 -2.65625 7.140625 -2.050781 6.828125 -1.53125 C 6.523438 -1.007812 6.109375 -0.609375 5.578125 -0.328125 C 5.046875 -0.046875 4.453125 0.09375 3.796875 0.09375 Z M 3.796875 -1.6875 C 4.179688 -1.6875 4.507812 -1.828125 4.78125 -2.109375 C 5.0625 -2.398438 5.203125 -2.8125 5.203125 -3.34375 C 5.203125 -3.882812 5.066406 -4.296875 4.796875 -4.578125 C 4.535156 -4.867188 4.207031 -5.015625 3.8125 -5.015625 C 3.414062 -5.015625 3.082031 -4.867188 2.8125 -4.578125 C 2.550781 -4.296875 2.421875 -3.882812 2.421875 -3.34375 C 2.421875 -2.8125 2.550781 -2.398438 2.8125 -2.109375 C 3.070312 -1.828125 3.398438 -1.6875 3.796875 -1.6875 Z M 3.796875 -1.6875 "/></g></g><g style="fill:#121212;fill-opacity:1;"><g transform="translate(261.197425, 223.047876)"><path style="stroke:none" d="M 2.796875 -5.75 C 2.992188 -6.0625 3.269531 -6.3125 3.625 -6.5 C 3.976562 -6.695312 4.390625 -6.796875 4.859375 -6.796875 C 5.410156 -6.796875 5.910156 -6.65625 6.359375 -6.375 C 6.804688 -6.09375 7.160156 -5.691406 7.421875 -5.171875 C 7.679688 -4.648438 7.8125 -4.046875 7.8125 -3.359375 C 7.8125 -2.671875 7.679688 -2.0625 7.421875 -1.53125 C 7.160156 -1.007812 6.804688 -0.609375 6.359375 -0.328125 C 5.910156 -0.046875 5.410156 0.09375 4.859375 0.09375 C 4.390625 0.09375 3.976562 0 3.625 -0.1875 C 3.269531 -0.382812 2.992188 -0.632812 2.796875 -0.9375 L 2.796875 3.1875 L 0.75 3.1875 L 0.75 -6.703125 L 2.796875 -6.703125 Z M 5.71875 -3.359375 C 5.71875 -3.867188 5.578125 -4.269531 5.296875 -4.5625 C 5.015625 -4.851562 4.664062 -5 4.25 -5 C 3.84375 -5 3.492188 -4.847656 3.203125 -4.546875 C 2.921875 -4.253906 2.78125 -3.851562 2.78125 -3.34375 C 2.78125 -2.832031 2.921875 -2.425781 3.203125 -2.125 C 3.492188 -1.832031 3.84375 -1.6875 4.25 -1.6875 C 4.65625 -1.6875 5 -1.835938 5.28125 -2.140625 C 5.570312 -2.441406 5.71875 -2.847656 5.71875 -3.359375 Z M 5.71875 -3.359375 "/></g></g><g style="fill:#121212;fill-opacity:1;"><g transform="translate(269.345446, 223.047876)"><path style="stroke:none" d="M 2.796875 -8.875 L 2.796875 0 L 0.75 0 L 0.75 -8.875 Z M 2.796875 -8.875 "/></g></g><g style="fill:#121212;fill-opacity:1;"><g transform="translate(272.885458, 223.047876)"><path style="stroke:none" d="M 7.0625 -3.453125 C 7.0625 -3.265625 7.046875 -3.066406 7.015625 -2.859375 L 2.375 -2.859375 C 2.40625 -2.441406 2.535156 -2.125 2.765625 -1.90625 C 3.003906 -1.6875 3.296875 -1.578125 3.640625 -1.578125 C 4.160156 -1.578125 4.519531 -1.789062 4.71875 -2.21875 L 6.90625 -2.21875 C 6.789062 -1.78125 6.585938 -1.382812 6.296875 -1.03125 C 6.003906 -0.675781 5.632812 -0.398438 5.1875 -0.203125 C 4.75 -0.00390625 4.257812 0.09375 3.71875 0.09375 C 3.0625 0.09375 2.476562 -0.046875 1.96875 -0.328125 C 1.457031 -0.609375 1.054688 -1.003906 0.765625 -1.515625 C 0.484375 -2.035156 0.34375 -2.644531 0.34375 -3.34375 C 0.34375 -4.039062 0.484375 -4.648438 0.765625 -5.171875 C 1.046875 -5.691406 1.441406 -6.09375 1.953125 -6.375 C 2.460938 -6.65625 3.050781 -6.796875 3.71875 -6.796875 C 4.363281 -6.796875 4.9375 -6.65625 5.4375 -6.375 C 5.945312 -6.101562 6.34375 -5.71875 6.625 -5.21875 C 6.914062 -4.71875 7.0625 -4.128906 7.0625 -3.453125 Z M 4.953125 -4 C 4.953125 -4.351562 4.832031 -4.628906 4.59375 -4.828125 C 4.351562 -5.035156 4.054688 -5.140625 3.703125 -5.140625 C 3.359375 -5.140625 3.066406 -5.039062 2.828125 -4.84375 C 2.585938 -4.644531 2.441406 -4.363281 2.390625 -4 Z M 4.953125 -4 "/></g></g></g></svg>