<svg xmlns="http://www.w3.org/2000/svg" xmlns:xlink="http://www.w3.org/1999/xlink" width="500" zoomAndPan="magnify" viewBox="0 0 375 374.999991" height="500" preserveAspectRatio="xMidYMid meet" version="1.2"><defs><clipPath id="32beea4343"><path d="M 104 129.929688 L 135 129.929688 L 135 140 L 104 140 Z M 104 129.929688 "/></clipPath><clipPath id="ca2155fcb3"><path d="M 130 142 L 161.398438 142 L 161.398438 191 L 130 191 Z M 130 142 "/></clipPath><clipPath id="c446b13fbe"><path d="M 83.398438 131 L 161.398438 131 L 161.398438 208 L 83.398438 208 Z M 83.398438 131 "/></clipPath><clipPath id="3b434a2f9c"><rect x="0" width="55" y="0" height="73"/></clipPath></defs><g id="3e36aab3a1"><path style=" stroke:none;fill-rule:nonzero;fill:#66c771;fill-opacity:1;" d="M 126.917969 136.851562 C 128.210938 135.746094 131.226562 133.878906 134.335938 132.433594 C 130.585938 131.207031 126.578125 130.542969 122.414062 130.542969 C 116.324219 130.542969 110.566406 131.960938 105.453125 134.484375 C 107.578125 135.28125 110.097656 136.351562 111.714844 137.429688 C 114.96875 139.597656 124.847656 138.632812 126.917969 136.851562 "/><g clip-rule="nonzero" clip-path="url(#32beea4343)"><path style="fill:none;stroke-width:40;stroke-linecap:round;stroke-linejoin:round;stroke:#21203d;stroke-opacity:1;stroke-miterlimit:10;" d="M 2275.695143 3191.710215 C 2318.670076 3228.490299 2418.901642 3290.743516 2522.249215 3338.700587 C 2397.608926 3379.509586 2264.399616 3401.603629 2125.996962 3401.603629 C 1923.586325 3401.603629 1732.211547 3354.426348 1562.25932 3270.468982 C 1632.888817 3243.95613 1716.631511 3208.34573 1770.382636 3172.475401 C 1878.534054 3100.344847 2206.883316 3132.446192 2275.695143 3191.710215 Z M 2275.695143 3191.710215 " transform="matrix(0.0300866,0,0,-0.0300562,58.450085,232.782172)"/></g><path style=" stroke:none;fill-rule:nonzero;fill:#97cdef;fill-opacity:1;" d="M 148.644531 166.851562 C 149.003906 166.492188 147.8125 166.675781 146.1875 167.234375 C 147.292969 167.328125 148.265625 167.230469 148.644531 166.851562 "/><path style="fill:none;stroke-width:40;stroke-linecap:round;stroke-linejoin:round;stroke:#21203d;stroke-opacity:1;stroke-miterlimit:10;" d="M 2997.829819 2193.579305 C 3009.774513 2205.536082 2970.175255 2199.427729 2916.164463 2180.842739 C 2952.907381 2177.72358 2985.235956 2180.972704 2997.829819 2193.579305 Z M 2997.829819 2193.579305 " transform="matrix(0.0300866,0,0,-0.0300562,58.450085,232.782172)"/><path style=" stroke:none;fill-rule:nonzero;fill:#66c771;fill-opacity:1;" d="M 143.484375 147.328125 C 139.828125 149.035156 140.257812 151.1875 141.332031 152.257812 C 142.410156 153.332031 139.613281 156.769531 139.613281 156.769531 C 139.613281 156.769531 137.234375 160.273438 134.335938 160.273438 C 131.441406 160.273438 130.046875 162.675781 131.875 164.5 C 133.703125 166.328125 140.582031 164.609375 141.761719 165.789062 C 142.480469 166.503906 144.492188 167.089844 146.1875 167.234375 C 147.8125 166.675781 149.003906 166.492188 148.644531 166.851562 C 148.265625 167.230469 147.292969 167.328125 146.1875 167.234375 C 143.492188 168.15625 139.613281 170.089844 139.613281 172.234375 C 139.613281 175.667969 143.960938 181.613281 145.417969 183.070312 C 146.878906 184.523438 147.785156 190.125 147.785156 190.125 C 147.785156 190.125 152.730469 189.824219 154.019531 183.070312 C 155.3125 176.316406 153.804688 170.914062 153.804688 170.914062 C 153.804688 170.914062 157.460938 171.117188 157.460938 168.882812 C 157.460938 168.882812 158.324219 165.394531 160.511719 164.242188 C 159.507812 155.914062 155.824219 148.410156 150.351562 142.609375 C 147.976562 144.488281 145.238281 146.511719 143.484375 147.328125 "/><g clip-rule="nonzero" clip-path="url(#ca2155fcb3)"><path style="fill:none;stroke-width:40;stroke-linecap:round;stroke-linejoin:round;stroke:#21203d;stroke-opacity:1;stroke-miterlimit:10;" d="M 2826.319587 2843.144186 C 2704.795305 2786.349498 2719.077005 2714.738804 2754.781255 2679.128404 C 2790.615338 2643.38804 2697.654455 2529.018873 2697.654455 2529.018873 C 2697.654455 2529.018873 2618.585772 2412.440302 2522.249215 2412.440302 C 2426.042492 2412.440302 2379.691884 2332.51185 2440.454025 2271.818213 C 2501.216166 2210.99461 2729.853197 2268.179194 2769.062955 2228.929775 C 2792.952343 2205.146187 2859.816665 2185.651443 2916.164463 2180.842739 C 2970.175255 2199.427729 3009.774513 2205.536082 2997.829819 2193.579305 C 2985.235956 2180.972704 2952.907381 2177.72358 2916.164463 2180.842739 C 2826.579255 2150.171008 2697.654455 2085.838352 2697.654455 2014.487587 C 2697.654455 1900.248386 2842.159291 1702.441713 2890.587237 1653.964782 C 2939.145016 1605.617816 2969.266419 1419.24806 2969.266419 1419.24806 C 2969.266419 1419.24806 3133.635801 1429.255363 3176.4809 1653.964782 C 3219.455833 1878.674202 3169.34005 2058.415745 3169.34005 2058.415745 C 3169.34005 2058.415745 3290.864333 2051.657567 3290.864333 2125.997525 C 3290.864333 2125.997525 3319.557566 2242.056236 3392.264401 2280.3959 C 3358.897157 2557.4812 3236.46404 2807.143892 3054.567117 3000.141861 C 2975.628267 2937.628714 2884.614889 2870.306864 2826.319587 2843.144186 Z M 2826.319587 2843.144186 " transform="matrix(0.0300866,0,0,-0.0300562,58.450085,232.782172)"/></g><path style=" stroke:none;fill-rule:nonzero;fill:#97cdef;fill-opacity:1;" d="M 157.460938 168.882812 C 157.460938 171.117188 153.804688 170.914062 153.804688 170.914062 C 153.804688 170.914062 155.3125 176.316406 154.019531 183.070312 C 152.730469 189.824219 147.785156 190.125 147.785156 190.125 C 147.785156 190.125 146.878906 184.523438 145.417969 183.070312 C 143.960938 181.613281 139.613281 175.667969 139.613281 172.234375 C 139.613281 170.089844 143.492188 168.15625 146.1875 167.234375 C 144.492188 167.089844 142.480469 166.503906 141.761719 165.789062 C 140.582031 164.609375 133.703125 166.328125 131.875 164.5 C 130.046875 162.675781 131.441406 160.273438 134.335938 160.273438 C 137.234375 160.273438 139.613281 156.769531 139.613281 156.769531 C 139.613281 156.769531 142.410156 153.332031 141.332031 152.257812 C 140.257812 151.1875 139.828125 149.035156 143.484375 147.328125 C 145.238281 146.511719 147.976562 144.488281 150.351562 142.609375 C 146.003906 137.988281 140.515625 134.449219 134.335938 132.433594 C 131.226562 133.878906 128.210938 135.746094 126.917969 136.851562 C 124.847656 138.632812 114.96875 139.597656 111.714844 137.429688 C 110.097656 136.351562 107.578125 135.28125 105.453125 134.484375 C 92.765625 140.742188 84.035156 153.792969 84.035156 168.882812 C 84.035156 190.058594 101.21875 207.222656 122.414062 207.222656 C 143.609375 207.222656 160.792969 190.058594 160.792969 168.882812 C 160.792969 167.3125 160.695312 165.761719 160.511719 164.242188 C 158.324219 165.398438 157.457031 168.882812 157.457031 168.882812 "/><g clip-rule="nonzero" clip-path="url(#c446b13fbe)"><path style="fill:none;stroke-width:40;stroke-linecap:round;stroke-linejoin:round;stroke:#21203d;stroke-opacity:1;stroke-miterlimit:10;" d="M 3290.864333 2125.997525 C 3290.864333 2051.657567 3169.34005 2058.415745 3169.34005 2058.415745 C 3169.34005 2058.415745 3219.455833 1878.674202 3176.4809 1653.964782 C 3133.635801 1429.255363 2969.266419 1419.24806 2969.266419 1419.24806 C 2969.266419 1419.24806 2939.145016 1605.617816 2890.587237 1653.964782 C 2842.159291 1702.441713 2697.654455 1900.248386 2697.654455 2014.487587 C 2697.654455 2085.838352 2826.579255 2150.171008 2916.164463 2180.842739 C 2859.816665 2185.651443 2792.952343 2205.146187 2769.062955 2228.929775 C 2729.853197 2268.179194 2501.216166 2210.99461 2440.454025 2271.818213 C 2379.691884 2332.51185 2426.042492 2412.440302 2522.249215 2412.440302 C 2618.585772 2412.440302 2697.654455 2529.018873 2697.654455 2529.018873 C 2697.654455 2529.018873 2790.615338 2643.38804 2754.781255 2679.128404 C 2719.077005 2714.738804 2704.795305 2786.349498 2826.319587 2843.144186 C 2884.614889 2870.306864 2975.628267 2937.628714 3054.567117 3000.141861 C 2910.062282 3153.890411 2727.646025 3271.638667 2522.249215 3338.700587 C 2418.901642 3290.743516 2318.670076 3228.490299 2275.695143 3191.710215 C 2206.883316 3132.446192 1878.534054 3100.344847 1770.382636 3172.475401 C 1716.631511 3208.34573 1632.888817 3243.95613 1562.25932 3270.468982 C 1140.559674 3062.265113 850.3815 2628.052174 850.3815 2125.997525 C 850.3815 1421.457465 1421.51966 850.391421 2125.996962 850.391421 C 2830.474264 850.391421 3401.612423 1421.457465 3401.612423 2125.997525 C 3401.612423 2178.24344 3398.366582 2229.83953 3392.264401 2280.3959 C 3319.557566 2242.056236 3290.734499 2125.997525 3290.734499 2125.997525 Z M 3290.864333 2125.997525 " transform="matrix(0.0300866,0,0,-0.0300562,58.450085,232.782172)"/></g><path style=" stroke:none;fill-rule:nonzero;fill:#66c771;fill-opacity:1;" d="M 112.769531 177.296875 C 112.664062 177.273438 108.578125 179.46875 108.480469 179.453125 C 109.195312 176.335938 100.828125 174.089844 102.0625 168.882812 C 102.609375 167.957031 111.851562 169.179688 112.191406 167.574219 C 113.378906 162.019531 100.917969 159.835938 102.585938 152.019531 C 104.03125 145.257812 84.367188 157.335938 86.707031 160.9375 C 90.261719 166.417969 92.066406 164.902344 95.578125 167.273438 C 93.800781 170.308594 94.171875 175.089844 96.800781 173.386719 C 99.589844 171.582031 105.546875 177.609375 106.75 181.894531 C 107.183594 184.476562 113.078125 189.679688 109.851562 190.960938 C 103.566406 193.453125 109.15625 197.308594 109.871094 203.476562 C 110.648438 210.183594 112.089844 195.613281 118.105469 192.535156 C 124.996094 189.003906 119.378906 178.707031 112.769531 177.296875 "/><path style="fill:none;stroke-width:40;stroke-linecap:round;stroke-linejoin:round;stroke:#21203d;stroke-opacity:1;stroke-miterlimit:10;" d="M 1805.437717 1846.052996 C 1801.932209 1846.832786 1666.126227 1773.792477 1662.880387 1774.312337 C 1686.639942 1878.024377 1408.536296 1952.75423 1449.563725 2125.997525 C 1467.740434 2156.799221 1774.926813 2116.120188 1786.22234 2169.535787 C 1825.691765 2354.345964 1411.52247 2426.996377 1466.961432 2687.056267 C 1514.999877 2912.025616 861.417359 2510.173953 939.187706 2390.346258 C 1057.336314 2208.005416 1117.319453 2258.431821 1234.039891 2179.543089 C 1174.965587 2078.560314 1187.299782 1919.4832 1274.677819 1976.147924 C 1367.379034 2036.191736 1565.375327 1835.655799 1605.364086 1693.084236 C 1619.77562 1607.177396 1815.694575 1434.064066 1708.451992 1391.435559 C 1499.549674 1308.517913 1685.341605 1180.242495 1709.101161 975.02782 C 1734.938054 751.877979 1782.846665 1236.647289 1982.790463 1339.059679 C 2211.816994 1456.548005 2025.116227 1799.135645 1805.437717 1846.052996 Z M 1805.437717 1846.052996 " transform="matrix(0.0300866,0,0,-0.0300562,58.450085,232.782172)"/><path style="fill:none;stroke-width:40;stroke-linecap:round;stroke-linejoin:round;stroke:#21203d;stroke-opacity:1;stroke-miterlimit:10;" d="M 2210.388824 928.630328 C 2210.388824 928.630328 2565.353982 958.652234 2743.745396 1101.873623 " transform="matrix(0.0300866,0,0,-0.0300562,58.450085,232.782172)"/><path style="fill:none;stroke-width:40;stroke-linecap:round;stroke-linejoin:round;stroke:#21203d;stroke-opacity:1;stroke-miterlimit:10;" d="M 2812.946723 1158.538346 L 2865.399512 1211.044191 " transform="matrix(0.0300866,0,0,-0.0300562,58.450085,232.782172)"/><path style="fill:none;stroke-width:40;stroke-linecap:round;stroke-linejoin:round;stroke:#21203d;stroke-opacity:1;stroke-miterlimit:10;" d="M 1927.870835 3196.129024 C 1927.870835 3196.129024 2052.900625 3186.121722 2152.872524 3211.074995 " transform="matrix(0.0300866,0,0,-0.0300562,58.450085,232.782172)"/><path style="fill:none;stroke-width:40;stroke-linecap:round;stroke-linejoin:round;stroke:#21203d;stroke-opacity:1;stroke-miterlimit:10;" d="M 2222.852853 3243.566235 C 2222.852853 3243.566235 2263.490781 3250.714308 2279.070817 3266.310103 " transform="matrix(0.0300866,0,0,-0.0300562,58.450085,232.782172)"/><path style="fill:none;stroke-width:40;stroke-linecap:round;stroke-linejoin:round;stroke:#21203d;stroke-opacity:1;stroke-miterlimit:10;" d="M 2883.706054 2578.535523 C 2883.706054 2578.535523 2990.429302 2551.892706 3070.406821 2435.314135 " transform="matrix(0.0300866,0,0,-0.0300562,58.450085,232.782172)"/><path style="fill:none;stroke-width:40;stroke-linecap:round;stroke-linejoin:round;stroke:#21203d;stroke-opacity:1;stroke-miterlimit:10;" d="M 3160.38153 2338.620203 L 3203.745964 2291.962782 " transform="matrix(0.0300866,0,0,-0.0300562,58.450085,232.782172)"/><path style="fill:none;stroke-width:40;stroke-linecap:round;stroke-linejoin:round;stroke:#21203d;stroke-opacity:1;stroke-miterlimit:10;" d="M 1365.950864 2650.926007 C 1365.950864 2650.926007 1357.25201 2524.859994 1397.24077 2506.275004 " transform="matrix(0.0300866,0,0,-0.0300562,58.450085,232.782172)"/><path style="fill:none;stroke-width:40;stroke-linecap:round;stroke-linejoin:round;stroke:#21203d;stroke-opacity:1;stroke-miterlimit:10;" d="M 1435.671526 2455.588669 L 1463.585757 2399.57377 " transform="matrix(0.0300866,0,0,-0.0300562,58.450085,232.782172)"/><g style="fill:#f5f2e7;fill-opacity:1;"><g transform="translate(153.810361, 198.46774)"><path style="stroke:none" d="M 21.9375 -7.953125 C 23.976562 -7.953125 25.554688 -8.382812 26.671875 -9.25 C 27.796875 -10.113281 28.585938 -11.222656 29.046875 -12.578125 C 29.503906 -13.929688 29.734375 -15.320312 29.734375 -16.75 C 29.734375 -18.175781 29.488281 -19.550781 29 -20.875 C 28.519531 -22.195312 27.71875 -23.289062 26.59375 -24.15625 C 25.476562 -25.019531 23.925781 -25.453125 21.9375 -25.453125 C 19.945312 -25.453125 18.378906 -25.019531 17.234375 -24.15625 C 16.085938 -23.289062 15.269531 -22.195312 14.78125 -20.875 C 14.300781 -19.550781 14.0625 -18.175781 14.0625 -16.75 C 14.0625 -15.320312 14.289062 -13.929688 14.75 -12.578125 C 15.207031 -11.222656 16.007812 -10.113281 17.15625 -9.25 C 18.3125 -8.382812 19.90625 -7.953125 21.9375 -7.953125 Z M 21.9375 -34.40625 C 25.457031 -34.40625 28.671875 -33.664062 31.578125 -32.1875 C 34.484375 -30.707031 36.800781 -28.65625 38.53125 -26.03125 C 40.257812 -23.40625 41.125 -20.332031 41.125 -16.8125 C 41.125 -13.25 40.269531 -10.15625 38.5625 -7.53125 C 36.863281 -4.90625 34.5625 -2.878906 31.65625 -1.453125 C 28.75 -0.0234375 25.507812 0.6875 21.9375 0.6875 C 18.375 0.6875 15.125 -0.0234375 12.1875 -1.453125 C 9.257812 -2.878906 6.941406 -4.90625 5.234375 -7.53125 C 3.523438 -10.15625 2.671875 -13.25 2.671875 -16.8125 C 2.671875 -20.332031 3.535156 -23.40625 5.265625 -26.03125 C 7.003906 -28.65625 9.335938 -30.707031 12.265625 -32.1875 C 15.203125 -33.664062 18.425781 -34.40625 21.9375 -34.40625 Z M 21.9375 -34.40625 "/></g></g><g style="fill:#f5f2e7;fill-opacity:1;"><g transform="translate(196.464445, 198.46774)"><path style="stroke:none" d="M 21.9375 -7.953125 C 23.976562 -7.953125 25.554688 -8.382812 26.671875 -9.25 C 27.796875 -10.113281 28.585938 -11.222656 29.046875 -12.578125 C 29.503906 -13.929688 29.734375 -15.320312 29.734375 -16.75 C 29.734375 -18.175781 29.488281 -19.550781 29 -20.875 C 28.519531 -22.195312 27.71875 -23.289062 26.59375 -24.15625 C 25.476562 -25.019531 23.925781 -25.453125 21.9375 -25.453125 C 19.945312 -25.453125 18.378906 -25.019531 17.234375 -24.15625 C 16.085938 -23.289062 15.269531 -22.195312 14.78125 -20.875 C 14.300781 -19.550781 14.0625 -18.175781 14.0625 -16.75 C 14.0625 -15.320312 14.289062 -13.929688 14.75 -12.578125 C 15.207031 -11.222656 16.007812 -10.113281 17.15625 -9.25 C 18.3125 -8.382812 19.90625 -7.953125 21.9375 -7.953125 Z M 21.9375 -34.40625 C 25.457031 -34.40625 28.671875 -33.664062 31.578125 -32.1875 C 34.484375 -30.707031 36.800781 -28.65625 38.53125 -26.03125 C 40.257812 -23.40625 41.125 -20.332031 41.125 -16.8125 C 41.125 -13.25 40.269531 -10.15625 38.5625 -7.53125 C 36.863281 -4.90625 34.5625 -2.878906 31.65625 -1.453125 C 28.75 -0.0234375 25.507812 0.6875 21.9375 0.6875 C 18.375 0.6875 15.125 -0.0234375 12.1875 -1.453125 C 9.257812 -2.878906 6.941406 -4.90625 5.234375 -7.53125 C 3.523438 -10.15625 2.671875 -13.25 2.671875 -16.8125 C 2.671875 -20.332031 3.535156 -23.40625 5.265625 -26.03125 C 7.003906 -28.65625 9.335938 -30.707031 12.265625 -32.1875 C 15.203125 -33.664062 18.425781 -34.40625 21.9375 -34.40625 Z M 21.9375 -34.40625 "/></g></g><g style="fill:#f5f2e7;fill-opacity:1;"><g transform="translate(239.118529, 198.46774)"><path style="stroke:none" d="M 30.96875 -16.8125 C 30.96875 -18.289062 30.609375 -19.664062 29.890625 -20.9375 C 29.179688 -22.21875 28.226562 -23.253906 27.03125 -24.046875 C 25.832031 -24.835938 24.46875 -25.234375 22.9375 -25.234375 C 21.40625 -25.234375 20.039062 -24.835938 18.84375 -24.046875 C 17.644531 -23.253906 16.6875 -22.21875 15.96875 -20.9375 C 15.257812 -19.664062 14.90625 -18.289062 14.90625 -16.8125 C 14.90625 -15.34375 15.257812 -13.96875 15.96875 -12.6875 C 16.6875 -11.414062 17.644531 -10.382812 18.84375 -9.59375 C 20.039062 -8.800781 21.40625 -8.40625 22.9375 -8.40625 C 24.46875 -8.40625 25.832031 -8.800781 27.03125 -9.59375 C 28.226562 -10.382812 29.179688 -11.414062 29.890625 -12.6875 C 30.609375 -13.96875 30.96875 -15.34375 30.96875 -16.8125 Z M 42.4375 -57.34375 L 42.4375 0 L 30.96875 0 L 30.96875 -4.046875 C 29.84375 -2.316406 28.171875 -1.082031 25.953125 -0.34375 C 23.734375 0.394531 21.554688 0.765625 19.421875 0.765625 C 16.253906 0.765625 13.394531 -0.046875 10.84375 -1.671875 C 8.300781 -3.304688 6.300781 -5.460938 4.84375 -8.140625 C 3.394531 -10.816406 2.671875 -13.707031 2.671875 -16.8125 C 2.671875 -19.925781 3.394531 -22.820312 4.84375 -25.5 C 6.300781 -28.175781 8.300781 -30.34375 10.84375 -32 C 13.394531 -33.65625 16.253906 -34.484375 19.421875 -34.484375 C 21.554688 -34.484375 23.644531 -34.125 25.6875 -33.40625 C 27.726562 -32.695312 29.488281 -31.425781 30.96875 -29.59375 L 30.96875 -57.34375 Z M 42.4375 -57.34375 "/></g></g><g style="fill:#f5f2e7;fill-opacity:1;"><g transform="translate(284.990043, 198.46774)"><path style="stroke:none" d=""/></g></g><g transform="matrix(1,0,0,1,232,163)"><g clip-path="url(#3b434a2f9c)"><g style="fill:#333330;fill-opacity:1;"><g transform="translate(0.711791, 54.184414)"><path style="stroke:none" d="M 25.328125 -6.296875 L 12.03125 -6.296875 L 9.90625 0 L 0.8125 0 L 13.703125 -35.640625 L 23.765625 -35.640625 L 36.65625 0 L 27.46875 0 Z M 23.09375 -13 L 18.6875 -26.046875 L 14.3125 -13 Z M 23.09375 -13 "/></g></g><g style="fill:#333330;fill-opacity:1;"><g transform="translate(38.11897, 54.184414)"><path style="stroke:none" d="M 7.515625 -31.265625 C 5.992188 -31.265625 4.75 -31.710938 3.78125 -32.609375 C 2.8125 -33.515625 2.328125 -34.625 2.328125 -35.9375 C 2.328125 -37.289062 2.8125 -38.414062 3.78125 -39.3125 C 4.75 -40.207031 5.992188 -40.65625 7.515625 -40.65625 C 9.003906 -40.65625 10.226562 -40.207031 11.1875 -39.3125 C 12.15625 -38.414062 12.640625 -37.289062 12.640625 -35.9375 C 12.640625 -34.625 12.15625 -33.515625 11.1875 -32.609375 C 10.226562 -31.710938 9.003906 -31.265625 7.515625 -31.265625 Z M 11.828125 -28.328125 L 11.828125 0 L 3.140625 0 L 3.140625 -28.328125 Z M 11.828125 -28.328125 "/></g></g></g></g><g style="fill:#f5f2e7;fill-opacity:1;"><g transform="translate(206.150997, 224.422368)"><path style="stroke:none" d="M 2.5625 -5.265625 C 2.738281 -5.554688 2.988281 -5.785156 3.3125 -5.953125 C 3.644531 -6.128906 4.023438 -6.21875 4.453125 -6.21875 C 4.960938 -6.21875 5.421875 -6.085938 5.828125 -5.828125 C 6.242188 -5.578125 6.566406 -5.210938 6.796875 -4.734375 C 7.035156 -4.265625 7.15625 -3.710938 7.15625 -3.078125 C 7.15625 -2.453125 7.035156 -1.894531 6.796875 -1.40625 C 6.566406 -0.925781 6.242188 -0.554688 5.828125 -0.296875 C 5.421875 -0.0351562 4.960938 0.09375 4.453125 0.09375 C 4.023438 0.09375 3.648438 0.0078125 3.328125 -0.15625 C 3.003906 -0.332031 2.75 -0.566406 2.5625 -0.859375 L 2.5625 0 L 0.6875 0 L 0.6875 -8.140625 L 2.5625 -8.140625 Z M 5.25 -3.078125 C 5.25 -3.546875 5.117188 -3.914062 4.859375 -4.1875 C 4.597656 -4.457031 4.273438 -4.59375 3.890625 -4.59375 C 3.515625 -4.59375 3.195312 -4.453125 2.9375 -4.171875 C 2.675781 -3.898438 2.546875 -3.53125 2.546875 -3.0625 C 2.546875 -2.59375 2.675781 -2.222656 2.9375 -1.953125 C 3.195312 -1.679688 3.515625 -1.546875 3.890625 -1.546875 C 4.265625 -1.546875 4.582031 -1.679688 4.84375 -1.953125 C 5.113281 -2.234375 5.25 -2.609375 5.25 -3.078125 Z M 5.25 -3.078125 "/></g></g><g style="fill:#f5f2e7;fill-opacity:1;"><g transform="translate(213.614719, 224.422368)"><path style="stroke:none" d="M 6.46875 -3.171875 C 6.46875 -2.992188 6.457031 -2.8125 6.4375 -2.625 L 2.171875 -2.625 C 2.203125 -2.238281 2.328125 -1.941406 2.546875 -1.734375 C 2.765625 -1.535156 3.03125 -1.4375 3.34375 -1.4375 C 3.8125 -1.4375 4.140625 -1.632812 4.328125 -2.03125 L 6.328125 -2.03125 C 6.222656 -1.632812 6.035156 -1.273438 5.765625 -0.953125 C 5.503906 -0.628906 5.171875 -0.375 4.765625 -0.1875 C 4.359375 0 3.90625 0.09375 3.40625 0.09375 C 2.8125 0.09375 2.273438 -0.0351562 1.796875 -0.296875 C 1.328125 -0.554688 0.960938 -0.921875 0.703125 -1.390625 C 0.441406 -1.867188 0.3125 -2.425781 0.3125 -3.0625 C 0.3125 -3.707031 0.441406 -4.265625 0.703125 -4.734375 C 0.960938 -5.210938 1.328125 -5.578125 1.796875 -5.828125 C 2.265625 -6.085938 2.800781 -6.21875 3.40625 -6.21875 C 4 -6.21875 4.523438 -6.09375 4.984375 -5.84375 C 5.453125 -5.601562 5.816406 -5.25 6.078125 -4.78125 C 6.335938 -4.320312 6.46875 -3.785156 6.46875 -3.171875 Z M 4.546875 -3.65625 C 4.546875 -3.976562 4.4375 -4.234375 4.21875 -4.421875 C 4 -4.617188 3.722656 -4.71875 3.390625 -4.71875 C 3.078125 -4.71875 2.8125 -4.625 2.59375 -4.4375 C 2.375 -4.257812 2.238281 -4 2.1875 -3.65625 Z M 4.546875 -3.65625 "/></g></g><g style="fill:#f5f2e7;fill-opacity:1;"><g transform="translate(220.385936, 224.422368)"><path style="stroke:none" d="M 4.109375 -1.59375 L 4.109375 0 L 3.140625 0 C 2.460938 0 1.929688 -0.164062 1.546875 -0.5 C 1.171875 -0.832031 0.984375 -1.378906 0.984375 -2.140625 L 0.984375 -4.578125 L 0.234375 -4.578125 L 0.234375 -6.140625 L 0.984375 -6.140625 L 0.984375 -7.640625 L 2.859375 -7.640625 L 2.859375 -6.140625 L 4.09375 -6.140625 L 4.09375 -4.578125 L 2.859375 -4.578125 L 2.859375 -2.109375 C 2.859375 -1.929688 2.898438 -1.800781 2.984375 -1.71875 C 3.078125 -1.632812 3.226562 -1.59375 3.4375 -1.59375 Z M 4.109375 -1.59375 "/></g></g><g style="fill:#f5f2e7;fill-opacity:1;"><g transform="translate(224.848777, 224.422368)"><path style="stroke:none" d="M 4.109375 -1.59375 L 4.109375 0 L 3.140625 0 C 2.460938 0 1.929688 -0.164062 1.546875 -0.5 C 1.171875 -0.832031 0.984375 -1.378906 0.984375 -2.140625 L 0.984375 -4.578125 L 0.234375 -4.578125 L 0.234375 -6.140625 L 0.984375 -6.140625 L 0.984375 -7.640625 L 2.859375 -7.640625 L 2.859375 -6.140625 L 4.09375 -6.140625 L 4.09375 -4.578125 L 2.859375 -4.578125 L 2.859375 -2.109375 C 2.859375 -1.929688 2.898438 -1.800781 2.984375 -1.71875 C 3.078125 -1.632812 3.226562 -1.59375 3.4375 -1.59375 Z M 4.109375 -1.59375 "/></g></g><g style="fill:#f5f2e7;fill-opacity:1;"><g transform="translate(229.311617, 224.422368)"><path style="stroke:none" d="M 6.46875 -3.171875 C 6.46875 -2.992188 6.457031 -2.8125 6.4375 -2.625 L 2.171875 -2.625 C 2.203125 -2.238281 2.328125 -1.941406 2.546875 -1.734375 C 2.765625 -1.535156 3.03125 -1.4375 3.34375 -1.4375 C 3.8125 -1.4375 4.140625 -1.632812 4.328125 -2.03125 L 6.328125 -2.03125 C 6.222656 -1.632812 6.035156 -1.273438 5.765625 -0.953125 C 5.503906 -0.628906 5.171875 -0.375 4.765625 -0.1875 C 4.359375 0 3.90625 0.09375 3.40625 0.09375 C 2.8125 0.09375 2.273438 -0.0351562 1.796875 -0.296875 C 1.328125 -0.554688 0.960938 -0.921875 0.703125 -1.390625 C 0.441406 -1.867188 0.3125 -2.425781 0.3125 -3.0625 C 0.3125 -3.707031 0.441406 -4.265625 0.703125 -4.734375 C 0.960938 -5.210938 1.328125 -5.578125 1.796875 -5.828125 C 2.265625 -6.085938 2.800781 -6.21875 3.40625 -6.21875 C 4 -6.21875 4.523438 -6.09375 4.984375 -5.84375 C 5.453125 -5.601562 5.816406 -5.25 6.078125 -4.78125 C 6.335938 -4.320312 6.46875 -3.785156 6.46875 -3.171875 Z M 4.546875 -3.65625 C 4.546875 -3.976562 4.4375 -4.234375 4.21875 -4.421875 C 4 -4.617188 3.722656 -4.71875 3.390625 -4.71875 C 3.078125 -4.71875 2.8125 -4.625 2.59375 -4.4375 C 2.375 -4.257812 2.238281 -4 2.1875 -3.65625 Z M 4.546875 -3.65625 "/></g></g><g style="fill:#f5f2e7;fill-opacity:1;"><g transform="translate(236.082834, 224.422368)"><path style="stroke:none" d="M 2.5625 -5.109375 C 2.78125 -5.453125 3.054688 -5.71875 3.390625 -5.90625 C 3.722656 -6.101562 4.085938 -6.203125 4.484375 -6.203125 L 4.484375 -4.21875 L 3.96875 -4.21875 C 3.5 -4.21875 3.144531 -4.113281 2.90625 -3.90625 C 2.675781 -3.707031 2.5625 -3.351562 2.5625 -2.84375 L 2.5625 0 L 0.6875 0 L 0.6875 -6.140625 L 2.5625 -6.140625 Z M 2.5625 -5.109375 "/></g></g><g style="fill:#f5f2e7;fill-opacity:1;"><g transform="translate(240.787511, 224.422368)"><path style="stroke:none" d=""/></g></g><g style="fill:#f5f2e7;fill-opacity:1;"><g transform="translate(243.11786, 224.422368)"><path style="stroke:none" d="M 2.5625 -5.265625 C 2.75 -5.554688 3.003906 -5.785156 3.328125 -5.953125 C 3.648438 -6.128906 4.023438 -6.21875 4.453125 -6.21875 C 4.960938 -6.21875 5.421875 -6.085938 5.828125 -5.828125 C 6.242188 -5.578125 6.566406 -5.210938 6.796875 -4.734375 C 7.035156 -4.265625 7.15625 -3.710938 7.15625 -3.078125 C 7.15625 -2.453125 7.035156 -1.894531 6.796875 -1.40625 C 6.566406 -0.925781 6.242188 -0.554688 5.828125 -0.296875 C 5.421875 -0.0351562 4.960938 0.09375 4.453125 0.09375 C 4.023438 0.09375 3.648438 0.00390625 3.328125 -0.171875 C 3.003906 -0.347656 2.75 -0.578125 2.5625 -0.859375 L 2.5625 2.921875 L 0.6875 2.921875 L 0.6875 -6.140625 L 2.5625 -6.140625 Z M 5.25 -3.078125 C 5.25 -3.546875 5.117188 -3.914062 4.859375 -4.1875 C 4.597656 -4.457031 4.273438 -4.59375 3.890625 -4.59375 C 3.515625 -4.59375 3.195312 -4.453125 2.9375 -4.171875 C 2.675781 -3.898438 2.546875 -3.53125 2.546875 -3.0625 C 2.546875 -2.59375 2.675781 -2.222656 2.9375 -1.953125 C 3.195312 -1.679688 3.515625 -1.546875 3.890625 -1.546875 C 4.265625 -1.546875 4.582031 -1.679688 4.84375 -1.953125 C 5.113281 -2.234375 5.25 -2.609375 5.25 -3.078125 Z M 5.25 -3.078125 "/></g></g><g style="fill:#f5f2e7;fill-opacity:1;"><g transform="translate(250.581582, 224.422368)"><path style="stroke:none" d="M 6.46875 -3.171875 C 6.46875 -2.992188 6.457031 -2.8125 6.4375 -2.625 L 2.171875 -2.625 C 2.203125 -2.238281 2.328125 -1.941406 2.546875 -1.734375 C 2.765625 -1.535156 3.03125 -1.4375 3.34375 -1.4375 C 3.8125 -1.4375 4.140625 -1.632812 4.328125 -2.03125 L 6.328125 -2.03125 C 6.222656 -1.632812 6.035156 -1.273438 5.765625 -0.953125 C 5.503906 -0.628906 5.171875 -0.375 4.765625 -0.1875 C 4.359375 0 3.90625 0.09375 3.40625 0.09375 C 2.8125 0.09375 2.273438 -0.0351562 1.796875 -0.296875 C 1.328125 -0.554688 0.960938 -0.921875 0.703125 -1.390625 C 0.441406 -1.867188 0.3125 -2.425781 0.3125 -3.0625 C 0.3125 -3.707031 0.441406 -4.265625 0.703125 -4.734375 C 0.960938 -5.210938 1.328125 -5.578125 1.796875 -5.828125 C 2.265625 -6.085938 2.800781 -6.21875 3.40625 -6.21875 C 4 -6.21875 4.523438 -6.09375 4.984375 -5.84375 C 5.453125 -5.601562 5.816406 -5.25 6.078125 -4.78125 C 6.335938 -4.320312 6.46875 -3.785156 6.46875 -3.171875 Z M 4.546875 -3.65625 C 4.546875 -3.976562 4.4375 -4.234375 4.21875 -4.421875 C 4 -4.617188 3.722656 -4.71875 3.390625 -4.71875 C 3.078125 -4.71875 2.8125 -4.625 2.59375 -4.4375 C 2.375 -4.257812 2.238281 -4 2.1875 -3.65625 Z M 4.546875 -3.65625 "/></g></g><g style="fill:#f5f2e7;fill-opacity:1;"><g transform="translate(257.352799, 224.422368)"><path style="stroke:none" d="M 3.46875 0.09375 C 2.875 0.09375 2.335938 -0.0351562 1.859375 -0.296875 C 1.378906 -0.554688 1 -0.921875 0.71875 -1.390625 C 0.445312 -1.867188 0.3125 -2.425781 0.3125 -3.0625 C 0.3125 -3.695312 0.445312 -4.253906 0.71875 -4.734375 C 1 -5.210938 1.378906 -5.578125 1.859375 -5.828125 C 2.347656 -6.085938 2.894531 -6.21875 3.5 -6.21875 C 4.101562 -6.21875 4.644531 -6.085938 5.125 -5.828125 C 5.613281 -5.578125 5.992188 -5.210938 6.265625 -4.734375 C 6.546875 -4.253906 6.6875 -3.695312 6.6875 -3.0625 C 6.6875 -2.4375 6.546875 -1.882812 6.265625 -1.40625 C 5.984375 -0.925781 5.597656 -0.554688 5.109375 -0.296875 C 4.617188 -0.0351562 4.070312 0.09375 3.46875 0.09375 Z M 3.46875 -1.546875 C 3.832031 -1.546875 4.140625 -1.675781 4.390625 -1.9375 C 4.648438 -2.195312 4.78125 -2.570312 4.78125 -3.0625 C 4.78125 -3.5625 4.65625 -3.941406 4.40625 -4.203125 C 4.15625 -4.460938 3.851562 -4.59375 3.5 -4.59375 C 3.132812 -4.59375 2.828125 -4.460938 2.578125 -4.203125 C 2.335938 -3.941406 2.21875 -3.5625 2.21875 -3.0625 C 2.21875 -2.570312 2.335938 -2.195312 2.578125 -1.9375 C 2.816406 -1.675781 3.113281 -1.546875 3.46875 -1.546875 Z M 3.46875 -1.546875 "/></g></g><g style="fill:#f5f2e7;fill-opacity:1;"><g transform="translate(264.354843, 224.422368)"><path style="stroke:none" d="M 2.5625 -5.265625 C 2.75 -5.554688 3.003906 -5.785156 3.328125 -5.953125 C 3.648438 -6.128906 4.023438 -6.21875 4.453125 -6.21875 C 4.960938 -6.21875 5.421875 -6.085938 5.828125 -5.828125 C 6.242188 -5.578125 6.566406 -5.210938 6.796875 -4.734375 C 7.035156 -4.265625 7.15625 -3.710938 7.15625 -3.078125 C 7.15625 -2.453125 7.035156 -1.894531 6.796875 -1.40625 C 6.566406 -0.925781 6.242188 -0.554688 5.828125 -0.296875 C 5.421875 -0.0351562 4.960938 0.09375 4.453125 0.09375 C 4.023438 0.09375 3.648438 0.00390625 3.328125 -0.171875 C 3.003906 -0.347656 2.75 -0.578125 2.5625 -0.859375 L 2.5625 2.921875 L 0.6875 2.921875 L 0.6875 -6.140625 L 2.5625 -6.140625 Z M 5.25 -3.078125 C 5.25 -3.546875 5.117188 -3.914062 4.859375 -4.1875 C 4.597656 -4.457031 4.273438 -4.59375 3.890625 -4.59375 C 3.515625 -4.59375 3.195312 -4.453125 2.9375 -4.171875 C 2.675781 -3.898438 2.546875 -3.53125 2.546875 -3.0625 C 2.546875 -2.59375 2.675781 -2.222656 2.9375 -1.953125 C 3.195312 -1.679688 3.515625 -1.546875 3.890625 -1.546875 C 4.265625 -1.546875 4.582031 -1.679688 4.84375 -1.953125 C 5.113281 -2.234375 5.25 -2.609375 5.25 -3.078125 Z M 5.25 -3.078125 "/></g></g><g style="fill:#f5f2e7;fill-opacity:1;"><g transform="translate(271.818565, 224.422368)"><path style="stroke:none" d="M 2.5625 -8.140625 L 2.5625 0 L 0.6875 0 L 0.6875 -8.140625 Z M 2.5625 -8.140625 "/></g></g><g style="fill:#f5f2e7;fill-opacity:1;"><g transform="translate(275.061271, 224.422368)"><path style="stroke:none" d="M 6.46875 -3.171875 C 6.46875 -2.992188 6.457031 -2.8125 6.4375 -2.625 L 2.171875 -2.625 C 2.203125 -2.238281 2.328125 -1.941406 2.546875 -1.734375 C 2.765625 -1.535156 3.03125 -1.4375 3.34375 -1.4375 C 3.8125 -1.4375 4.140625 -1.632812 4.328125 -2.03125 L 6.328125 -2.03125 C 6.222656 -1.632812 6.035156 -1.273438 5.765625 -0.953125 C 5.503906 -0.628906 5.171875 -0.375 4.765625 -0.1875 C 4.359375 0 3.90625 0.09375 3.40625 0.09375 C 2.8125 0.09375 2.273438 -0.0351562 1.796875 -0.296875 C 1.328125 -0.554688 0.960938 -0.921875 0.703125 -1.390625 C 0.441406 -1.867188 0.3125 -2.425781 0.3125 -3.0625 C 0.3125 -3.707031 0.441406 -4.265625 0.703125 -4.734375 C 0.960938 -5.210938 1.328125 -5.578125 1.796875 -5.828125 C 2.265625 -6.085938 2.800781 -6.21875 3.40625 -6.21875 C 4 -6.21875 4.523438 -6.09375 4.984375 -5.84375 C 5.453125 -5.601562 5.816406 -5.25 6.078125 -4.78125 C 6.335938 -4.320312 6.46875 -3.785156 6.46875 -3.171875 Z M 4.546875 -3.65625 C 4.546875 -3.976562 4.4375 -4.234375 4.21875 -4.421875 C 4 -4.617188 3.722656 -4.71875 3.390625 -4.71875 C 3.078125 -4.71875 2.8125 -4.625 2.59375 -4.4375 C 2.375 -4.257812 2.238281 -4 2.1875 -3.65625 Z M 4.546875 -3.65625 "/></g></g><g style="fill:#333330;fill-opacity:1;"><g transform="translate(88.377347, 196.818328)"><path style="stroke:none" d="M 32.984375 -45.34375 C 30.015625 -45.34375 27.289062 -44.546875 24.8125 -42.953125 C 22.34375 -41.359375 20.363281 -39.242188 18.875 -36.609375 C 17.394531 -33.972656 16.65625 -31.0625 16.65625 -27.875 C 16.65625 -24.738281 17.394531 -21.835938 18.875 -19.171875 C 20.363281 -16.503906 22.34375 -14.375 24.8125 -12.78125 C 27.289062 -11.1875 30.015625 -10.390625 32.984375 -10.390625 C 34.796875 -10.390625 36.703125 -10.648438 38.703125 -11.171875 C 40.710938 -11.691406 42.582031 -12.691406 44.3125 -14.171875 C 46.050781 -15.660156 47.414062 -17.804688 48.40625 -20.609375 L 34.140625 -20.609375 L 34.140625 -29.9375 L 61.75 -29.9375 L 61.75 -28.03125 C 61.75 -24.070312 61.007812 -20.347656 59.53125 -16.859375 C 58.050781 -13.367188 55.988281 -10.289062 53.34375 -7.625 C 50.707031 -4.957031 47.65625 -2.878906 44.1875 -1.390625 C 40.726562 0.0859375 36.992188 0.828125 32.984375 0.828125 C 29.023438 0.828125 25.300781 0.0703125 21.8125 -1.4375 C 18.320312 -2.945312 15.253906 -5.019531 12.609375 -7.65625 C 9.972656 -10.300781 7.898438 -13.367188 6.390625 -16.859375 C 4.878906 -20.347656 4.125 -24.070312 4.125 -28.03125 C 4.125 -31.988281 4.878906 -35.710938 6.390625 -39.203125 C 7.898438 -42.691406 9.972656 -45.753906 12.609375 -48.390625 C 15.253906 -51.035156 18.320312 -53.113281 21.8125 -54.625 C 25.300781 -56.132812 29.023438 -56.890625 32.984375 -56.890625 C 37.109375 -56.890625 41.007812 -56.050781 44.6875 -54.375 C 48.375 -52.695312 51.585938 -50.390625 54.328125 -47.453125 C 57.078125 -44.515625 59.085938 -41.09375 60.359375 -37.1875 L 46.75 -37.1875 C 45.375 -40.15625 43.421875 -42.253906 40.890625 -43.484375 C 38.367188 -44.722656 35.734375 -45.34375 32.984375 -45.34375 Z M 32.984375 -45.34375 "/></g></g></g></svg>