<svg xmlns="http://www.w3.org/2000/svg" xmlns:xlink="http://www.w3.org/1999/xlink" width="500" zoomAndPan="magnify" viewBox="0 0 375 374.999991" height="500" preserveAspectRatio="xMidYMid meet" version="1.2"><defs><clipPath id="d428c96c54"><path d="M 104 129.929688 L 135 129.929688 L 135 140 L 104 140 Z M 104 129.929688 "/></clipPath><clipPath id="8e35455f44"><path d="M 83.398438 131 L 161.398438 131 L 161.398438 208 L 83.398438 208 Z M 83.398438 131 "/></clipPath><clipPath id="c04e8fcb0b"><rect x="0" width="55" y="0" height="73"/></clipPath></defs><g id="fb3695179e"><path style=" stroke:none;fill-rule:nonzero;fill:#f4ece5;fill-opacity:1;" d="M 126.714844 136.828125 C 128.003906 135.726562 131.003906 133.863281 134.101562 132.425781 C 130.367188 131.203125 126.378906 130.539062 122.234375 130.539062 C 116.171875 130.539062 110.441406 131.953125 105.347656 134.46875 C 107.464844 135.261719 109.972656 136.328125 111.582031 137.402344 C 114.820312 139.5625 124.65625 138.597656 126.714844 136.828125 "/><g clip-rule="nonzero" clip-path="url(#d428c96c54)"><path style="fill:none;stroke-width:40;stroke-linecap:round;stroke-linejoin:round;stroke:#21203d;stroke-opacity:1;stroke-miterlimit:10;" d="M 2275.68072 3191.651603 C 2318.726306 3228.436013 2418.905124 3290.65645 2522.344971 3338.658801 C 2397.643213 3379.486887 2264.46278 3401.661885 2126.0647 3401.661885 C 1923.620005 3401.661885 1732.262811 3354.442182 1562.167526 3270.438069 C 1632.86664 3243.958512 1716.60987 3208.348073 1770.351632 3172.476751 C 1878.487361 3100.342785 2206.938224 3132.561754 2275.68072 3191.651603 Z M 2275.68072 3191.651603 " transform="matrix(0.0299465,0,0,-0.0299465,58.566284,232.406762)"/></g><path style=" stroke:none;fill-rule:nonzero;fill:#e8935b;fill-opacity:1;" d="M 148.339844 166.714844 C 148.699219 166.355469 147.511719 166.542969 145.894531 167.097656 C 146.996094 167.191406 147.960938 167.09375 148.339844 166.714844 "/><path style="fill:none;stroke-width:40;stroke-linecap:round;stroke-linejoin:round;stroke:#21203d;stroke-opacity:1;stroke-miterlimit:10;" d="M 2997.803032 2193.64622 C 3009.803619 2205.646807 2970.149504 2199.385631 2916.14686 2180.862985 C 2952.93127 2177.732397 2985.150238 2180.993426 2997.803032 2193.64622 Z M 2997.803032 2193.64622 " transform="matrix(0.0299465,0,0,-0.0299465,58.566284,232.406762)"/><path style=" stroke:none;fill-rule:nonzero;fill:#f4ece5;fill-opacity:1;" d="M 143.203125 147.265625 C 139.566406 148.96875 139.992188 151.109375 141.0625 152.175781 C 142.136719 153.246094 139.351562 156.671875 139.351562 156.671875 C 139.351562 156.671875 136.984375 160.160156 134.101562 160.160156 C 131.21875 160.160156 129.828125 162.558594 131.648438 164.375 C 133.46875 166.195312 140.3125 164.480469 141.492188 165.660156 C 142.203125 166.371094 144.207031 166.957031 145.894531 167.097656 C 147.511719 166.542969 148.699219 166.355469 148.339844 166.714844 C 147.960938 167.09375 146.996094 167.191406 145.894531 167.097656 C 143.214844 168.015625 139.351562 169.945312 139.351562 172.078125 C 139.351562 175.503906 143.679688 181.421875 145.128906 182.875 C 146.582031 184.324219 147.484375 189.90625 147.484375 189.90625 C 147.484375 189.90625 152.40625 189.605469 153.691406 182.875 C 154.976562 176.144531 153.476562 170.765625 153.476562 170.765625 C 153.476562 170.765625 157.113281 170.964844 157.113281 168.742188 C 157.113281 168.742188 157.976562 165.265625 160.152344 164.117188 C 159.152344 155.820312 155.488281 148.339844 150.039062 142.5625 C 147.675781 144.4375 144.949219 146.453125 143.203125 147.265625 "/><path style="fill:none;stroke-width:40;stroke-linecap:round;stroke-linejoin:round;stroke:#21203d;stroke-opacity:1;stroke-miterlimit:10;" d="M 2826.272894 2843.1128 C 2704.832166 2786.24045 2719.050254 2714.75869 2754.791134 2679.148251 C 2790.662455 2643.40737 2697.657902 2529.010465 2697.657902 2529.010465 C 2697.657902 2529.010465 2618.610554 2412.526501 2522.344971 2412.526501 C 2426.079388 2412.526501 2379.642332 2332.435624 2440.427917 2271.78048 C 2501.213501 2210.994895 2729.746429 2268.258568 2769.139662 2228.865335 C 2792.879955 2205.125043 2859.796275 2185.558867 2916.14686 2180.862985 C 2970.149504 2199.385631 3009.803619 2205.646807 2997.803032 2193.64622 C 2985.150238 2180.993426 2952.93127 2177.732397 2916.14686 2180.862985 C 2826.664218 2150.209311 2697.657902 2085.771373 2697.657902 2014.550495 C 2697.657902 1900.15359 2842.186717 1702.535219 2890.580391 1654.011104 C 2939.104506 1605.61743 2969.236416 1419.217 2969.236416 1419.217 C 2969.236416 1419.217 3133.592288 1429.26097 3176.507433 1654.011104 C 3219.422578 1878.761238 3169.333169 2058.378728 3169.333169 2058.378728 C 3169.333169 2058.378728 3290.773897 2051.726228 3290.773897 2125.947253 C 3290.773897 2125.947253 3319.601395 2242.039893 3392.257126 2280.389597 C 3358.864187 2557.44664 3236.510371 2807.241478 3054.54494 3000.163967 C 2975.628033 2937.552206 2884.580097 2870.244563 2826.272894 2843.1128 Z M 2826.272894 2843.1128 " transform="matrix(0.0299465,0,0,-0.0299465,58.566284,232.406762)"/><path style=" stroke:none;fill-rule:nonzero;fill:#e8935b;fill-opacity:1;" d="M 157.113281 168.742188 C 157.113281 170.964844 153.476562 170.765625 153.476562 170.765625 C 153.476562 170.765625 154.976562 176.144531 153.691406 182.875 C 152.40625 189.605469 147.484375 189.90625 147.484375 189.90625 C 147.484375 189.90625 146.582031 184.324219 145.128906 182.875 C 143.679688 181.421875 139.351562 175.503906 139.351562 172.078125 C 139.351562 169.945312 143.214844 168.015625 145.894531 167.097656 C 144.207031 166.957031 142.203125 166.371094 141.492188 165.660156 C 140.3125 164.480469 133.46875 166.195312 131.648438 164.375 C 129.828125 162.558594 131.21875 160.160156 134.101562 160.160156 C 136.984375 160.160156 139.351562 156.671875 139.351562 156.671875 C 139.351562 156.671875 142.136719 153.246094 141.0625 152.175781 C 139.992188 151.109375 139.566406 148.96875 143.203125 147.265625 C 144.949219 146.453125 147.675781 144.4375 150.039062 142.5625 C 145.710938 137.957031 140.25 134.433594 134.101562 132.425781 C 131.003906 133.863281 128.003906 135.726562 126.714844 136.828125 C 124.65625 138.597656 114.820312 139.5625 111.582031 137.402344 C 109.972656 136.328125 107.464844 135.261719 105.347656 134.46875 C 92.71875 140.703125 84.03125 153.703125 84.03125 168.742188 C 84.03125 189.839844 101.136719 206.941406 122.230469 206.941406 C 143.328125 206.941406 160.433594 189.839844 160.433594 168.742188 C 160.433594 167.179688 160.335938 165.632812 160.152344 164.117188 C 157.976562 165.265625 157.113281 168.742188 157.113281 168.742188 "/><g clip-rule="nonzero" clip-path="url(#8e35455f44)"><path style="fill:none;stroke-width:40;stroke-linecap:round;stroke-linejoin:round;stroke:#21203d;stroke-opacity:1;stroke-miterlimit:10;" d="M 3290.773897 2125.947253 C 3290.773897 2051.726228 3169.333169 2058.378728 3169.333169 2058.378728 C 3169.333169 2058.378728 3219.422578 1878.761238 3176.507433 1654.011104 C 3133.592288 1429.26097 2969.236416 1419.217 2969.236416 1419.217 C 2969.236416 1419.217 2939.104506 1605.61743 2890.580391 1654.011104 C 2842.186717 1702.535219 2697.657902 1900.15359 2697.657902 2014.550495 C 2697.657902 2085.771373 2826.664218 2150.209311 2916.14686 2180.862985 C 2859.796275 2185.558867 2792.879955 2205.125043 2769.139662 2228.865335 C 2729.746429 2268.258568 2501.213501 2210.994895 2440.427917 2271.78048 C 2379.642332 2332.435624 2426.079388 2412.526501 2522.344971 2412.526501 C 2618.610554 2412.526501 2697.657902 2529.010465 2697.657902 2529.010465 C 2697.657902 2529.010465 2790.662455 2643.40737 2754.791134 2679.148251 C 2719.050254 2714.75869 2704.832166 2786.24045 2826.272894 2843.1128 C 2884.580097 2870.244563 2975.628033 2937.552206 3054.54494 3000.163967 C 2910.016125 3153.954105 2727.659371 3271.61204 2522.344971 3338.658801 C 2418.905124 3290.65645 2318.726306 3228.436013 2275.68072 3191.651603 C 2206.938224 3132.561754 1878.487361 3100.342785 1770.351632 3172.476751 C 1716.60987 3208.348073 1632.86664 3243.958512 1562.167526 3270.438069 C 1140.451227 3062.253964 850.350067 2628.145753 850.350067 2125.947253 C 850.350067 1421.564941 1421.551946 850.363062 2125.934258 850.363062 C 2830.447012 850.363062 3401.648891 1421.564941 3401.648891 2125.947253 C 3401.648891 2178.254162 3398.387861 2229.778424 3392.257126 2280.389597 C 3319.601395 2242.039893 3290.773897 2125.947253 3290.773897 2125.947253 Z M 3290.773897 2125.947253 " transform="matrix(0.0299465,0,0,-0.0299465,58.566284,232.406762)"/></g><path style=" stroke:none;fill-rule:nonzero;fill:#f4ece5;fill-opacity:1;" d="M 112.632812 177.121094 C 112.527344 177.101562 108.460938 179.289062 108.363281 179.273438 C 109.074219 176.167969 100.75 173.925781 101.976562 168.742188 C 102.519531 167.816406 111.71875 169.035156 112.054688 167.4375 C 113.238281 161.902344 100.835938 159.726562 102.496094 151.941406 C 103.933594 145.203125 84.363281 157.234375 86.691406 160.824219 C 90.230469 166.285156 92.027344 164.777344 95.523438 167.136719 C 93.753906 170.164062 94.121094 174.925781 96.738281 173.230469 C 99.515625 171.429688 105.445312 177.4375 106.640625 181.703125 C 107.074219 184.277344 112.941406 189.464844 109.726562 190.738281 C 103.472656 193.222656 109.035156 197.0625 109.746094 203.207031 C 110.519531 209.890625 111.957031 195.375 117.945312 192.304688 C 124.800781 188.785156 119.210938 178.527344 112.632812 177.121094 "/><path style="fill:none;stroke-width:40;stroke-linecap:round;stroke-linejoin:round;stroke:#21203d;stroke-opacity:1;stroke-miterlimit:10;" d="M 1805.440306 1846.150946 C 1801.918395 1846.803152 1666.129138 1773.756097 1662.868109 1774.277862 C 1686.608401 1877.978591 1408.63827 1952.851822 1449.596798 2125.947253 C 1467.72812 2156.86181 1774.917073 2116.164165 1786.135013 2169.514604 C 1825.658688 2354.34974 1411.507976 2427.005471 1466.945473 2686.974721 C 1514.947823 2911.985737 861.437567 2510.226937 939.180503 2390.351503 C 1057.360203 2207.994748 1117.36314 2258.34504 1234.107986 2179.558574 C 1175.018137 2078.466668 1187.279607 1919.458883 1274.67519 1976.07035 C 1367.418861 2036.203729 1565.428556 1835.585211 1605.343553 1693.143455 C 1619.822523 1607.182724 1815.745159 1433.956852 1708.392077 1391.433031 C 1499.555765 1308.472447 1685.30399 1180.248778 1709.044283 975.06482 C 1734.871634 751.87998 1782.873984 1236.599363 1982.840296 1339.126122 C 2211.764548 1456.653615 2025.103235 1799.192125 1805.440306 1846.150946 Z M 1805.440306 1846.150946 " transform="matrix(0.0299465,0,0,-0.0299465,58.566284,232.406762)"/><path style="fill:none;stroke-width:40;stroke-linecap:round;stroke-linejoin:round;stroke:#21203d;stroke-opacity:1;stroke-miterlimit:10;" d="M 2210.460136 928.627763 C 2210.460136 928.627763 2565.390557 958.629232 2743.703635 1101.853636 " transform="matrix(0.0299465,0,0,-0.0299465,58.566284,232.406762)"/><path style="fill:none;stroke-width:40;stroke-linecap:round;stroke-linejoin:round;stroke:#21203d;stroke-opacity:1;stroke-miterlimit:10;" d="M 2812.837454 1158.595544 L 2865.405245 1211.163335 " transform="matrix(0.0299465,0,0,-0.0299465,58.566284,232.406762)"/><path style="fill:none;stroke-width:40;stroke-linecap:round;stroke-linejoin:round;stroke:#21203d;stroke-opacity:1;stroke-miterlimit:10;" d="M 1927.924564 3196.086603 C 1927.924564 3196.086603 2052.887204 3186.042633 2152.93558 3211.087337 " transform="matrix(0.0299465,0,0,-0.0299465,58.566284,232.406762)"/><path style="fill:none;stroke-width:40;stroke-linecap:round;stroke-linejoin:round;stroke:#21203d;stroke-opacity:1;stroke-miterlimit:10;" d="M 2222.852047 3243.567189 C 2222.852047 3243.567189 2263.549692 3250.741453 2279.072191 3266.263952 " transform="matrix(0.0299465,0,0,-0.0299465,58.566284,232.406762)"/><path style="fill:none;stroke-width:40;stroke-linecap:round;stroke-linejoin:round;stroke:#21203d;stroke-opacity:1;stroke-miterlimit:10;" d="M 2883.667009 2578.578109 C 2883.667009 2578.578109 2990.367885 2551.83767 3070.458763 2435.353706 " transform="matrix(0.0299465,0,0,-0.0299465,58.566284,232.406762)"/><path style="fill:none;stroke-width:40;stroke-linecap:round;stroke-linejoin:round;stroke:#21203d;stroke-opacity:1;stroke-miterlimit:10;" d="M 3160.463169 2338.566358 L 3203.639196 2291.86842 " transform="matrix(0.0299465,0,0,-0.0299465,58.566284,232.406762)"/><path style="fill:none;stroke-width:40;stroke-linecap:round;stroke-linejoin:round;stroke:#21203d;stroke-opacity:1;stroke-miterlimit:10;" d="M 1365.853567 2650.842517 C 1365.853567 2650.842517 1357.24445 2524.836348 1397.289889 2506.313702 " transform="matrix(0.0299465,0,0,-0.0299465,58.566284,232.406762)"/><path style="fill:none;stroke-width:40;stroke-linecap:round;stroke-linejoin:round;stroke:#21203d;stroke-opacity:1;stroke-miterlimit:10;" d="M 1435.639592 2455.572087 L 1463.554003 2399.612826 " transform="matrix(0.0299465,0,0,-0.0299465,58.566284,232.406762)"/><g style="fill:#121212;fill-opacity:1;"><g transform="translate(153.810361, 198.46774)"><path style="stroke:none" d="M 21.9375 -7.953125 C 23.976562 -7.953125 25.554688 -8.382812 26.671875 -9.25 C 27.796875 -10.113281 28.585938 -11.222656 29.046875 -12.578125 C 29.503906 -13.929688 29.734375 -15.320312 29.734375 -16.75 C 29.734375 -18.175781 29.488281 -19.550781 29 -20.875 C 28.519531 -22.195312 27.71875 -23.289062 26.59375 -24.15625 C 25.476562 -25.019531 23.925781 -25.453125 21.9375 -25.453125 C 19.945312 -25.453125 18.378906 -25.019531 17.234375 -24.15625 C 16.085938 -23.289062 15.269531 -22.195312 14.78125 -20.875 C 14.300781 -19.550781 14.0625 -18.175781 14.0625 -16.75 C 14.0625 -15.320312 14.289062 -13.929688 14.75 -12.578125 C 15.207031 -11.222656 16.007812 -10.113281 17.15625 -9.25 C 18.3125 -8.382812 19.90625 -7.953125 21.9375 -7.953125 Z M 21.9375 -34.40625 C 25.457031 -34.40625 28.671875 -33.664062 31.578125 -32.1875 C 34.484375 -30.707031 36.800781 -28.65625 38.53125 -26.03125 C 40.257812 -23.40625 41.125 -20.332031 41.125 -16.8125 C 41.125 -13.25 40.269531 -10.15625 38.5625 -7.53125 C 36.863281 -4.90625 34.5625 -2.878906 31.65625 -1.453125 C 28.75 -0.0234375 25.507812 0.6875 21.9375 0.6875 C 18.375 0.6875 15.125 -0.0234375 12.1875 -1.453125 C 9.257812 -2.878906 6.941406 -4.90625 5.234375 -7.53125 C 3.523438 -10.15625 2.671875 -13.25 2.671875 -16.8125 C 2.671875 -20.332031 3.535156 -23.40625 5.265625 -26.03125 C 7.003906 -28.65625 9.335938 -30.707031 12.265625 -32.1875 C 15.203125 -33.664062 18.425781 -34.40625 21.9375 -34.40625 Z M 21.9375 -34.40625 "/></g></g><g style="fill:#121212;fill-opacity:1;"><g transform="translate(196.464445, 198.46774)"><path style="stroke:none" d="M 21.9375 -7.953125 C 23.976562 -7.953125 25.554688 -8.382812 26.671875 -9.25 C 27.796875 -10.113281 28.585938 -11.222656 29.046875 -12.578125 C 29.503906 -13.929688 29.734375 -15.320312 29.734375 -16.75 C 29.734375 -18.175781 29.488281 -19.550781 29 -20.875 C 28.519531 -22.195312 27.71875 -23.289062 26.59375 -24.15625 C 25.476562 -25.019531 23.925781 -25.453125 21.9375 -25.453125 C 19.945312 -25.453125 18.378906 -25.019531 17.234375 -24.15625 C 16.085938 -23.289062 15.269531 -22.195312 14.78125 -20.875 C 14.300781 -19.550781 14.0625 -18.175781 14.0625 -16.75 C 14.0625 -15.320312 14.289062 -13.929688 14.75 -12.578125 C 15.207031 -11.222656 16.007812 -10.113281 17.15625 -9.25 C 18.3125 -8.382812 19.90625 -7.953125 21.9375 -7.953125 Z M 21.9375 -34.40625 C 25.457031 -34.40625 28.671875 -33.664062 31.578125 -32.1875 C 34.484375 -30.707031 36.800781 -28.65625 38.53125 -26.03125 C 40.257812 -23.40625 41.125 -20.332031 41.125 -16.8125 C 41.125 -13.25 40.269531 -10.15625 38.5625 -7.53125 C 36.863281 -4.90625 34.5625 -2.878906 31.65625 -1.453125 C 28.75 -0.0234375 25.507812 0.6875 21.9375 0.6875 C 18.375 0.6875 15.125 -0.0234375 12.1875 -1.453125 C 9.257812 -2.878906 6.941406 -4.90625 5.234375 -7.53125 C 3.523438 -10.15625 2.671875 -13.25 2.671875 -16.8125 C 2.671875 -20.332031 3.535156 -23.40625 5.265625 -26.03125 C 7.003906 -28.65625 9.335938 -30.707031 12.265625 -32.1875 C 15.203125 -33.664062 18.425781 -34.40625 21.9375 -34.40625 Z M 21.9375 -34.40625 "/></g></g><g style="fill:#121212;fill-opacity:1;"><g transform="translate(239.118529, 198.46774)"><path style="stroke:none" d="M 30.96875 -16.8125 C 30.96875 -18.289062 30.609375 -19.664062 29.890625 -20.9375 C 29.179688 -22.21875 28.226562 -23.253906 27.03125 -24.046875 C 25.832031 -24.835938 24.46875 -25.234375 22.9375 -25.234375 C 21.40625 -25.234375 20.039062 -24.835938 18.84375 -24.046875 C 17.644531 -23.253906 16.6875 -22.21875 15.96875 -20.9375 C 15.257812 -19.664062 14.90625 -18.289062 14.90625 -16.8125 C 14.90625 -15.34375 15.257812 -13.96875 15.96875 -12.6875 C 16.6875 -11.414062 17.644531 -10.382812 18.84375 -9.59375 C 20.039062 -8.800781 21.40625 -8.40625 22.9375 -8.40625 C 24.46875 -8.40625 25.832031 -8.800781 27.03125 -9.59375 C 28.226562 -10.382812 29.179688 -11.414062 29.890625 -12.6875 C 30.609375 -13.96875 30.96875 -15.34375 30.96875 -16.8125 Z M 42.4375 -57.34375 L 42.4375 0 L 30.96875 0 L 30.96875 -4.046875 C 29.84375 -2.316406 28.171875 -1.082031 25.953125 -0.34375 C 23.734375 0.394531 21.554688 0.765625 19.421875 0.765625 C 16.253906 0.765625 13.394531 -0.046875 10.84375 -1.671875 C 8.300781 -3.304688 6.300781 -5.460938 4.84375 -8.140625 C 3.394531 -10.816406 2.671875 -13.707031 2.671875 -16.8125 C 2.671875 -19.925781 3.394531 -22.820312 4.84375 -25.5 C 6.300781 -28.175781 8.300781 -30.34375 10.84375 -32 C 13.394531 -33.65625 16.253906 -34.484375 19.421875 -34.484375 C 21.554688 -34.484375 23.644531 -34.125 25.6875 -33.40625 C 27.726562 -32.695312 29.488281 -31.425781 30.96875 -29.59375 L 30.96875 -57.34375 Z M 42.4375 -57.34375 "/></g></g><g style="fill:#121212;fill-opacity:1;"><g transform="translate(284.990043, 198.46774)"><path style="stroke:none" d=""/></g></g><g transform="matrix(1,0,0,1,232,163)"><g clip-path="url(#c04e8fcb0b)"><g style="fill:#f4ece5;fill-opacity:1;"><g transform="translate(0.711791, 54.184414)"><path style="stroke:none" d="M 25.328125 -6.296875 L 12.03125 -6.296875 L 9.90625 0 L 0.8125 0 L 13.703125 -35.640625 L 23.765625 -35.640625 L 36.65625 0 L 27.46875 0 Z M 23.09375 -13 L 18.6875 -26.046875 L 14.3125 -13 Z M 23.09375 -13 "/></g></g><g style="fill:#f4ece5;fill-opacity:1;"><g transform="translate(38.11897, 54.184414)"><path style="stroke:none" d="M 7.515625 -31.265625 C 5.992188 -31.265625 4.75 -31.710938 3.78125 -32.609375 C 2.8125 -33.515625 2.328125 -34.625 2.328125 -35.9375 C 2.328125 -37.289062 2.8125 -38.414062 3.78125 -39.3125 C 4.75 -40.207031 5.992188 -40.65625 7.515625 -40.65625 C 9.003906 -40.65625 10.226562 -40.207031 11.1875 -39.3125 C 12.15625 -38.414062 12.640625 -37.289062 12.640625 -35.9375 C 12.640625 -34.625 12.15625 -33.515625 11.1875 -32.609375 C 10.226562 -31.710938 9.003906 -31.265625 7.515625 -31.265625 Z M 11.828125 -28.328125 L 11.828125 0 L 3.140625 0 L 3.140625 -28.328125 Z M 11.828125 -28.328125 "/></g></g></g></g><g style="fill:#121212;fill-opacity:1;"><g transform="translate(206.150997, 224.422368)"><path style="stroke:none" d="M 2.5625 -5.265625 C 2.738281 -5.554688 2.988281 -5.785156 3.3125 -5.953125 C 3.644531 -6.128906 4.023438 -6.21875 4.453125 -6.21875 C 4.960938 -6.21875 5.421875 -6.085938 5.828125 -5.828125 C 6.242188 -5.578125 6.566406 -5.210938 6.796875 -4.734375 C 7.035156 -4.265625 7.15625 -3.710938 7.15625 -3.078125 C 7.15625 -2.453125 7.035156 -1.894531 6.796875 -1.40625 C 6.566406 -0.925781 6.242188 -0.554688 5.828125 -0.296875 C 5.421875 -0.0351562 4.960938 0.09375 4.453125 0.09375 C 4.023438 0.09375 3.648438 0.0078125 3.328125 -0.15625 C 3.003906 -0.332031 2.75 -0.566406 2.5625 -0.859375 L 2.5625 0 L 0.6875 0 L 0.6875 -8.140625 L 2.5625 -8.140625 Z M 5.25 -3.078125 C 5.25 -3.546875 5.117188 -3.914062 4.859375 -4.1875 C 4.597656 -4.457031 4.273438 -4.59375 3.890625 -4.59375 C 3.515625 -4.59375 3.195312 -4.453125 2.9375 -4.171875 C 2.675781 -3.898438 2.546875 -3.53125 2.546875 -3.0625 C 2.546875 -2.59375 2.675781 -2.222656 2.9375 -1.953125 C 3.195312 -1.679688 3.515625 -1.546875 3.890625 -1.546875 C 4.265625 -1.546875 4.582031 -1.679688 4.84375 -1.953125 C 5.113281 -2.234375 5.25 -2.609375 5.25 -3.078125 Z M 5.25 -3.078125 "/></g></g><g style="fill:#121212;fill-opacity:1;"><g transform="translate(213.614719, 224.422368)"><path style="stroke:none" d="M 6.46875 -3.171875 C 6.46875 -2.992188 6.457031 -2.8125 6.4375 -2.625 L 2.171875 -2.625 C 2.203125 -2.238281 2.328125 -1.941406 2.546875 -1.734375 C 2.765625 -1.535156 3.03125 -1.4375 3.34375 -1.4375 C 3.8125 -1.4375 4.140625 -1.632812 4.328125 -2.03125 L 6.328125 -2.03125 C 6.222656 -1.632812 6.035156 -1.273438 5.765625 -0.953125 C 5.503906 -0.628906 5.171875 -0.375 4.765625 -0.1875 C 4.359375 0 3.90625 0.09375 3.40625 0.09375 C 2.8125 0.09375 2.273438 -0.0351562 1.796875 -0.296875 C 1.328125 -0.554688 0.960938 -0.921875 0.703125 -1.390625 C 0.441406 -1.867188 0.3125 -2.425781 0.3125 -3.0625 C 0.3125 -3.707031 0.441406 -4.265625 0.703125 -4.734375 C 0.960938 -5.210938 1.328125 -5.578125 1.796875 -5.828125 C 2.265625 -6.085938 2.800781 -6.21875 3.40625 -6.21875 C 4 -6.21875 4.523438 -6.09375 4.984375 -5.84375 C 5.453125 -5.601562 5.816406 -5.25 6.078125 -4.78125 C 6.335938 -4.320312 6.46875 -3.785156 6.46875 -3.171875 Z M 4.546875 -3.65625 C 4.546875 -3.976562 4.4375 -4.234375 4.21875 -4.421875 C 4 -4.617188 3.722656 -4.71875 3.390625 -4.71875 C 3.078125 -4.71875 2.8125 -4.625 2.59375 -4.4375 C 2.375 -4.257812 2.238281 -4 2.1875 -3.65625 Z M 4.546875 -3.65625 "/></g></g><g style="fill:#121212;fill-opacity:1;"><g transform="translate(220.385936, 224.422368)"><path style="stroke:none" d="M 4.109375 -1.59375 L 4.109375 0 L 3.140625 0 C 2.460938 0 1.929688 -0.164062 1.546875 -0.5 C 1.171875 -0.832031 0.984375 -1.378906 0.984375 -2.140625 L 0.984375 -4.578125 L 0.234375 -4.578125 L 0.234375 -6.140625 L 0.984375 -6.140625 L 0.984375 -7.640625 L 2.859375 -7.640625 L 2.859375 -6.140625 L 4.09375 -6.140625 L 4.09375 -4.578125 L 2.859375 -4.578125 L 2.859375 -2.109375 C 2.859375 -1.929688 2.898438 -1.800781 2.984375 -1.71875 C 3.078125 -1.632812 3.226562 -1.59375 3.4375 -1.59375 Z M 4.109375 -1.59375 "/></g></g><g style="fill:#121212;fill-opacity:1;"><g transform="translate(224.848777, 224.422368)"><path style="stroke:none" d="M 4.109375 -1.59375 L 4.109375 0 L 3.140625 0 C 2.460938 0 1.929688 -0.164062 1.546875 -0.5 C 1.171875 -0.832031 0.984375 -1.378906 0.984375 -2.140625 L 0.984375 -4.578125 L 0.234375 -4.578125 L 0.234375 -6.140625 L 0.984375 -6.140625 L 0.984375 -7.640625 L 2.859375 -7.640625 L 2.859375 -6.140625 L 4.09375 -6.140625 L 4.09375 -4.578125 L 2.859375 -4.578125 L 2.859375 -2.109375 C 2.859375 -1.929688 2.898438 -1.800781 2.984375 -1.71875 C 3.078125 -1.632812 3.226562 -1.59375 3.4375 -1.59375 Z M 4.109375 -1.59375 "/></g></g><g style="fill:#121212;fill-opacity:1;"><g transform="translate(229.311617, 224.422368)"><path style="stroke:none" d="M 6.46875 -3.171875 C 6.46875 -2.992188 6.457031 -2.8125 6.4375 -2.625 L 2.171875 -2.625 C 2.203125 -2.238281 2.328125 -1.941406 2.546875 -1.734375 C 2.765625 -1.535156 3.03125 -1.4375 3.34375 -1.4375 C 3.8125 -1.4375 4.140625 -1.632812 4.328125 -2.03125 L 6.328125 -2.03125 C 6.222656 -1.632812 6.035156 -1.273438 5.765625 -0.953125 C 5.503906 -0.628906 5.171875 -0.375 4.765625 -0.1875 C 4.359375 0 3.90625 0.09375 3.40625 0.09375 C 2.8125 0.09375 2.273438 -0.0351562 1.796875 -0.296875 C 1.328125 -0.554688 0.960938 -0.921875 0.703125 -1.390625 C 0.441406 -1.867188 0.3125 -2.425781 0.3125 -3.0625 C 0.3125 -3.707031 0.441406 -4.265625 0.703125 -4.734375 C 0.960938 -5.210938 1.328125 -5.578125 1.796875 -5.828125 C 2.265625 -6.085938 2.800781 -6.21875 3.40625 -6.21875 C 4 -6.21875 4.523438 -6.09375 4.984375 -5.84375 C 5.453125 -5.601562 5.816406 -5.25 6.078125 -4.78125 C 6.335938 -4.320312 6.46875 -3.785156 6.46875 -3.171875 Z M 4.546875 -3.65625 C 4.546875 -3.976562 4.4375 -4.234375 4.21875 -4.421875 C 4 -4.617188 3.722656 -4.71875 3.390625 -4.71875 C 3.078125 -4.71875 2.8125 -4.625 2.59375 -4.4375 C 2.375 -4.257812 2.238281 -4 2.1875 -3.65625 Z M 4.546875 -3.65625 "/></g></g><g style="fill:#121212;fill-opacity:1;"><g transform="translate(236.082834, 224.422368)"><path style="stroke:none" d="M 2.5625 -5.109375 C 2.78125 -5.453125 3.054688 -5.71875 3.390625 -5.90625 C 3.722656 -6.101562 4.085938 -6.203125 4.484375 -6.203125 L 4.484375 -4.21875 L 3.96875 -4.21875 C 3.5 -4.21875 3.144531 -4.113281 2.90625 -3.90625 C 2.675781 -3.707031 2.5625 -3.351562 2.5625 -2.84375 L 2.5625 0 L 0.6875 0 L 0.6875 -6.140625 L 2.5625 -6.140625 Z M 2.5625 -5.109375 "/></g></g><g style="fill:#121212;fill-opacity:1;"><g transform="translate(240.787511, 224.422368)"><path style="stroke:none" d=""/></g></g><g style="fill:#121212;fill-opacity:1;"><g transform="translate(243.11786, 224.422368)"><path style="stroke:none" d="M 2.5625 -5.265625 C 2.75 -5.554688 3.003906 -5.785156 3.328125 -5.953125 C 3.648438 -6.128906 4.023438 -6.21875 4.453125 -6.21875 C 4.960938 -6.21875 5.421875 -6.085938 5.828125 -5.828125 C 6.242188 -5.578125 6.566406 -5.210938 6.796875 -4.734375 C 7.035156 -4.265625 7.15625 -3.710938 7.15625 -3.078125 C 7.15625 -2.453125 7.035156 -1.894531 6.796875 -1.40625 C 6.566406 -0.925781 6.242188 -0.554688 5.828125 -0.296875 C 5.421875 -0.0351562 4.960938 0.09375 4.453125 0.09375 C 4.023438 0.09375 3.648438 0.00390625 3.328125 -0.171875 C 3.003906 -0.347656 2.75 -0.578125 2.5625 -0.859375 L 2.5625 2.921875 L 0.6875 2.921875 L 0.6875 -6.140625 L 2.5625 -6.140625 Z M 5.25 -3.078125 C 5.25 -3.546875 5.117188 -3.914062 4.859375 -4.1875 C 4.597656 -4.457031 4.273438 -4.59375 3.890625 -4.59375 C 3.515625 -4.59375 3.195312 -4.453125 2.9375 -4.171875 C 2.675781 -3.898438 2.546875 -3.53125 2.546875 -3.0625 C 2.546875 -2.59375 2.675781 -2.222656 2.9375 -1.953125 C 3.195312 -1.679688 3.515625 -1.546875 3.890625 -1.546875 C 4.265625 -1.546875 4.582031 -1.679688 4.84375 -1.953125 C 5.113281 -2.234375 5.25 -2.609375 5.25 -3.078125 Z M 5.25 -3.078125 "/></g></g><g style="fill:#121212;fill-opacity:1;"><g transform="translate(250.581582, 224.422368)"><path style="stroke:none" d="M 6.46875 -3.171875 C 6.46875 -2.992188 6.457031 -2.8125 6.4375 -2.625 L 2.171875 -2.625 C 2.203125 -2.238281 2.328125 -1.941406 2.546875 -1.734375 C 2.765625 -1.535156 3.03125 -1.4375 3.34375 -1.4375 C 3.8125 -1.4375 4.140625 -1.632812 4.328125 -2.03125 L 6.328125 -2.03125 C 6.222656 -1.632812 6.035156 -1.273438 5.765625 -0.953125 C 5.503906 -0.628906 5.171875 -0.375 4.765625 -0.1875 C 4.359375 0 3.90625 0.09375 3.40625 0.09375 C 2.8125 0.09375 2.273438 -0.0351562 1.796875 -0.296875 C 1.328125 -0.554688 0.960938 -0.921875 0.703125 -1.390625 C 0.441406 -1.867188 0.3125 -2.425781 0.3125 -3.0625 C 0.3125 -3.707031 0.441406 -4.265625 0.703125 -4.734375 C 0.960938 -5.210938 1.328125 -5.578125 1.796875 -5.828125 C 2.265625 -6.085938 2.800781 -6.21875 3.40625 -6.21875 C 4 -6.21875 4.523438 -6.09375 4.984375 -5.84375 C 5.453125 -5.601562 5.816406 -5.25 6.078125 -4.78125 C 6.335938 -4.320312 6.46875 -3.785156 6.46875 -3.171875 Z M 4.546875 -3.65625 C 4.546875 -3.976562 4.4375 -4.234375 4.21875 -4.421875 C 4 -4.617188 3.722656 -4.71875 3.390625 -4.71875 C 3.078125 -4.71875 2.8125 -4.625 2.59375 -4.4375 C 2.375 -4.257812 2.238281 -4 2.1875 -3.65625 Z M 4.546875 -3.65625 "/></g></g><g style="fill:#121212;fill-opacity:1;"><g transform="translate(257.352799, 224.422368)"><path style="stroke:none" d="M 3.46875 0.09375 C 2.875 0.09375 2.335938 -0.0351562 1.859375 -0.296875 C 1.378906 -0.554688 1 -0.921875 0.71875 -1.390625 C 0.445312 -1.867188 0.3125 -2.425781 0.3125 -3.0625 C 0.3125 -3.695312 0.445312 -4.253906 0.71875 -4.734375 C 1 -5.210938 1.378906 -5.578125 1.859375 -5.828125 C 2.347656 -6.085938 2.894531 -6.21875 3.5 -6.21875 C 4.101562 -6.21875 4.644531 -6.085938 5.125 -5.828125 C 5.613281 -5.578125 5.992188 -5.210938 6.265625 -4.734375 C 6.546875 -4.253906 6.6875 -3.695312 6.6875 -3.0625 C 6.6875 -2.4375 6.546875 -1.882812 6.265625 -1.40625 C 5.984375 -0.925781 5.597656 -0.554688 5.109375 -0.296875 C 4.617188 -0.0351562 4.070312 0.09375 3.46875 0.09375 Z M 3.46875 -1.546875 C 3.832031 -1.546875 4.140625 -1.675781 4.390625 -1.9375 C 4.648438 -2.195312 4.78125 -2.570312 4.78125 -3.0625 C 4.78125 -3.5625 4.65625 -3.941406 4.40625 -4.203125 C 4.15625 -4.460938 3.851562 -4.59375 3.5 -4.59375 C 3.132812 -4.59375 2.828125 -4.460938 2.578125 -4.203125 C 2.335938 -3.941406 2.21875 -3.5625 2.21875 -3.0625 C 2.21875 -2.570312 2.335938 -2.195312 2.578125 -1.9375 C 2.816406 -1.675781 3.113281 -1.546875 3.46875 -1.546875 Z M 3.46875 -1.546875 "/></g></g><g style="fill:#121212;fill-opacity:1;"><g transform="translate(264.354843, 224.422368)"><path style="stroke:none" d="M 2.5625 -5.265625 C 2.75 -5.554688 3.003906 -5.785156 3.328125 -5.953125 C 3.648438 -6.128906 4.023438 -6.21875 4.453125 -6.21875 C 4.960938 -6.21875 5.421875 -6.085938 5.828125 -5.828125 C 6.242188 -5.578125 6.566406 -5.210938 6.796875 -4.734375 C 7.035156 -4.265625 7.15625 -3.710938 7.15625 -3.078125 C 7.15625 -2.453125 7.035156 -1.894531 6.796875 -1.40625 C 6.566406 -0.925781 6.242188 -0.554688 5.828125 -0.296875 C 5.421875 -0.0351562 4.960938 0.09375 4.453125 0.09375 C 4.023438 0.09375 3.648438 0.00390625 3.328125 -0.171875 C 3.003906 -0.347656 2.75 -0.578125 2.5625 -0.859375 L 2.5625 2.921875 L 0.6875 2.921875 L 0.6875 -6.140625 L 2.5625 -6.140625 Z M 5.25 -3.078125 C 5.25 -3.546875 5.117188 -3.914062 4.859375 -4.1875 C 4.597656 -4.457031 4.273438 -4.59375 3.890625 -4.59375 C 3.515625 -4.59375 3.195312 -4.453125 2.9375 -4.171875 C 2.675781 -3.898438 2.546875 -3.53125 2.546875 -3.0625 C 2.546875 -2.59375 2.675781 -2.222656 2.9375 -1.953125 C 3.195312 -1.679688 3.515625 -1.546875 3.890625 -1.546875 C 4.265625 -1.546875 4.582031 -1.679688 4.84375 -1.953125 C 5.113281 -2.234375 5.25 -2.609375 5.25 -3.078125 Z M 5.25 -3.078125 "/></g></g><g style="fill:#121212;fill-opacity:1;"><g transform="translate(271.818565, 224.422368)"><path style="stroke:none" d="M 2.5625 -8.140625 L 2.5625 0 L 0.6875 0 L 0.6875 -8.140625 Z M 2.5625 -8.140625 "/></g></g><g style="fill:#121212;fill-opacity:1;"><g transform="translate(275.061271, 224.422368)"><path style="stroke:none" d="M 6.46875 -3.171875 C 6.46875 -2.992188 6.457031 -2.8125 6.4375 -2.625 L 2.171875 -2.625 C 2.203125 -2.238281 2.328125 -1.941406 2.546875 -1.734375 C 2.765625 -1.535156 3.03125 -1.4375 3.34375 -1.4375 C 3.8125 -1.4375 4.140625 -1.632812 4.328125 -2.03125 L 6.328125 -2.03125 C 6.222656 -1.632812 6.035156 -1.273438 5.765625 -0.953125 C 5.503906 -0.628906 5.171875 -0.375 4.765625 -0.1875 C 4.359375 0 3.90625 0.09375 3.40625 0.09375 C 2.8125 0.09375 2.273438 -0.0351562 1.796875 -0.296875 C 1.328125 -0.554688 0.960938 -0.921875 0.703125 -1.390625 C 0.441406 -1.867188 0.3125 -2.425781 0.3125 -3.0625 C 0.3125 -3.707031 0.441406 -4.265625 0.703125 -4.734375 C 0.960938 -5.210938 1.328125 -5.578125 1.796875 -5.828125 C 2.265625 -6.085938 2.800781 -6.21875 3.40625 -6.21875 C 4 -6.21875 4.523438 -6.09375 4.984375 -5.84375 C 5.453125 -5.601562 5.816406 -5.25 6.078125 -4.78125 C 6.335938 -4.320312 6.46875 -3.785156 6.46875 -3.171875 Z M 4.546875 -3.65625 C 4.546875 -3.976562 4.4375 -4.234375 4.21875 -4.421875 C 4 -4.617188 3.722656 -4.71875 3.390625 -4.71875 C 3.078125 -4.71875 2.8125 -4.625 2.59375 -4.4375 C 2.375 -4.257812 2.238281 -4 2.1875 -3.65625 Z M 4.546875 -3.65625 "/></g></g><g style="fill:#121212;fill-opacity:1;"><g transform="translate(89.884319, 198.03819)"><path style="stroke:none" d="M 32.984375 -45.34375 C 30.015625 -45.34375 27.289062 -44.546875 24.8125 -42.953125 C 22.34375 -41.359375 20.363281 -39.242188 18.875 -36.609375 C 17.394531 -33.972656 16.65625 -31.0625 16.65625 -27.875 C 16.65625 -24.738281 17.394531 -21.835938 18.875 -19.171875 C 20.363281 -16.503906 22.34375 -14.375 24.8125 -12.78125 C 27.289062 -11.1875 30.015625 -10.390625 32.984375 -10.390625 C 34.796875 -10.390625 36.703125 -10.648438 38.703125 -11.171875 C 40.710938 -11.691406 42.582031 -12.691406 44.3125 -14.171875 C 46.050781 -15.660156 47.414062 -17.804688 48.40625 -20.609375 L 34.140625 -20.609375 L 34.140625 -29.9375 L 61.75 -29.9375 L 61.75 -28.03125 C 61.75 -24.070312 61.007812 -20.347656 59.53125 -16.859375 C 58.050781 -13.367188 55.988281 -10.289062 53.34375 -7.625 C 50.707031 -4.957031 47.65625 -2.878906 44.1875 -1.390625 C 40.726562 0.0859375 36.992188 0.828125 32.984375 0.828125 C 29.023438 0.828125 25.300781 0.0703125 21.8125 -1.4375 C 18.320312 -2.945312 15.253906 -5.019531 12.609375 -7.65625 C 9.972656 -10.300781 7.898438 -13.367188 6.390625 -16.859375 C 4.878906 -20.347656 4.125 -24.070312 4.125 -28.03125 C 4.125 -31.988281 4.878906 -35.710938 6.390625 -39.203125 C 7.898438 -42.691406 9.972656 -45.753906 12.609375 -48.390625 C 15.253906 -51.035156 18.320312 -53.113281 21.8125 -54.625 C 25.300781 -56.132812 29.023438 -56.890625 32.984375 -56.890625 C 37.109375 -56.890625 41.007812 -56.050781 44.6875 -54.375 C 48.375 -52.695312 51.585938 -50.390625 54.328125 -47.453125 C 57.078125 -44.515625 59.085938 -41.09375 60.359375 -37.1875 L 46.75 -37.1875 C 45.375 -40.15625 43.421875 -42.253906 40.890625 -43.484375 C 38.367188 -44.722656 35.734375 -45.34375 32.984375 -45.34375 Z M 32.984375 -45.34375 "/></g></g></g></svg>