<svg xmlns="http://www.w3.org/2000/svg" xmlns:xlink="http://www.w3.org/1999/xlink" width="500" zoomAndPan="magnify" viewBox="0 0 375 374.999991" height="500" preserveAspectRatio="xMidYMid meet" version="1.0"><defs><g/><clipPath id="e3d6abb822"><path d="M 54 115.570312 L 98 115.570312 L 98 129 L 54 129 Z M 54 115.570312 " clip-rule="nonzero"/></clipPath><clipPath id="95498df4f2"><path d="M 24.800781 118 L 134.300781 118 L 134.300781 225 L 24.800781 225 Z M 24.800781 118 " clip-rule="nonzero"/></clipPath><clipPath id="c047210826"><rect x="0" width="213" y="0" height="130"/></clipPath><clipPath id="1b08ef44bb"><rect x="0" width="76" y="0" height="102"/></clipPath><clipPath id="ed89b7ad9d"><path d="M 98 6 L 107.800781 6 L 107.800781 15 L 98 15 Z M 98 6 " clip-rule="nonzero"/></clipPath><clipPath id="411279d54f"><rect x="0" width="108" y="0" height="22"/></clipPath><clipPath id="d72bc00611"><rect x="0" width="94" y="0" height="140"/></clipPath></defs><path fill="#66c771" d="M 85.894531 125.273438 C 87.710938 123.722656 91.941406 121.101562 96.308594 119.078125 C 91.042969 117.363281 85.417969 116.429688 79.570312 116.429688 C 71.019531 116.429688 62.9375 118.417969 55.753906 121.953125 C 58.742188 123.074219 62.277344 124.570312 64.550781 126.082031 C 69.117188 129.125 82.988281 127.769531 85.894531 125.273438 " fill-opacity="1" fill-rule="nonzero"/><g clip-path="url(#e3d6abb822)"><path stroke-linecap="round" transform="matrix(0.0422406, 0, 0, -0.0421348, -10.232851, 259.755101)" fill="none" stroke-linejoin="round" d="M 2275.712851 3191.698305 C 2318.714324 3228.503515 2418.866142 3290.71081 2522.25463 3338.733729 C 2397.596596 3379.525398 2264.430744 3401.589983 2125.993744 3401.589983 C 1923.563154 3401.589983 1732.229718 3354.401439 1562.165828 3270.500392 C 1632.910187 3243.893099 1716.601226 3208.385806 1770.422424 3172.507679 C 1878.527203 3100.287883 2206.910494 3132.457677 2275.712851 3191.698305 Z M 2275.712851 3191.698305 " stroke="#21203d" stroke-width="40" stroke-opacity="1" stroke-miterlimit="10"/></g><path fill="#97cdef" d="M 116.394531 167.328125 C 116.902344 166.824219 115.230469 167.082031 112.945312 167.863281 C 114.5 168 115.863281 167.859375 116.394531 167.328125 " fill-opacity="1" fill-rule="nonzero"/><path stroke-linecap="round" transform="matrix(0.0422406, 0, 0, -0.0421348, -10.232851, 259.755101)" fill="none" stroke-linejoin="round" d="M 2997.767692 2193.600336 C 3009.78961 2205.559711 2970.209759 2199.440961 2916.111132 2180.899293 C 2952.916694 2177.654501 2985.190917 2180.992002 2997.767692 2193.600336 Z M 2997.767692 2193.600336 " stroke="#21203d" stroke-width="40" stroke-opacity="1" stroke-miterlimit="10"/><path fill="#66c771" d="M 109.152344 139.960938 C 104.019531 142.355469 104.625 145.367188 106.132812 146.871094 C 107.644531 148.375 103.71875 153.195312 103.71875 153.195312 C 103.71875 153.195312 100.378906 158.105469 96.308594 158.105469 C 92.246094 158.105469 90.285156 161.476562 92.851562 164.03125 C 95.417969 166.59375 105.074219 164.183594 106.734375 165.839844 C 107.742188 166.84375 110.566406 167.664062 112.945312 167.863281 C 115.230469 167.082031 116.902344 166.824219 116.394531 167.328125 C 115.863281 167.859375 114.5 168 112.945312 167.863281 C 109.164062 169.15625 103.71875 171.871094 103.71875 174.875 C 103.71875 179.691406 109.824219 188.019531 111.867188 190.0625 C 113.917969 192.101562 115.191406 199.957031 115.191406 199.957031 C 115.191406 199.957031 122.132812 199.53125 123.945312 190.0625 C 125.757812 180.597656 123.640625 173.023438 123.640625 173.023438 C 123.640625 173.023438 128.773438 173.308594 128.773438 170.175781 C 128.773438 170.175781 129.988281 165.289062 133.058594 163.671875 C 131.648438 151.996094 126.480469 141.472656 118.796875 133.34375 C 115.457031 135.980469 111.613281 138.816406 109.152344 139.960938 " fill-opacity="1" fill-rule="nonzero"/><path stroke-linecap="round" transform="matrix(0.0422406, 0, 0, -0.0421348, -10.232851, 259.755101)" fill="none" stroke-linejoin="round" d="M 2826.316658 2843.114953 C 2704.802818 2786.284742 2719.136643 2714.806613 2754.832489 2679.113903 C 2790.620812 2643.421193 2697.682144 2529.019103 2697.682144 2529.019103 C 2697.682144 2529.019103 2618.61492 2412.484722 2522.25463 2412.484722 C 2426.079292 2412.484722 2379.656197 2332.477426 2440.413117 2271.846173 C 2501.170036 2211.029503 2729.771415 2268.230548 2769.073837 2228.922212 C 2792.932719 2205.096169 2859.793074 2185.627418 2916.111132 2180.899293 C 2970.209759 2199.440961 3009.78961 2205.559711 2997.767692 2193.600336 C 2985.190917 2180.992002 2952.916694 2177.654501 2916.111132 2180.899293 C 2826.594087 2150.212833 2697.682144 2085.780538 2697.682144 2014.487826 C 2697.682144 1900.178445 2842.222579 1702.524268 2890.587677 1654.037807 C 2939.137727 1605.644054 2969.284996 1419.207586 2969.284996 1419.207586 C 2969.284996 1419.207586 3133.615357 1429.312795 3176.524353 1654.037807 C 3219.43335 1878.670111 3169.311203 2058.431578 3169.311203 2058.431578 C 3169.311203 2058.431578 3290.825043 2051.66387 3290.825043 2126.015957 C 3290.825043 2126.015957 3319.585168 2241.994088 3392.271529 2280.37534 C 3358.887589 2557.480563 3236.541463 2807.236826 3054.640608 3000.162878 C 2975.573384 2937.58475 2884.576718 2870.278496 2826.316658 2843.114953 Z M 2826.316658 2843.114953 " stroke="#21203d" stroke-width="40" stroke-opacity="1" stroke-miterlimit="10"/><path fill="#97cdef" d="M 128.773438 170.175781 C 128.773438 173.308594 123.640625 173.023438 123.640625 173.023438 C 123.640625 173.023438 125.757812 180.597656 123.945312 190.0625 C 122.132812 199.53125 115.191406 199.957031 115.191406 199.957031 C 115.191406 199.957031 113.917969 192.101562 111.867188 190.0625 C 109.824219 188.019531 103.71875 179.691406 103.71875 174.875 C 103.71875 171.871094 109.164062 169.15625 112.945312 167.863281 C 110.566406 167.664062 107.742188 166.84375 106.734375 165.839844 C 105.074219 164.183594 95.417969 166.59375 92.851562 164.03125 C 90.285156 161.476562 92.246094 158.105469 96.308594 158.105469 C 100.378906 158.105469 103.71875 153.195312 103.71875 153.195312 C 103.71875 153.195312 107.644531 148.375 106.132812 146.871094 C 104.625 145.367188 104.019531 142.355469 109.152344 139.960938 C 111.613281 138.816406 115.457031 135.980469 118.796875 133.34375 C 112.6875 126.867188 104.988281 121.90625 96.308594 119.078125 C 91.941406 121.101562 87.710938 123.722656 85.894531 125.273438 C 82.988281 127.769531 69.117188 129.125 64.550781 126.082031 C 62.277344 124.570312 58.742188 123.074219 55.753906 121.953125 C 37.941406 130.726562 25.6875 149.019531 25.6875 170.175781 C 25.6875 199.859375 49.8125 223.925781 79.570312 223.925781 C 109.328125 223.925781 133.453125 199.859375 133.453125 170.175781 C 133.453125 167.976562 133.316406 165.804688 133.058594 163.671875 C 129.988281 165.289062 128.773438 170.175781 128.773438 170.175781 " fill-opacity="1" fill-rule="nonzero"/><g clip-path="url(#95498df4f2)"><path stroke-linecap="round" transform="matrix(0.0422406, 0, 0, -0.0421348, -10.232851, 259.755101)" fill="none" stroke-linejoin="round" d="M 3290.825043 2126.015957 C 3290.825043 2051.66387 3169.311203 2058.431578 3169.311203 2058.431578 C 3169.311203 2058.431578 3219.43335 1878.670111 3176.524353 1654.037807 C 3133.615357 1429.312795 2969.284996 1419.207586 2969.284996 1419.207586 C 2969.284996 1419.207586 2939.137727 1605.644054 2890.587677 1654.037807 C 2842.222579 1702.524268 2697.682144 1900.178445 2697.682144 2014.487826 C 2697.682144 2085.780538 2826.594087 2150.212833 2916.111132 2180.899293 C 2859.793074 2185.627418 2792.932719 2205.096169 2769.073837 2228.922212 C 2729.771415 2268.230548 2501.170036 2211.029503 2440.413117 2271.753465 C 2379.656197 2332.477426 2426.079292 2412.484722 2522.25463 2412.484722 C 2618.61492 2412.484722 2697.682144 2529.019103 2697.682144 2529.019103 C 2697.682144 2529.019103 2790.620812 2643.421193 2754.832489 2679.113903 C 2719.136643 2714.806613 2704.802818 2786.284742 2826.316658 2843.114953 C 2884.576718 2870.278496 2975.573384 2937.58475 3054.640608 3000.162878 C 2910.007697 3153.873303 2727.736937 3271.612893 2522.25463 3338.733729 C 2418.866142 3290.71081 2318.714324 3228.503515 2275.712851 3191.698305 C 2206.910494 3132.457677 1878.527203 3100.287883 1770.422424 3172.507679 C 1716.601226 3208.385806 1632.910187 3243.893099 1562.165828 3270.500392 C 1140.473964 3062.277465 850.375855 2628.124317 850.375855 2126.015957 C 850.375855 1421.525295 1421.509397 850.441931 2125.993744 850.441931 C 2830.478091 850.441931 3401.611633 1421.525295 3401.611633 2126.015957 C 3401.611633 2178.210751 3398.374963 2229.756587 3392.271529 2280.37534 C 3319.585168 2241.994088 3290.825043 2126.015957 3290.825043 2126.015957 Z M 3290.825043 2126.015957 " stroke="#21203d" stroke-width="40" stroke-opacity="1" stroke-miterlimit="10"/></g><path fill="#66c771" d="M 66.027344 181.96875 C 65.878906 181.941406 60.144531 185.015625 60.007812 184.996094 C 61.011719 180.625 49.265625 177.472656 51 170.175781 C 51.761719 168.878906 64.738281 170.59375 65.21875 168.34375 C 66.886719 160.554688 49.390625 157.492188 51.734375 146.539062 C 53.761719 137.058594 26.152344 153.988281 29.4375 159.035156 C 34.433594 166.722656 36.960938 164.597656 41.894531 167.921875 C 39.398438 172.179688 39.917969 178.878906 43.609375 176.492188 C 47.527344 173.960938 55.890625 182.414062 57.582031 188.417969 C 58.1875 192.035156 66.464844 199.332031 61.929688 201.128906 C 53.109375 204.621094 60.957031 210.023438 61.960938 218.671875 C 63.050781 228.074219 65.078125 207.652344 73.523438 203.332031 C 83.195312 198.382812 75.308594 183.945312 66.027344 181.96875 " fill-opacity="1" fill-rule="nonzero"/><path stroke-linecap="round" transform="matrix(0.0422406, 0, 0, -0.0421348, -10.232851, 259.755101)" fill="none" stroke-linejoin="round" d="M 1805.37846 1846.129484 C 1801.864361 1846.778442 1666.109174 1773.81698 1662.872504 1774.280522 C 1686.638909 1878.021152 1408.562717 1952.836781 1449.622188 2126.015957 C 1467.655064 2156.795125 1774.861286 2116.096165 1786.235869 2169.496168 C 1825.723243 2354.356594 1411.521958 2427.039931 1467.00773 2686.994112 C 1515.002922 2911.997248 861.380533 2510.199311 939.153089 2390.420138 C 1057.430259 2207.970128 1117.262416 2258.403464 1234.059965 2179.508668 C 1174.967618 2078.456579 1187.266965 1919.461779 1274.657055 1976.106574 C 1367.41077 2036.181577 1565.402498 1835.560733 1605.44473 1693.068017 C 1619.778554 1607.220096 1815.735804 1434.04092 1708.370836 1391.395085 C 1499.559382 1308.51383 1685.344241 1180.298199 1709.110647 975.041938 C 1734.91153 751.892968 1782.906723 1236.57216 1982.840453 1339.107582 C 2211.811737 1456.569047 2025.102116 1799.219065 1805.37846 1846.129484 Z M 1805.37846 1846.129484 " stroke="#21203d" stroke-width="40" stroke-opacity="1" stroke-miterlimit="10"/><path stroke-linecap="round" transform="matrix(0.0422406, 0, 0, -0.0421348, -10.232851, 259.755101)" fill="none" stroke-linejoin="round" d="M 2210.424593 928.59506 C 2210.424593 928.59506 2565.441055 958.632562 2743.735335 1101.866944 " stroke="#21203d" stroke-width="40" stroke-opacity="1" stroke-miterlimit="10"/><path stroke-linecap="round" transform="matrix(0.0422406, 0, 0, -0.0421348, -10.232851, 259.755101)" fill="none" stroke-linejoin="round" d="M 2812.907597 1158.604447 L 2865.434127 1211.077367 " stroke="#21203d" stroke-width="40" stroke-opacity="1" stroke-miterlimit="10"/><path stroke-linecap="round" transform="matrix(0.0422406, 0, 0, -0.0421348, -10.232851, 259.755101)" fill="none" stroke-linejoin="round" d="M 1927.909539 3196.055597 C 1927.909539 3196.055597 2052.937478 3186.135805 2152.904343 3211.074348 " stroke="#21203d" stroke-width="40" stroke-opacity="1" stroke-miterlimit="10"/><path stroke-linecap="round" transform="matrix(0.0422406, 0, 0, -0.0421348, -10.232851, 259.755101)" fill="none" stroke-linejoin="round" d="M 2222.908892 3243.614974 C 2222.908892 3243.614974 2263.505981 3250.660808 2279.134474 3266.328517 " stroke="#21203d" stroke-width="40" stroke-opacity="1" stroke-miterlimit="10"/><path stroke-linecap="round" transform="matrix(0.0422406, 0, 0, -0.0421348, -10.232851, 259.755101)" fill="none" stroke-linejoin="round" d="M 2883.744432 2578.618064 C 2883.744432 2578.618064 2990.36959 2551.918063 3070.361577 2435.290973 " stroke="#21203d" stroke-width="40" stroke-opacity="1" stroke-miterlimit="10"/><path stroke-linecap="round" transform="matrix(0.0422406, 0, 0, -0.0421348, -10.232851, 259.755101)" fill="none" stroke-linejoin="round" d="M 3160.43348 2338.596177 L 3203.712381 2291.871174 " stroke="#21203d" stroke-width="40" stroke-opacity="1" stroke-miterlimit="10"/><path stroke-linecap="round" transform="matrix(0.0422406, 0, 0, -0.0421348, -10.232851, 259.755101)" fill="none" stroke-linejoin="round" d="M 1365.931149 2650.930568 C 1365.931149 2650.930568 1357.238378 2524.939936 1397.28061 2506.30556 " stroke="#21203d" stroke-width="40" stroke-opacity="1" stroke-miterlimit="10"/><path stroke-linecap="round" transform="matrix(0.0422406, 0, 0, -0.0421348, -10.232851, 259.755101)" fill="none" stroke-linejoin="round" d="M 1435.658269 2455.594099 L 1463.586107 2399.598263 " stroke="#21203d" stroke-width="40" stroke-opacity="1" stroke-miterlimit="10"/><g transform="matrix(1, 0, 0, 1, 123, 110)"><g clip-path="url(#c047210826)"><g fill="#f4ece5" fill-opacity="1"><g transform="translate(1.080108, 102.208741)"><g><path d="M 30.9375 -11.203125 C 33.8125 -11.203125 36.039062 -11.8125 37.625 -13.03125 C 39.207031 -14.257812 40.320312 -15.828125 40.96875 -17.734375 C 41.613281 -19.640625 41.9375 -21.597656 41.9375 -23.609375 C 41.9375 -25.617188 41.59375 -27.554688 40.90625 -29.421875 C 40.226562 -31.296875 39.097656 -32.84375 37.515625 -34.0625 C 35.929688 -35.28125 33.738281 -35.890625 30.9375 -35.890625 C 28.132812 -35.890625 25.921875 -35.28125 24.296875 -34.0625 C 22.679688 -32.84375 21.53125 -31.296875 20.84375 -29.421875 C 20.164062 -27.554688 19.828125 -25.617188 19.828125 -23.609375 C 19.828125 -21.597656 20.148438 -19.640625 20.796875 -17.734375 C 21.453125 -15.828125 22.585938 -14.257812 24.203125 -13.03125 C 25.816406 -11.8125 28.0625 -11.203125 30.9375 -11.203125 Z M 30.9375 -48.515625 C 35.894531 -48.515625 40.421875 -47.46875 44.515625 -45.375 C 48.617188 -43.289062 51.890625 -40.398438 54.328125 -36.703125 C 56.773438 -33.003906 58 -28.675781 58 -23.71875 C 58 -18.6875 56.789062 -14.316406 54.375 -10.609375 C 51.96875 -6.910156 48.71875 -4.054688 44.625 -2.046875 C 40.53125 -0.0351562 35.96875 0.96875 30.9375 0.96875 C 25.90625 0.96875 21.320312 -0.0351562 17.1875 -2.046875 C 13.0625 -4.054688 9.789062 -6.910156 7.375 -10.609375 C 4.96875 -14.316406 3.765625 -18.6875 3.765625 -23.71875 C 3.765625 -28.675781 4.988281 -33.003906 7.4375 -36.703125 C 9.882812 -40.398438 13.171875 -43.289062 17.296875 -45.375 C 21.429688 -47.46875 25.976562 -48.515625 30.9375 -48.515625 Z M 30.9375 -48.515625 "/></g></g></g><g fill="#f4ece5" fill-opacity="1"><g transform="translate(61.222829, 102.208741)"><g><path d="M 30.9375 -11.203125 C 33.8125 -11.203125 36.039062 -11.8125 37.625 -13.03125 C 39.207031 -14.257812 40.320312 -15.828125 40.96875 -17.734375 C 41.613281 -19.640625 41.9375 -21.597656 41.9375 -23.609375 C 41.9375 -25.617188 41.59375 -27.554688 40.90625 -29.421875 C 40.226562 -31.296875 39.097656 -32.84375 37.515625 -34.0625 C 35.929688 -35.28125 33.738281 -35.890625 30.9375 -35.890625 C 28.132812 -35.890625 25.921875 -35.28125 24.296875 -34.0625 C 22.679688 -32.84375 21.53125 -31.296875 20.84375 -29.421875 C 20.164062 -27.554688 19.828125 -25.617188 19.828125 -23.609375 C 19.828125 -21.597656 20.148438 -19.640625 20.796875 -17.734375 C 21.453125 -15.828125 22.585938 -14.257812 24.203125 -13.03125 C 25.816406 -11.8125 28.0625 -11.203125 30.9375 -11.203125 Z M 30.9375 -48.515625 C 35.894531 -48.515625 40.421875 -47.46875 44.515625 -45.375 C 48.617188 -43.289062 51.890625 -40.398438 54.328125 -36.703125 C 56.773438 -33.003906 58 -28.675781 58 -23.71875 C 58 -18.6875 56.789062 -14.316406 54.375 -10.609375 C 51.96875 -6.910156 48.71875 -4.054688 44.625 -2.046875 C 40.53125 -0.0351562 35.96875 0.96875 30.9375 0.96875 C 25.90625 0.96875 21.320312 -0.0351562 17.1875 -2.046875 C 13.0625 -4.054688 9.789062 -6.910156 7.375 -10.609375 C 4.96875 -14.316406 3.765625 -18.6875 3.765625 -23.71875 C 3.765625 -28.675781 4.988281 -33.003906 7.4375 -36.703125 C 9.882812 -40.398438 13.171875 -43.289062 17.296875 -45.375 C 21.429688 -47.46875 25.976562 -48.515625 30.9375 -48.515625 Z M 30.9375 -48.515625 "/></g></g></g><g fill="#f4ece5" fill-opacity="1"><g transform="translate(121.365551, 102.208741)"><g><path d="M 43.65625 -23.71875 C 43.65625 -25.800781 43.148438 -27.738281 42.140625 -29.53125 C 41.140625 -31.332031 39.796875 -32.789062 38.109375 -33.90625 C 36.421875 -35.019531 34.5 -35.578125 32.34375 -35.578125 C 30.1875 -35.578125 28.257812 -35.019531 26.5625 -33.90625 C 24.875 -32.789062 23.523438 -31.332031 22.515625 -29.53125 C 21.515625 -27.738281 21.015625 -25.800781 21.015625 -23.71875 C 21.015625 -21.632812 21.515625 -19.691406 22.515625 -17.890625 C 23.523438 -16.097656 24.875 -14.644531 26.5625 -13.53125 C 28.257812 -12.414062 30.1875 -11.859375 32.34375 -11.859375 C 34.5 -11.859375 36.421875 -12.414062 38.109375 -13.53125 C 39.796875 -14.644531 41.140625 -16.097656 42.140625 -17.890625 C 43.148438 -19.691406 43.65625 -21.632812 43.65625 -23.71875 Z M 59.828125 -80.84375 L 59.828125 0 L 43.65625 0 L 43.65625 -5.71875 C 42.070312 -3.269531 39.71875 -1.523438 36.59375 -0.484375 C 33.46875 0.554688 30.394531 1.078125 27.375 1.078125 C 22.925781 1.078125 18.90625 -0.0703125 15.3125 -2.375 C 11.71875 -4.675781 8.894531 -7.710938 6.84375 -11.484375 C 4.789062 -15.253906 3.765625 -19.332031 3.765625 -23.71875 C 3.765625 -28.101562 4.789062 -32.179688 6.84375 -35.953125 C 8.894531 -39.722656 11.71875 -42.773438 15.3125 -45.109375 C 18.90625 -47.441406 22.925781 -48.609375 27.375 -48.609375 C 30.394531 -48.609375 33.34375 -48.101562 36.21875 -47.09375 C 39.09375 -46.09375 41.570312 -44.300781 43.65625 -41.71875 L 43.65625 -80.84375 Z M 59.828125 -80.84375 "/></g></g></g><g fill="#f4ece5" fill-opacity="1"><g transform="translate(186.044883, 102.208741)"><g/></g></g></g></g><g transform="matrix(1, 0, 0, 1, 235, 163)"><g clip-path="url(#1b08ef44bb)"><g fill="#65b891" fill-opacity="1"><g transform="translate(0.331971, 75.599408)"><g><path d="M 35.703125 -8.875 L 16.953125 -8.875 L 13.953125 0 L 1.140625 0 L 19.328125 -50.234375 L 33.484375 -50.234375 L 51.671875 0 L 38.71875 0 Z M 32.5625 -18.3125 L 26.328125 -36.71875 L 20.1875 -18.3125 Z M 32.5625 -18.3125 "/></g></g></g><g fill="#65b891" fill-opacity="1"><g transform="translate(53.076495, 75.599408)"><g><path d="M 10.59375 -44.078125 C 8.445312 -44.078125 6.691406 -44.707031 5.328125 -45.96875 C 3.972656 -47.238281 3.296875 -48.804688 3.296875 -50.671875 C 3.296875 -52.578125 3.972656 -54.160156 5.328125 -55.421875 C 6.691406 -56.691406 8.445312 -57.328125 10.59375 -57.328125 C 12.6875 -57.328125 14.410156 -56.691406 15.765625 -55.421875 C 17.128906 -54.160156 17.8125 -52.578125 17.8125 -50.671875 C 17.8125 -48.804688 17.128906 -47.238281 15.765625 -45.96875 C 14.410156 -44.707031 12.6875 -44.078125 10.59375 -44.078125 Z M 16.671875 -39.9375 L 16.671875 0 L 4.4375 0 L 4.4375 -39.9375 Z M 16.671875 -39.9375 "/></g></g></g></g></g><g transform="matrix(1, 0, 0, 1, 197, 234)"><g clip-path="url(#411279d54f)"><g fill="#f4ece5" fill-opacity="1"><g transform="translate(0.880944, 14.805024)"><g><path d="M 3.609375 -7.421875 C 3.859375 -7.828125 4.210938 -8.148438 4.671875 -8.390625 C 5.140625 -8.640625 5.675781 -8.765625 6.28125 -8.765625 C 6.988281 -8.765625 7.628906 -8.582031 8.203125 -8.21875 C 8.785156 -7.863281 9.242188 -7.347656 9.578125 -6.671875 C 9.921875 -6.003906 10.09375 -5.226562 10.09375 -4.34375 C 10.09375 -3.445312 9.921875 -2.660156 9.578125 -1.984375 C 9.242188 -1.304688 8.785156 -0.785156 8.203125 -0.421875 C 7.628906 -0.0546875 6.988281 0.125 6.28125 0.125 C 5.664062 0.125 5.128906 0.00390625 4.671875 -0.234375 C 4.222656 -0.484375 3.867188 -0.804688 3.609375 -1.203125 L 3.609375 0 L 0.96875 0 L 0.96875 -11.46875 L 3.609375 -11.46875 Z M 7.390625 -4.34375 C 7.390625 -5 7.207031 -5.515625 6.84375 -5.890625 C 6.476562 -6.273438 6.023438 -6.46875 5.484375 -6.46875 C 4.960938 -6.46875 4.515625 -6.273438 4.140625 -5.890625 C 3.773438 -5.503906 3.59375 -4.984375 3.59375 -4.328125 C 3.59375 -3.660156 3.773438 -3.132812 4.140625 -2.75 C 4.515625 -2.375 4.960938 -2.1875 5.484375 -2.1875 C 6.015625 -2.1875 6.460938 -2.378906 6.828125 -2.765625 C 7.203125 -3.148438 7.390625 -3.675781 7.390625 -4.34375 Z M 7.390625 -4.34375 "/></g></g></g><g fill="#f4ece5" fill-opacity="1"><g transform="translate(11.404872, 14.805024)"><g><path d="M 9.109375 -4.46875 C 9.109375 -4.21875 9.09375 -3.957031 9.0625 -3.6875 L 3.0625 -3.6875 C 3.101562 -3.15625 3.273438 -2.742188 3.578125 -2.453125 C 3.890625 -2.171875 4.269531 -2.03125 4.71875 -2.03125 C 5.375 -2.03125 5.832031 -2.3125 6.09375 -2.875 L 8.90625 -2.875 C 8.769531 -2.300781 8.507812 -1.785156 8.125 -1.328125 C 7.75 -0.878906 7.273438 -0.523438 6.703125 -0.265625 C 6.140625 -0.00390625 5.507812 0.125 4.8125 0.125 C 3.957031 0.125 3.195312 -0.0546875 2.53125 -0.421875 C 1.875 -0.785156 1.359375 -1.300781 0.984375 -1.96875 C 0.617188 -2.632812 0.4375 -3.421875 0.4375 -4.328125 C 0.4375 -5.222656 0.617188 -6.003906 0.984375 -6.671875 C 1.347656 -7.347656 1.859375 -7.863281 2.515625 -8.21875 C 3.179688 -8.582031 3.945312 -8.765625 4.8125 -8.765625 C 5.644531 -8.765625 6.382812 -8.585938 7.03125 -8.234375 C 7.6875 -7.890625 8.195312 -7.390625 8.5625 -6.734375 C 8.925781 -6.085938 9.109375 -5.332031 9.109375 -4.46875 Z M 6.40625 -5.15625 C 6.40625 -5.613281 6.25 -5.976562 5.9375 -6.25 C 5.625 -6.519531 5.238281 -6.65625 4.78125 -6.65625 C 4.332031 -6.65625 3.953125 -6.523438 3.640625 -6.265625 C 3.335938 -6.003906 3.148438 -5.632812 3.078125 -5.15625 Z M 6.40625 -5.15625 "/></g></g></g><g fill="#f4ece5" fill-opacity="1"><g transform="translate(20.952362, 14.805024)"><g><path d="M 5.78125 -2.25 L 5.78125 0 L 4.4375 0 C 3.46875 0 2.710938 -0.234375 2.171875 -0.703125 C 1.640625 -1.171875 1.375 -1.9375 1.375 -3 L 1.375 -6.453125 L 0.328125 -6.453125 L 0.328125 -8.65625 L 1.375 -8.65625 L 1.375 -10.75 L 4.03125 -10.75 L 4.03125 -8.65625 L 5.765625 -8.65625 L 5.765625 -6.453125 L 4.03125 -6.453125 L 4.03125 -2.96875 C 4.03125 -2.71875 4.09375 -2.535156 4.21875 -2.421875 C 4.34375 -2.304688 4.550781 -2.25 4.84375 -2.25 Z M 5.78125 -2.25 "/></g></g></g><g fill="#f4ece5" fill-opacity="1"><g transform="translate(27.245016, 14.805024)"><g><path d="M 5.78125 -2.25 L 5.78125 0 L 4.4375 0 C 3.46875 0 2.710938 -0.234375 2.171875 -0.703125 C 1.640625 -1.171875 1.375 -1.9375 1.375 -3 L 1.375 -6.453125 L 0.328125 -6.453125 L 0.328125 -8.65625 L 1.375 -8.65625 L 1.375 -10.75 L 4.03125 -10.75 L 4.03125 -8.65625 L 5.765625 -8.65625 L 5.765625 -6.453125 L 4.03125 -6.453125 L 4.03125 -2.96875 C 4.03125 -2.71875 4.09375 -2.535156 4.21875 -2.421875 C 4.34375 -2.304688 4.550781 -2.25 4.84375 -2.25 Z M 5.78125 -2.25 "/></g></g></g><g fill="#f4ece5" fill-opacity="1"><g transform="translate(33.537669, 14.805024)"><g><path d="M 9.109375 -4.46875 C 9.109375 -4.21875 9.09375 -3.957031 9.0625 -3.6875 L 3.0625 -3.6875 C 3.101562 -3.15625 3.273438 -2.742188 3.578125 -2.453125 C 3.890625 -2.171875 4.269531 -2.03125 4.71875 -2.03125 C 5.375 -2.03125 5.832031 -2.3125 6.09375 -2.875 L 8.90625 -2.875 C 8.769531 -2.300781 8.507812 -1.785156 8.125 -1.328125 C 7.75 -0.878906 7.273438 -0.523438 6.703125 -0.265625 C 6.140625 -0.00390625 5.507812 0.125 4.8125 0.125 C 3.957031 0.125 3.195312 -0.0546875 2.53125 -0.421875 C 1.875 -0.785156 1.359375 -1.300781 0.984375 -1.96875 C 0.617188 -2.632812 0.4375 -3.421875 0.4375 -4.328125 C 0.4375 -5.222656 0.617188 -6.003906 0.984375 -6.671875 C 1.347656 -7.347656 1.859375 -7.863281 2.515625 -8.21875 C 3.179688 -8.582031 3.945312 -8.765625 4.8125 -8.765625 C 5.644531 -8.765625 6.382812 -8.585938 7.03125 -8.234375 C 7.6875 -7.890625 8.195312 -7.390625 8.5625 -6.734375 C 8.925781 -6.085938 9.109375 -5.332031 9.109375 -4.46875 Z M 6.40625 -5.15625 C 6.40625 -5.613281 6.25 -5.976562 5.9375 -6.25 C 5.625 -6.519531 5.238281 -6.65625 4.78125 -6.65625 C 4.332031 -6.65625 3.953125 -6.523438 3.640625 -6.265625 C 3.335938 -6.003906 3.148438 -5.632812 3.078125 -5.15625 Z M 6.40625 -5.15625 "/></g></g></g><g fill="#f4ece5" fill-opacity="1"><g transform="translate(43.085159, 14.805024)"><g><path d="M 3.609375 -7.203125 C 3.921875 -7.679688 4.304688 -8.054688 4.765625 -8.328125 C 5.234375 -8.597656 5.753906 -8.734375 6.328125 -8.734375 L 6.328125 -5.9375 L 5.59375 -5.9375 C 4.9375 -5.9375 4.441406 -5.789062 4.109375 -5.5 C 3.773438 -5.21875 3.609375 -4.722656 3.609375 -4.015625 L 3.609375 0 L 0.96875 0 L 0.96875 -8.65625 L 3.609375 -8.65625 Z M 3.609375 -7.203125 "/></g></g></g><g fill="#f4ece5" fill-opacity="1"><g transform="translate(49.718805, 14.805024)"><g/></g></g><g fill="#f4ece5" fill-opacity="1"><g transform="translate(53.004622, 14.805024)"><g><path d="M 3.609375 -7.421875 C 3.867188 -7.828125 4.222656 -8.148438 4.671875 -8.390625 C 5.128906 -8.640625 5.664062 -8.765625 6.28125 -8.765625 C 6.988281 -8.765625 7.628906 -8.582031 8.203125 -8.21875 C 8.785156 -7.863281 9.242188 -7.347656 9.578125 -6.671875 C 9.921875 -6.003906 10.09375 -5.226562 10.09375 -4.34375 C 10.09375 -3.445312 9.921875 -2.660156 9.578125 -1.984375 C 9.242188 -1.304688 8.785156 -0.785156 8.203125 -0.421875 C 7.628906 -0.0546875 6.988281 0.125 6.28125 0.125 C 5.675781 0.125 5.144531 0 4.6875 -0.25 C 4.226562 -0.5 3.867188 -0.816406 3.609375 -1.203125 L 3.609375 4.125 L 0.96875 4.125 L 0.96875 -8.65625 L 3.609375 -8.65625 Z M 7.390625 -4.34375 C 7.390625 -5 7.207031 -5.515625 6.84375 -5.890625 C 6.476562 -6.273438 6.023438 -6.46875 5.484375 -6.46875 C 4.960938 -6.46875 4.515625 -6.273438 4.140625 -5.890625 C 3.773438 -5.503906 3.59375 -4.984375 3.59375 -4.328125 C 3.59375 -3.660156 3.773438 -3.132812 4.140625 -2.75 C 4.515625 -2.375 4.960938 -2.1875 5.484375 -2.1875 C 6.015625 -2.1875 6.460938 -2.378906 6.828125 -2.765625 C 7.203125 -3.148438 7.390625 -3.675781 7.390625 -4.34375 Z M 7.390625 -4.34375 "/></g></g></g><g fill="#f4ece5" fill-opacity="1"><g transform="translate(63.52855, 14.805024)"><g><path d="M 9.109375 -4.46875 C 9.109375 -4.21875 9.09375 -3.957031 9.0625 -3.6875 L 3.0625 -3.6875 C 3.101562 -3.15625 3.273438 -2.742188 3.578125 -2.453125 C 3.890625 -2.171875 4.269531 -2.03125 4.71875 -2.03125 C 5.375 -2.03125 5.832031 -2.3125 6.09375 -2.875 L 8.90625 -2.875 C 8.769531 -2.300781 8.507812 -1.785156 8.125 -1.328125 C 7.75 -0.878906 7.273438 -0.523438 6.703125 -0.265625 C 6.140625 -0.00390625 5.507812 0.125 4.8125 0.125 C 3.957031 0.125 3.195312 -0.0546875 2.53125 -0.421875 C 1.875 -0.785156 1.359375 -1.300781 0.984375 -1.96875 C 0.617188 -2.632812 0.4375 -3.421875 0.4375 -4.328125 C 0.4375 -5.222656 0.617188 -6.003906 0.984375 -6.671875 C 1.347656 -7.347656 1.859375 -7.863281 2.515625 -8.21875 C 3.179688 -8.582031 3.945312 -8.765625 4.8125 -8.765625 C 5.644531 -8.765625 6.382812 -8.585938 7.03125 -8.234375 C 7.6875 -7.890625 8.195312 -7.390625 8.5625 -6.734375 C 8.925781 -6.085938 9.109375 -5.332031 9.109375 -4.46875 Z M 6.40625 -5.15625 C 6.40625 -5.613281 6.25 -5.976562 5.9375 -6.25 C 5.625 -6.519531 5.238281 -6.65625 4.78125 -6.65625 C 4.332031 -6.65625 3.953125 -6.523438 3.640625 -6.265625 C 3.335938 -6.003906 3.148438 -5.632812 3.078125 -5.15625 Z M 6.40625 -5.15625 "/></g></g></g><g fill="#f4ece5" fill-opacity="1"><g transform="translate(73.07604, 14.805024)"><g><path d="M 4.890625 0.125 C 4.046875 0.125 3.285156 -0.0546875 2.609375 -0.421875 C 1.929688 -0.785156 1.398438 -1.300781 1.015625 -1.96875 C 0.628906 -2.632812 0.4375 -3.421875 0.4375 -4.328125 C 0.4375 -5.210938 0.628906 -5.992188 1.015625 -6.671875 C 1.410156 -7.347656 1.945312 -7.863281 2.625 -8.21875 C 3.3125 -8.582031 4.078125 -8.765625 4.921875 -8.765625 C 5.773438 -8.765625 6.539062 -8.582031 7.21875 -8.21875 C 7.90625 -7.863281 8.441406 -7.347656 8.828125 -6.671875 C 9.222656 -5.992188 9.421875 -5.210938 9.421875 -4.328125 C 9.421875 -3.429688 9.222656 -2.644531 8.828125 -1.96875 C 8.429688 -1.300781 7.890625 -0.785156 7.203125 -0.421875 C 6.515625 -0.0546875 5.742188 0.125 4.890625 0.125 Z M 4.890625 -2.171875 C 5.398438 -2.171875 5.832031 -2.351562 6.1875 -2.71875 C 6.550781 -3.09375 6.734375 -3.628906 6.734375 -4.328125 C 6.734375 -5.015625 6.554688 -5.546875 6.203125 -5.921875 C 5.859375 -6.296875 5.429688 -6.484375 4.921875 -6.484375 C 4.410156 -6.484375 3.984375 -6.296875 3.640625 -5.921875 C 3.296875 -5.554688 3.125 -5.023438 3.125 -4.328125 C 3.125 -3.628906 3.289062 -3.09375 3.625 -2.71875 C 3.96875 -2.351562 4.390625 -2.171875 4.890625 -2.171875 Z M 4.890625 -2.171875 "/></g></g></g><g fill="#f4ece5" fill-opacity="1"><g transform="translate(82.948998, 14.805024)"><g><path d="M 3.609375 -7.421875 C 3.867188 -7.828125 4.222656 -8.148438 4.671875 -8.390625 C 5.128906 -8.640625 5.664062 -8.765625 6.28125 -8.765625 C 6.988281 -8.765625 7.628906 -8.582031 8.203125 -8.21875 C 8.785156 -7.863281 9.242188 -7.347656 9.578125 -6.671875 C 9.921875 -6.003906 10.09375 -5.226562 10.09375 -4.34375 C 10.09375 -3.445312 9.921875 -2.660156 9.578125 -1.984375 C 9.242188 -1.304688 8.785156 -0.785156 8.203125 -0.421875 C 7.628906 -0.0546875 6.988281 0.125 6.28125 0.125 C 5.675781 0.125 5.144531 0 4.6875 -0.25 C 4.226562 -0.5 3.867188 -0.816406 3.609375 -1.203125 L 3.609375 4.125 L 0.96875 4.125 L 0.96875 -8.65625 L 3.609375 -8.65625 Z M 7.390625 -4.34375 C 7.390625 -5 7.207031 -5.515625 6.84375 -5.890625 C 6.476562 -6.273438 6.023438 -6.46875 5.484375 -6.46875 C 4.960938 -6.46875 4.515625 -6.273438 4.140625 -5.890625 C 3.773438 -5.503906 3.59375 -4.984375 3.59375 -4.328125 C 3.59375 -3.660156 3.773438 -3.132812 4.140625 -2.75 C 4.515625 -2.375 4.960938 -2.1875 5.484375 -2.1875 C 6.015625 -2.1875 6.460938 -2.378906 6.828125 -2.765625 C 7.203125 -3.148438 7.390625 -3.675781 7.390625 -4.34375 Z M 7.390625 -4.34375 "/></g></g></g><g fill="#f4ece5" fill-opacity="1"><g transform="translate(93.472927, 14.805024)"><g><path d="M 3.609375 -11.46875 L 3.609375 0 L 0.96875 0 L 0.96875 -11.46875 Z M 3.609375 -11.46875 "/></g></g></g><g clip-path="url(#ed89b7ad9d)"><g fill="#f4ece5" fill-opacity="1"><g transform="translate(98.045177, 14.805024)"><g><path d="M 9.109375 -4.46875 C 9.109375 -4.21875 9.09375 -3.957031 9.0625 -3.6875 L 3.0625 -3.6875 C 3.101562 -3.15625 3.273438 -2.742188 3.578125 -2.453125 C 3.890625 -2.171875 4.269531 -2.03125 4.71875 -2.03125 C 5.375 -2.03125 5.832031 -2.3125 6.09375 -2.875 L 8.90625 -2.875 C 8.769531 -2.300781 8.507812 -1.785156 8.125 -1.328125 C 7.75 -0.878906 7.273438 -0.523438 6.703125 -0.265625 C 6.140625 -0.00390625 5.507812 0.125 4.8125 0.125 C 3.957031 0.125 3.195312 -0.0546875 2.53125 -0.421875 C 1.875 -0.785156 1.359375 -1.300781 0.984375 -1.96875 C 0.617188 -2.632812 0.4375 -3.421875 0.4375 -4.328125 C 0.4375 -5.222656 0.617188 -6.003906 0.984375 -6.671875 C 1.347656 -7.347656 1.859375 -7.863281 2.515625 -8.21875 C 3.179688 -8.582031 3.945312 -8.765625 4.8125 -8.765625 C 5.644531 -8.765625 6.382812 -8.585938 7.03125 -8.234375 C 7.6875 -7.890625 8.195312 -7.390625 8.5625 -6.734375 C 8.925781 -6.085938 9.109375 -5.332031 9.109375 -4.46875 Z M 6.40625 -5.15625 C 6.40625 -5.613281 6.25 -5.976562 5.9375 -6.25 C 5.625 -6.519531 5.238281 -6.65625 4.78125 -6.65625 C 4.332031 -6.65625 3.953125 -6.523438 3.640625 -6.265625 C 3.335938 -6.003906 3.148438 -5.632812 3.078125 -5.15625 Z M 6.40625 -5.15625 "/></g></g></g></g></g></g><g transform="matrix(1, 0, 0, 1, 30, 100)"><g clip-path="url(#d72bc00611)"><g fill="#121212" fill-opacity="1"><g transform="translate(1.818839, 109.883067)"><g><path d="M 46.5 -63.953125 C 42.320312 -63.953125 38.488281 -62.828125 35 -60.578125 C 31.507812 -58.328125 28.71875 -55.34375 26.625 -51.625 C 24.53125 -47.90625 23.484375 -43.796875 23.484375 -39.296875 C 23.484375 -34.878906 24.53125 -30.789062 26.625 -27.03125 C 28.71875 -23.269531 31.507812 -20.265625 35 -18.015625 C 38.488281 -15.773438 42.320312 -14.65625 46.5 -14.65625 C 49.0625 -14.65625 51.753906 -15.019531 54.578125 -15.75 C 57.410156 -16.488281 60.046875 -17.90625 62.484375 -20 C 64.929688 -22.09375 66.851562 -25.113281 68.25 -29.0625 L 48.140625 -29.0625 L 48.140625 -42.203125 L 87.078125 -42.203125 L 87.078125 -39.53125 C 87.078125 -33.945312 86.03125 -28.691406 83.9375 -23.765625 C 81.84375 -18.847656 78.9375 -14.507812 75.21875 -10.75 C 71.5 -6.988281 67.195312 -4.0625 62.3125 -1.96875 C 57.4375 0.113281 52.164062 1.15625 46.5 1.15625 C 40.925781 1.15625 35.675781 0.09375 30.75 -2.03125 C 25.832031 -4.164062 21.507812 -7.09375 17.78125 -10.8125 C 14.0625 -14.53125 11.132812 -18.847656 9 -23.765625 C 6.875 -28.691406 5.8125 -33.945312 5.8125 -39.53125 C 5.8125 -45.113281 6.875 -50.363281 9 -55.28125 C 11.132812 -60.207031 14.0625 -64.53125 17.78125 -68.25 C 21.507812 -71.96875 25.832031 -74.890625 30.75 -77.015625 C 35.675781 -79.148438 40.925781 -80.21875 46.5 -80.21875 C 52.3125 -80.21875 57.816406 -79.035156 63.015625 -76.671875 C 68.210938 -74.304688 72.75 -71.050781 76.625 -66.90625 C 80.5 -62.757812 83.328125 -57.9375 85.109375 -52.4375 L 65.921875 -52.4375 C 63.984375 -56.625 61.226562 -59.585938 57.65625 -61.328125 C 54.09375 -63.078125 50.375 -63.953125 46.5 -63.953125 Z M 46.5 -63.953125 "/></g></g></g></g></g></svg>